solid AutoCAD
   facet normal 9.9675731e-01 8.0466569e-02 -3.5697513e-16
      outer loop
         vertex 9.0179540e-01 1.0276331e+00 3.2400010e+00
         vertex 9.0179540e-01 1.0276331e+00 2.0000010e+00
         vertex 8.9965869e-01 1.0541010e+00 3.2400010e+00
      endloop
   endfacet
   facet normal 9.9675731e-01 8.0466569e-02 -3.5685212e-16
      outer loop
         vertex 8.9965869e-01 1.0541010e+00 3.2400010e+00
         vertex 9.0179540e-01 1.0276331e+00 2.0000010e+00
         vertex 8.9965869e-01 1.0541010e+00 2.0000010e+00
      endloop
   endfacet
   facet normal 9.9675731e-01 -8.0466569e-02 -3.5697513e-16
      outer loop
         vertex 8.9965869e-01 1.0541010e+00 3.2400010e+00
         vertex 8.9965869e-01 1.0541010e+00 2.0000010e+00
         vertex 9.0179540e-01 1.0805689e+00 3.2400010e+00
      endloop
   endfacet
   facet normal 9.9675731e-01 -8.0466569e-02 -3.5705791e-16
      outer loop
         vertex 9.0179540e-01 1.0805689e+00 3.2400010e+00
         vertex 8.9965869e-01 1.0541010e+00 2.0000010e+00
         vertex 9.0179540e-01 1.0805689e+00 2.0000010e+00
      endloop
   endfacet
   facet normal 9.7094182e-01 -2.3931566e-01 -3.4772966e-16
      outer loop
         vertex 9.0179540e-01 1.0805689e+00 3.2400010e+00
         vertex 9.0179540e-01 1.0805689e+00 2.0000010e+00
         vertex 9.0815018e-01 1.1063512e+00 3.2400010e+00
      endloop
   endfacet
   facet normal 9.7094182e-01 -2.3931566e-01 -3.4738545e-16
      outer loop
         vertex 9.0815018e-01 1.1063512e+00 3.2400010e+00
         vertex 9.0179540e-01 1.0805689e+00 2.0000010e+00
         vertex 9.0815018e-01 1.1063512e+00 2.0000010e+00
      endloop
   endfacet
   facet normal 9.1997944e-01 -3.9196661e-01 -3.2947818e-16
      outer loop
         vertex 9.0815018e-01 1.1063512e+00 3.2400010e+00
         vertex 9.0815018e-01 1.1063512e+00 2.0000010e+00
         vertex 9.1855845e-01 1.1307803e+00 3.2400010e+00
      endloop
   endfacet
   facet normal 9.1997944e-01 -3.9196661e-01 -4.2311877e-16
      outer loop
         vertex 9.1855845e-01 1.1307803e+00 3.2400010e+00
         vertex 9.0815018e-01 1.1063512e+00 2.0000010e+00
         vertex 9.1855845e-01 1.1307803e+00 2.0000010e+00
      endloop
   endfacet
   facet normal 8.4519009e-01 -5.3446583e-01 -3.5833423e-16
      outer loop
         vertex 9.1855845e-01 1.1307803e+00 3.2400010e+00
         vertex 9.1855845e-01 1.1307803e+00 2.0000010e+00
         vertex 9.3275064e-01 1.1532235e+00 3.2400010e+00
      endloop
   endfacet
   facet normal 8.4519009e-01 -5.3446583e-01 -4.5439993e-16
      outer loop
         vertex 9.3275064e-01 1.1532235e+00 3.2400010e+00
         vertex 9.1855845e-01 1.1307803e+00 2.0000010e+00
         vertex 9.3275064e-01 1.1532235e+00 2.0000010e+00
      endloop
   endfacet
   facet normal 7.4851075e-01 -6.6312266e-01 -4.0210348e-16
      outer loop
         vertex 9.3275064e-01 1.1532235e+00 3.2400010e+00
         vertex 9.3275064e-01 1.1532235e+00 2.0000010e+00
         vertex 9.5035917e-01 1.1730994e+00 3.2400010e+00
      endloop
   endfacet
   facet normal 7.4851075e-01 -6.6312266e-01 -2.6835938e-16
      outer loop
         vertex 9.5035917e-01 1.1730994e+00 3.2400010e+00
         vertex 9.3275064e-01 1.1532235e+00 2.0000010e+00
         vertex 9.5035917e-01 1.1730994e+00 2.0000010e+00
      endloop
   endfacet
   facet normal 6.3244538e-01 -7.7460496e-01 -2.2650175e-16
      outer loop
         vertex 9.5035917e-01 1.1730994e+00 3.2400010e+00
         vertex 9.5035917e-01 1.1730994e+00 2.0000010e+00
         vertex 9.7092801e-01 1.1898933e+00 3.2400010e+00
      endloop
   endfacet
   facet normal 6.3244538e-01 -7.7460496e-01 -2.2719996e-16
      outer loop
         vertex 9.7092801e-01 1.1898933e+00 3.2400010e+00
         vertex 9.5035917e-01 1.1730994e+00 2.0000010e+00
         vertex 9.7092801e-01 1.1898933e+00 2.0000010e+00
      endloop
   endfacet
   facet normal 5.0000000e-01 -8.6602540e-01 -1.7906823e-16
      outer loop
         vertex 9.7092801e-01 1.1898933e+00 3.2400010e+00
         vertex 9.7092801e-01 1.1898933e+00 2.0000010e+00
         vertex 9.9392442e-01 1.2031703e+00 3.2400010e+00
      endloop
   endfacet
   facet normal 5.0000000e-01 -8.6602540e-01 -1.7945504e-16
      outer loop
         vertex 9.9392442e-01 1.2031703e+00 3.2400010e+00
         vertex 9.7092801e-01 1.1898933e+00 2.0000010e+00
         vertex 9.9392442e-01 1.2031703e+00 2.0000010e+00
      endloop
   endfacet
   facet normal 3.5460489e-01 -9.3501624e-01 -1.2699694e-16
      outer loop
         vertex 9.9392442e-01 1.2031703e+00 3.2400010e+00
         vertex 9.9392442e-01 1.2031703e+00 2.0000010e+00
         vertex 1.0187528e+00 1.2125865e+00 3.2400010e+00
      endloop
   endfacet
   facet normal 3.5460489e-01 -9.3501624e-01 -1.2677099e-16
      outer loop
         vertex 1.0187528e+00 1.2125865e+00 3.2400010e+00
         vertex 9.9392442e-01 1.2031703e+00 2.0000010e+00
         vertex 1.0187528e+00 1.2125865e+00 2.0000010e+00
      endloop
   endfacet
   facet normal 2.0002569e-01 -9.7979065e-01 -7.1636494e-17
      outer loop
         vertex 1.0187528e+00 1.2125865e+00 3.2400010e+00
         vertex 1.0187528e+00 1.2125865e+00 2.0000010e+00
         vertex 1.0447701e+00 1.2178980e+00 3.2400010e+00
      endloop
   endfacet
   facet normal 2.0002569e-01 -9.7979065e-01 -7.1617380e-17
      outer loop
         vertex 1.0447701e+00 1.2178980e+00 3.2400010e+00
         vertex 1.0187528e+00 1.2125865e+00 2.0000010e+00
         vertex 1.0447701e+00 1.2178980e+00 2.0000010e+00
      endloop
   endfacet
   facet normal 4.0265940e-02 -9.9918900e-01 -1.4420701e-17
      outer loop
         vertex 1.0447701e+00 1.2178980e+00 3.2400010e+00
         vertex 1.0447701e+00 1.2178980e+00 2.0000010e+00
         vertex 1.0713026e+00 1.2189672e+00 3.2400010e+00
      endloop
   endfacet
   facet normal 4.0265940e-02 -9.9918900e-01 -1.4508693e-17
      outer loop
         vertex 1.0713026e+00 1.2189672e+00 3.2400010e+00
         vertex 1.0447701e+00 1.2178980e+00 2.0000010e+00
         vertex 1.0713026e+00 1.2189672e+00 2.0000010e+00
      endloop
   endfacet
   facet normal -1.2053668e-01 -9.9270887e-01 4.3168580e-17
      outer loop
         vertex 1.0713026e+00 1.2189672e+00 3.2400010e+00
         vertex 1.0713026e+00 1.2189672e+00 2.0000010e+00
         vertex 1.0976629e+00 1.2157665e+00 3.2400010e+00
      endloop
   endfacet
   facet normal -1.2053668e-01 -9.9270887e-01 4.2805790e-17
      outer loop
         vertex 1.0976629e+00 1.2157665e+00 3.2400010e+00
         vertex 1.0713026e+00 1.2189672e+00 2.0000010e+00
         vertex 1.0976629e+00 1.2157665e+00 2.0000010e+00
      endloop
   endfacet
   facet normal -2.7821746e-01 -9.6051811e-01 9.9639818e-17
      outer loop
         vertex 1.0976629e+00 1.2157665e+00 3.2400010e+00
         vertex 1.0976629e+00 1.2157665e+00 2.0000010e+00
         vertex 1.1231685e+00 1.2083787e+00 3.2400010e+00
      endloop
   endfacet
   facet normal -2.7821746e-01 -9.6051811e-01 9.9605781e-17
      outer loop
         vertex 1.1231685e+00 1.2083787e+00 3.2400010e+00
         vertex 1.0976629e+00 1.2157665e+00 2.0000010e+00
         vertex 1.1231685e+00 1.2083787e+00 2.0000010e+00
      endloop
   endfacet
   facet normal -4.2869256e-01 -9.0345043e-01 1.5353044e-16
      outer loop
         vertex 1.1231685e+00 1.2083787e+00 3.2400010e+00
         vertex 1.1231685e+00 1.2083787e+00 2.0000010e+00
         vertex 1.1471587e+00 1.1969952e+00 3.2400010e+00
      endloop
   endfacet
   facet normal -4.2869256e-01 -9.0345043e-01 1.5311302e-16
      outer loop
         vertex 1.1471587e+00 1.1969952e+00 3.2400010e+00
         vertex 1.1231685e+00 1.2083787e+00 2.0000010e+00
         vertex 1.1471587e+00 1.1969952e+00 2.0000010e+00
      endloop
   endfacet
   facet normal -5.6806475e-01 -8.2298387e-01 2.0344470e-16
      outer loop
         vertex 1.1471587e+00 1.1969952e+00 3.2400010e+00
         vertex 1.1471587e+00 1.1969952e+00 2.0000010e+00
         vertex 1.1690122e+00 1.1819108e+00 3.2400010e+00
      endloop
   endfacet
   facet normal -5.6806475e-01 -8.2298387e-01 1.5805215e-16
      outer loop
         vertex 1.1690122e+00 1.1819108e+00 3.2400010e+00
         vertex 1.1471587e+00 1.1969952e+00 2.0000010e+00
         vertex 1.1690122e+00 1.1819108e+00 2.0000010e+00
      endloop
   endfacet
   facet normal -6.9272435e-01 -7.2120245e-01 2.4299033e-16
      outer loop
         vertex 1.1690122e+00 1.1819108e+00 3.2400010e+00
         vertex 1.1690122e+00 1.1819108e+00 2.0000010e+00
         vertex 1.1881630e+00 1.1635162e+00 3.2400010e+00
      endloop
   endfacet
   facet normal -6.9272435e-01 -7.2120245e-01 2.4860286e-16
      outer loop
         vertex 1.1881630e+00 1.1635162e+00 3.2400010e+00
         vertex 1.1690122e+00 1.1819108e+00 2.0000010e+00
         vertex 1.1881630e+00 1.1635162e+00 2.0000010e+00
      endloop
   endfacet
   facet normal -7.9944276e-01 -6.0074226e-01 2.8630960e-16
      outer loop
         vertex 1.1881630e+00 1.1635162e+00 3.2400010e+00
         vertex 1.1881630e+00 1.1635162e+00 2.0000010e+00
         vertex 1.2041151e+00 1.1422879e+00 3.2400010e+00
      endloop
   endfacet
   facet normal -7.9944276e-01 -6.0074226e-01 1.7780867e-16
      outer loop
         vertex 1.2041151e+00 1.1422879e+00 3.2400010e+00
         vertex 1.1881630e+00 1.1635162e+00 2.0000010e+00
         vertex 1.2041151e+00 1.1422879e+00 2.0000010e+00
      endloop
   endfacet
   facet normal -8.8545603e-01 -4.6472317e-01 2.3389693e-16
      outer loop
         vertex 1.2041151e+00 1.1422879e+00 3.2400010e+00
         vertex 1.2041151e+00 1.1422879e+00 2.0000010e+00
         vertex 1.2164553e+00 1.1187755e+00 3.2400010e+00
      endloop
   endfacet
   facet normal -8.8545603e-01 -4.6472317e-01 3.1610430e-16
      outer loop
         vertex 1.2164553e+00 1.1187755e+00 3.2400010e+00
         vertex 1.2041151e+00 1.1422879e+00 2.0000010e+00
         vertex 1.2164553e+00 1.1187755e+00 2.0000010e+00
      endloop
   endfacet
   facet normal -9.4853644e-01 -3.1666799e-01 3.3970548e-16
      outer loop
         vertex 1.2164553e+00 1.1187755e+00 3.2400010e+00
         vertex 1.2164553e+00 1.1187755e+00 2.0000010e+00
         vertex 1.2248641e+00 1.0935881e+00 3.2400010e+00
      endloop
   endfacet
   facet normal -9.4853644e-01 -3.1666799e-01 2.8317677e-16
      outer loop
         vertex 1.2248641e+00 1.0935881e+00 3.2400010e+00
         vertex 1.2164553e+00 1.1187755e+00 2.0000010e+00
         vertex 1.2248641e+00 1.0935881e+00 2.0000010e+00
      endloop
   endfacet
   facet normal -9.8705026e-01 -1.6041128e-01 3.2477412e-16
      outer loop
         vertex 1.2248641e+00 1.0935881e+00 3.2400010e+00
         vertex 1.2248641e+00 1.0935881e+00 2.0000010e+00
         vertex 1.2291236e+00 1.0673780e+00 3.2400010e+00
      endloop
   endfacet
   facet normal -9.8705026e-01 -1.6041128e-01 3.2474777e-16
      outer loop
         vertex 1.2291236e+00 1.0673780e+00 3.2400010e+00
         vertex 1.2248641e+00 1.0935881e+00 2.0000010e+00
         vertex 1.2291236e+00 1.0673780e+00 2.0000010e+00
      endloop
   endfacet
   facet normal -1.0000000e+00 0.0000000e+00 3.5813646e-16
      outer loop
         vertex 1.2291236e+00 1.0673780e+00 3.2400010e+00
         vertex 1.2291236e+00 1.0673780e+00 2.0000010e+00
         vertex 1.2291236e+00 1.0408240e+00 3.2400010e+00
      endloop
   endfacet
   facet normal -1.0000000e+00 0.0000000e+00 3.5813646e-16
      outer loop
         vertex 1.2291236e+00 1.0408240e+00 3.2400010e+00
         vertex 1.2291236e+00 1.0673780e+00 2.0000010e+00
         vertex 1.2291236e+00 1.0408240e+00 2.0000010e+00
      endloop
   endfacet
   facet normal -9.8705026e-01 1.6041128e-01 3.5349869e-16
      outer loop
         vertex 1.2291236e+00 1.0408240e+00 3.2400010e+00
         vertex 1.2291236e+00 1.0408240e+00 2.0000010e+00
         vertex 1.2248641e+00 1.0146139e+00 3.2400010e+00
      endloop
   endfacet
   facet normal -9.8705026e-01 1.6041128e-01 3.5355936e-16
      outer loop
         vertex 1.2248641e+00 1.0146139e+00 3.2400010e+00
         vertex 1.2291236e+00 1.0408240e+00 2.0000010e+00
         vertex 1.2248641e+00 1.0146139e+00 2.0000010e+00
      endloop
   endfacet
   facet normal -9.4853644e-01 3.1666799e-01 3.3970548e-16
      outer loop
         vertex 1.2248641e+00 1.0146139e+00 3.2400010e+00
         vertex 1.2248641e+00 1.0146139e+00 2.0000010e+00
         vertex 1.2164553e+00 9.8942651e-01 3.2400010e+00
      endloop
   endfacet
   facet normal -9.4853644e-01 3.1666799e-01 3.3915357e-16
      outer loop
         vertex 1.2164553e+00 9.8942651e-01 3.2400010e+00
         vertex 1.2248641e+00 1.0146139e+00 2.0000010e+00
         vertex 1.2164553e+00 9.8942651e-01 2.0000010e+00
      endloop
   endfacet
   facet normal -8.8545603e-01 4.6472317e-01 3.1711409e-16
      outer loop
         vertex 1.2164553e+00 9.8942651e-01 3.2400010e+00
         vertex 1.2164553e+00 9.8942651e-01 2.0000010e+00
         vertex 1.2041151e+00 9.6591414e-01 3.2400010e+00
      endloop
   endfacet
   facet normal -8.8545603e-01 4.6472317e-01 3.1610430e-16
      outer loop
         vertex 1.2041151e+00 9.6591414e-01 3.2400010e+00
         vertex 1.2164553e+00 9.8942651e-01 2.0000010e+00
         vertex 1.2041151e+00 9.6591414e-01 2.0000010e+00
      endloop
   endfacet
   facet normal -7.9944276e-01 6.0074226e-01 2.8630960e-16
      outer loop
         vertex 1.2041151e+00 9.6591414e-01 3.2400010e+00
         vertex 1.2041151e+00 9.6591414e-01 2.0000010e+00
         vertex 1.1881630e+00 9.4468576e-01 3.2400010e+00
      endloop
   endfacet
   facet normal -7.9944276e-01 6.0074226e-01 2.8646952e-16
      outer loop
         vertex 1.1881630e+00 9.4468576e-01 3.2400010e+00
         vertex 1.2041151e+00 9.6591414e-01 2.0000010e+00
         vertex 1.1881630e+00 9.4468576e-01 2.0000010e+00
      endloop
   endfacet
   facet normal -6.9272435e-01 7.2120245e-01 2.4808985e-16
      outer loop
         vertex 1.1881630e+00 9.4468576e-01 3.2400010e+00
         vertex 1.1881630e+00 9.4468576e-01 2.0000010e+00
         vertex 1.1690122e+00 9.2629118e-01 3.2400010e+00
      endloop
   endfacet
   facet normal -6.9272435e-01 7.2120245e-01 2.4860286e-16
      outer loop
         vertex 1.1690122e+00 9.2629118e-01 3.2400010e+00
         vertex 1.1881630e+00 9.4468576e-01 2.0000010e+00
         vertex 1.1690122e+00 9.2629118e-01 2.0000010e+00
      endloop
   endfacet
   facet normal -5.6806475e-01 8.2298387e-01 2.0344470e-16
      outer loop
         vertex 1.1690122e+00 9.2629118e-01 3.2400010e+00
         vertex 1.1690122e+00 9.2629118e-01 2.0000010e+00
         vertex 1.1471587e+00 9.1120681e-01 3.2400010e+00
      endloop
   endfacet
   facet normal -5.6806475e-01 8.2298387e-01 2.0250431e-16
      outer loop
         vertex 1.1471587e+00 9.1120681e-01 3.2400010e+00
         vertex 1.1690122e+00 9.2629118e-01 2.0000010e+00
         vertex 1.1471587e+00 9.1120681e-01 2.0000010e+00
      endloop
   endfacet
   facet normal -4.2869256e-01 9.0345043e-01 1.5353044e-16
      outer loop
         vertex 1.1471587e+00 9.1120681e-01 3.2400010e+00
         vertex 1.1471587e+00 9.1120681e-01 2.0000010e+00
         vertex 1.1231685e+00 8.9982332e-01 3.2400010e+00
      endloop
   endfacet
   facet normal -4.2869256e-01 9.0345043e-01 1.5311302e-16
      outer loop
         vertex 1.1231685e+00 8.9982332e-01 3.2400010e+00
         vertex 1.1471587e+00 9.1120681e-01 2.0000010e+00
         vertex 1.1231685e+00 8.9982332e-01 2.0000010e+00
      endloop
   endfacet
   facet normal -2.7821746e-01 9.6051811e-01 9.9639818e-17
      outer loop
         vertex 1.1231685e+00 8.9982332e-01 3.2400010e+00
         vertex 1.1231685e+00 8.9982332e-01 2.0000010e+00
         vertex 1.0976629e+00 8.9243554e-01 3.2400010e+00
      endloop
   endfacet
   facet normal -2.7821746e-01 9.6051811e-01 9.9605781e-17
      outer loop
         vertex 1.0976629e+00 8.9243554e-01 3.2400010e+00
         vertex 1.1231685e+00 8.9982332e-01 2.0000010e+00
         vertex 1.0976629e+00 8.9243554e-01 2.0000010e+00
      endloop
   endfacet
   facet normal -1.2053668e-01 9.9270887e-01 4.3168580e-17
      outer loop
         vertex 1.0976629e+00 8.9243554e-01 3.2400010e+00
         vertex 1.0976629e+00 8.9243554e-01 2.0000010e+00
         vertex 1.0713026e+00 8.8923482e-01 3.2400010e+00
      endloop
   endfacet
   facet normal -1.2053668e-01 9.9270887e-01 4.3217384e-17
      outer loop
         vertex 1.0713026e+00 8.8923482e-01 3.2400010e+00
         vertex 1.0976629e+00 8.9243554e-01 2.0000010e+00
         vertex 1.0713026e+00 8.8923482e-01 2.0000010e+00
      endloop
   endfacet
   facet normal 4.0265940e-02 9.9918900e-01 -1.4420701e-17
      outer loop
         vertex 1.0713026e+00 8.8923482e-01 3.2400010e+00
         vertex 1.0713026e+00 8.8923482e-01 2.0000010e+00
         vertex 1.0447701e+00 8.9030404e-01 3.2400010e+00
      endloop
   endfacet
   facet normal 4.0265940e-02 9.9918900e-01 -1.4405795e-17
      outer loop
         vertex 1.0447701e+00 8.9030404e-01 3.2400010e+00
         vertex 1.0713026e+00 8.8923482e-01 2.0000010e+00
         vertex 1.0447701e+00 8.9030404e-01 2.0000010e+00
      endloop
   endfacet
   facet normal 2.0002569e-01 9.7979065e-01 -7.1636494e-17
      outer loop
         vertex 1.0447701e+00 8.9030404e-01 3.2400010e+00
         vertex 1.0447701e+00 8.9030404e-01 2.0000010e+00
         vertex 1.0187528e+00 8.9561551e-01 3.2400010e+00
      endloop
   endfacet
   facet normal 2.0002569e-01 9.7979065e-01 -7.1617380e-17
      outer loop
         vertex 1.0187528e+00 8.9561551e-01 3.2400010e+00
         vertex 1.0447701e+00 8.9030404e-01 2.0000010e+00
         vertex 1.0187528e+00 8.9561551e-01 2.0000010e+00
      endloop
   endfacet
   facet normal 3.5460489e-01 9.3501624e-01 -1.2699694e-16
      outer loop
         vertex 1.0187528e+00 8.9561551e-01 3.2400010e+00
         vertex 1.0187528e+00 8.9561551e-01 2.0000010e+00
         vertex 9.9392442e-01 9.0503168e-01 3.2400010e+00
      endloop
   endfacet
   facet normal 3.5460489e-01 9.3501624e-01 -6.3385497e-17
      outer loop
         vertex 9.9392442e-01 9.0503168e-01 3.2400010e+00
         vertex 1.0187528e+00 8.9561551e-01 2.0000010e+00
         vertex 9.9392442e-01 9.0503168e-01 2.0000010e+00
      endloop
   endfacet
   facet normal 5.0000000e-01 8.6602540e-01 -8.9534115e-17
      outer loop
         vertex 9.9392442e-01 9.0503168e-01 3.2400010e+00
         vertex 9.9392442e-01 9.0503168e-01 2.0000010e+00
         vertex 9.7092801e-01 9.1830866e-01 3.2400010e+00
      endloop
   endfacet
   facet normal 5.0000000e-01 8.6602540e-01 -1.7945504e-16
      outer loop
         vertex 9.7092801e-01 9.1830866e-01 3.2400010e+00
         vertex 9.9392442e-01 9.0503168e-01 2.0000010e+00
         vertex 9.7092801e-01 9.1830866e-01 2.0000010e+00
      endloop
   endfacet
   facet normal 6.3244538e-01 7.7460496e-01 -2.2650175e-16
      outer loop
         vertex 9.7092801e-01 9.1830866e-01 3.2400010e+00
         vertex 9.7092801e-01 9.1830866e-01 2.0000010e+00
         vertex 9.5035917e-01 9.3510260e-01 3.2400010e+00
      endloop
   endfacet
   facet normal 6.3244538e-01 7.7460496e-01 -2.2555359e-16
      outer loop
         vertex 9.5035917e-01 9.3510260e-01 3.2400010e+00
         vertex 9.7092801e-01 9.1830866e-01 2.0000010e+00
         vertex 9.5035917e-01 9.3510260e-01 2.0000010e+00
      endloop
   endfacet
   facet normal 7.4851075e-01 6.6312266e-01 -2.6806899e-16
      outer loop
         vertex 9.5035917e-01 9.3510260e-01 3.2400010e+00
         vertex 9.5035917e-01 9.3510260e-01 2.0000010e+00
         vertex 9.3275064e-01 9.5497853e-01 3.2400010e+00
      endloop
   endfacet
   facet normal 7.4851075e-01 6.6312266e-01 -3.8689849e-16
      outer loop
         vertex 9.3275064e-01 9.5497853e-01 3.2400010e+00
         vertex 9.5035917e-01 9.3510260e-01 2.0000010e+00
         vertex 9.3275064e-01 9.5497853e-01 2.0000010e+00
      endloop
   endfacet
   facet normal 8.4519009e-01 5.3446583e-01 -3.9839923e-16
      outer loop
         vertex 9.3275064e-01 9.5497853e-01 3.2400010e+00
         vertex 9.3275064e-01 9.5497853e-01 2.0000010e+00
         vertex 9.1855845e-01 9.7742168e-01 3.2400010e+00
      endloop
   endfacet
   facet normal 8.4519009e-01 5.3446583e-01 -3.0293328e-16
      outer loop
         vertex 9.1855845e-01 9.7742168e-01 3.2400010e+00
         vertex 9.3275064e-01 9.5497853e-01 2.0000010e+00
         vertex 9.1855845e-01 9.7742168e-01 2.0000010e+00
      endloop
   endfacet
   facet normal 9.1997944e-01 3.9196661e-01 -3.2947818e-16
      outer loop
         vertex 9.1855845e-01 9.7742168e-01 3.2400010e+00
         vertex 9.1855845e-01 9.7742168e-01 2.0000010e+00
         vertex 9.0815018e-01 1.0018508e+00 3.2400010e+00
      endloop
   endfacet
   facet normal 9.1997944e-01 3.9196661e-01 -3.2927531e-16
      outer loop
         vertex 9.0815018e-01 1.0018508e+00 3.2400010e+00
         vertex 9.1855845e-01 9.7742168e-01 2.0000010e+00
         vertex 9.0815018e-01 1.0018508e+00 2.0000010e+00
      endloop
   endfacet
   facet normal 9.7094182e-01 2.3931566e-01 -3.4772966e-16
      outer loop
         vertex 9.0815018e-01 1.0018508e+00 3.2400010e+00
         vertex 9.0815018e-01 1.0018508e+00 2.0000010e+00
         vertex 9.0179540e-01 1.0276331e+00 3.2400010e+00
      endloop
   endfacet
   facet normal 9.7094182e-01 2.3931566e-01 -3.4820864e-16
      outer loop
         vertex 9.0179540e-01 1.0276331e+00 3.2400010e+00
         vertex 9.0815018e-01 1.0018508e+00 2.0000010e+00
         vertex 9.0179540e-01 1.0276331e+00 2.0000010e+00
      endloop
   endfacet
   facet normal -1.2568170e-13 5.6967652e-14 -1.0000000e+00
      outer loop
         vertex 9.0179540e-01 1.0276331e+00 2.0000010e+00
         vertex 4.2540100e-01 1.0000000e-06 2.0000010e+00
         vertex 8.9965869e-01 1.0541010e+00 2.0000010e+00
      endloop
   endfacet
   facet normal 1.7454426e-15 -3.6400755e-16 -1.0000000e+00
      outer loop
         vertex 8.9965869e-01 1.0541010e+00 2.0000010e+00
         vertex 4.2540100e-01 1.0000000e-06 2.0000010e+00
         vertex 4.2540100e-01 2.4400010e+00 2.0000010e+00
      endloop
   endfacet
   facet normal -1.5641449e-13 -5.4486645e-14 -1.0000000e+00
      outer loop
         vertex 8.9965869e-01 1.0541010e+00 2.0000010e+00
         vertex 4.2540100e-01 2.4400010e+00 2.0000010e+00
         vertex 9.0179540e-01 1.0805689e+00 2.0000010e+00
      endloop
   endfacet
   facet normal -5.4726893e-16 1.3488968e-16 -1.0000000e+00
      outer loop
         vertex 9.0179540e-01 1.0805689e+00 2.0000010e+00
         vertex 4.2540100e-01 2.4400010e+00 2.0000010e+00
         vertex 9.0815018e-01 1.1063512e+00 2.0000010e+00
      endloop
   endfacet
   facet normal -4.2255406e-16 1.8003346e-16 -1.0000000e+00
      outer loop
         vertex 9.0815018e-01 1.1063512e+00 2.0000010e+00
         vertex 4.2540100e-01 2.4400010e+00 2.0000010e+00
         vertex 9.1855845e-01 1.1307803e+00 2.0000010e+00
      endloop
   endfacet
   facet normal -3.3616167e-16 2.1257576e-16 -1.0000000e+00
      outer loop
         vertex 9.1855845e-01 1.1307803e+00 2.0000010e+00
         vertex 4.2540100e-01 2.4400010e+00 2.0000010e+00
         vertex 9.3275064e-01 1.1532235e+00 2.0000010e+00
      endloop
   endfacet
   facet normal -2.6958038e-16 2.3882738e-16 -1.0000000e+00
      outer loop
         vertex 9.3275064e-01 1.1532235e+00 2.0000010e+00
         vertex 4.2540100e-01 2.4400010e+00 2.0000010e+00
         vertex 9.5035917e-01 1.1730994e+00 2.0000010e+00
      endloop
   endfacet
   facet normal -2.1385081e-16 2.6191969e-16 -1.0000000e+00
      outer loop
         vertex 9.5035917e-01 1.1730994e+00 2.0000010e+00
         vertex 4.2540100e-01 2.4400010e+00 2.0000010e+00
         vertex 9.7092801e-01 1.1898933e+00 2.0000010e+00
      endloop
   endfacet
   facet normal -1.6382359e-16 2.8375078e-16 -1.0000000e+00
      outer loop
         vertex 9.7092801e-01 1.1898933e+00 2.0000010e+00
         vertex 4.2540100e-01 2.4400010e+00 2.0000010e+00
         vertex 9.9392442e-01 1.2031703e+00 2.0000010e+00
      endloop
   endfacet
   facet normal -1.1595691e-16 3.0575324e-16 -1.0000000e+00
      outer loop
         vertex 9.9392442e-01 1.2031703e+00 2.0000010e+00
         vertex 4.2540100e-01 2.4400010e+00 2.0000010e+00
         vertex 1.0187528e+00 1.2125865e+00 2.0000010e+00
      endloop
   endfacet
   facet normal -6.7228939e-17 3.2930912e-16 -1.0000000e+00
      outer loop
         vertex 1.0187528e+00 1.2125865e+00 2.0000010e+00
         vertex 4.2540100e-01 2.4400010e+00 2.0000010e+00
         vertex 1.0447701e+00 1.2178980e+00 2.0000010e+00
      endloop
   endfacet
   facet normal -1.4350668e-17 3.5610815e-16 -1.0000000e+00
      outer loop
         vertex 1.0447701e+00 1.2178980e+00 2.0000010e+00
         vertex 4.2540100e-01 2.4400010e+00 2.0000010e+00
         vertex 1.0713026e+00 1.2189672e+00 2.0000010e+00
      endloop
   endfacet
   facet normal -3.5498738e-16 1.7591839e-16 -1.0000000e+00
      outer loop
         vertex 1.0713026e+00 1.2189672e+00 2.0000010e+00
         vertex 4.2540100e-01 2.4400010e+00 2.0000010e+00
         vertex 1.6764010e+00 2.4400010e+00 2.0000010e+00
      endloop
   endfacet
   facet normal 0.0000000e+00 -0.0000000e+00 -1.0000000e+00
      outer loop
         vertex 1.0713026e+00 1.2189672e+00 2.0000010e+00
         vertex 1.6764010e+00 2.4400010e+00 2.0000010e+00
         vertex 1.0976629e+00 1.2157665e+00 2.0000010e+00
      endloop
   endfacet
   facet normal 0.0000000e+00 -0.0000000e+00 -1.0000000e+00
      outer loop
         vertex 1.0976629e+00 1.2157665e+00 2.0000010e+00
         vertex 1.6764010e+00 2.4400010e+00 2.0000010e+00
         vertex 1.1231685e+00 1.2083787e+00 2.0000010e+00
      endloop
   endfacet
   facet normal 0.0000000e+00 -0.0000000e+00 -1.0000000e+00
      outer loop
         vertex 1.1231685e+00 1.2083787e+00 2.0000010e+00
         vertex 1.6764010e+00 2.4400010e+00 2.0000010e+00
         vertex 1.1471587e+00 1.1969952e+00 2.0000010e+00
      endloop
   endfacet
   facet normal 0.0000000e+00 -0.0000000e+00 -1.0000000e+00
      outer loop
         vertex 1.1471587e+00 1.1969952e+00 2.0000010e+00
         vertex 1.6764010e+00 2.4400010e+00 2.0000010e+00
         vertex 1.1690122e+00 1.1819108e+00 2.0000010e+00
      endloop
   endfacet
   facet normal 0.0000000e+00 -0.0000000e+00 -1.0000000e+00
      outer loop
         vertex 1.1690122e+00 1.1819108e+00 2.0000010e+00
         vertex 1.6764010e+00 2.4400010e+00 2.0000010e+00
         vertex 1.1881630e+00 1.1635162e+00 2.0000010e+00
      endloop
   endfacet
   facet normal 0.0000000e+00 -0.0000000e+00 -1.0000000e+00
      outer loop
         vertex 1.1881630e+00 1.1635162e+00 2.0000010e+00
         vertex 1.6764010e+00 2.4400010e+00 2.0000010e+00
         vertex 1.2041151e+00 1.1422879e+00 2.0000010e+00
      endloop
   endfacet
   facet normal 0.0000000e+00 -0.0000000e+00 -1.0000000e+00
      outer loop
         vertex 1.2041151e+00 1.1422879e+00 2.0000010e+00
         vertex 1.6764010e+00 2.4400010e+00 2.0000010e+00
         vertex 1.2164553e+00 1.1187755e+00 2.0000010e+00
      endloop
   endfacet
   facet normal 0.0000000e+00 -0.0000000e+00 -1.0000000e+00
      outer loop
         vertex 1.2164553e+00 1.1187755e+00 2.0000010e+00
         vertex 1.6764010e+00 2.4400010e+00 2.0000010e+00
         vertex 1.2248641e+00 1.0935881e+00 2.0000010e+00
      endloop
   endfacet
   facet normal 0.0000000e+00 -0.0000000e+00 -1.0000000e+00
      outer loop
         vertex 1.2248641e+00 1.0935881e+00 2.0000010e+00
         vertex 1.6764010e+00 2.4400010e+00 2.0000010e+00
         vertex 1.2291236e+00 1.0673780e+00 2.0000010e+00
      endloop
   endfacet
   facet normal 1.1170812e-15 -3.6400755e-16 -1.0000000e+00
      outer loop
         vertex 1.2291236e+00 1.0673780e+00 2.0000010e+00
         vertex 1.6764010e+00 2.4400010e+00 2.0000010e+00
         vertex 1.6764010e+00 1.0000000e-06 2.0000010e+00
      endloop
   endfacet
   facet normal 1.9857442e-15 0.0000000e+00 -1.0000000e+00
      outer loop
         vertex 1.2291236e+00 1.0673780e+00 2.0000010e+00
         vertex 1.6764010e+00 1.0000000e-06 2.0000010e+00
         vertex 1.2291236e+00 1.0408240e+00 2.0000010e+00
      endloop
   endfacet
   facet normal 1.4408480e-15 -2.3416059e-16 -1.0000000e+00
      outer loop
         vertex 1.2291236e+00 1.0408240e+00 2.0000010e+00
         vertex 1.6764010e+00 1.0000000e-06 2.0000010e+00
         vertex 1.2248641e+00 1.0146139e+00 2.0000010e+00
      endloop
   endfacet
   facet normal 1.1239002e-15 -3.7521303e-16 -1.0000000e+00
      outer loop
         vertex 1.2248641e+00 1.0146139e+00 2.0000010e+00
         vertex 1.6764010e+00 1.0000000e-06 2.0000010e+00
         vertex 1.2164553e+00 9.8942651e-01 2.0000010e+00
      endloop
   endfacet
   facet normal 9.0701136e-16 -4.7603629e-16 -1.0000000e+00
      outer loop
         vertex 1.2164553e+00 9.8942651e-01 2.0000010e+00
         vertex 1.6764010e+00 1.0000000e-06 2.0000010e+00
         vertex 1.2041151e+00 9.6591414e-01 2.0000010e+00
      endloop
   endfacet
   facet normal 7.4130847e-16 -5.5705718e-16 -1.0000000e+00
      outer loop
         vertex 1.2041151e+00 9.6591414e-01 2.0000010e+00
         vertex 1.6764010e+00 1.0000000e-06 2.0000010e+00
         vertex 1.1881630e+00 9.4468576e-01 2.0000010e+00
      endloop
   endfacet
   facet normal 6.0348086e-16 -6.2829013e-16 -1.0000000e+00
      outer loop
         vertex 1.1881630e+00 9.4468576e-01 2.0000010e+00
         vertex 1.6764010e+00 1.0000000e-06 2.0000010e+00
         vertex 1.1690122e+00 9.2629118e-01 2.0000010e+00
      endloop
   endfacet
   facet normal 4.8026471e-16 -6.9578355e-16 -1.0000000e+00
      outer loop
         vertex 1.1690122e+00 9.2629118e-01 2.0000010e+00
         vertex 1.6764010e+00 1.0000000e-06 2.0000010e+00
         vertex 1.1471587e+00 9.1120681e-01 2.0000010e+00
      endloop
   endfacet
   facet normal 3.6258576e-16 -7.6413329e-16 -1.0000000e+00
      outer loop
         vertex 1.1471587e+00 9.1120681e-01 2.0000010e+00
         vertex 1.6764010e+00 1.0000000e-06 2.0000010e+00
         vertex 1.1231685e+00 8.9982332e-01 2.0000010e+00
      endloop
   endfacet
   facet normal 2.4268632e-16 -8.3785037e-16 -1.0000000e+00
      outer loop
         vertex 1.1231685e+00 8.9982332e-01 2.0000010e+00
         vertex 1.6764010e+00 1.0000000e-06 2.0000010e+00
         vertex 1.0976629e+00 8.9243554e-01 2.0000010e+00
      endloop
   endfacet
   facet normal 1.1202213e-16 -9.2258525e-16 -1.0000000e+00
      outer loop
         vertex 1.0976629e+00 8.9243554e-01 2.0000010e+00
         vertex 1.6764010e+00 1.0000000e-06 2.0000010e+00
         vertex 1.0713026e+00 8.8923482e-01 2.0000010e+00
      endloop
   endfacet
   facet normal -3.5498738e-16 -1.2403720e-15 -1.0000000e+00
      outer loop
         vertex 1.0713026e+00 8.8923482e-01 2.0000010e+00
         vertex 1.6764010e+00 1.0000000e-06 2.0000010e+00
         vertex 4.2540100e-01 1.0000000e-06 2.0000010e+00
      endloop
   endfacet
   facet normal -5.8659166e-17 -1.4556122e-15 -1.0000000e+00
      outer loop
         vertex 1.0713026e+00 8.8923482e-01 2.0000010e+00
         vertex 4.2540100e-01 1.0000000e-06 2.0000010e+00
         vertex 1.0447701e+00 8.9030404e-01 2.0000010e+00
      endloop
   endfacet
   facet normal -1.5213745e-14 9.0875310e-15 -1.0000000e+00
      outer loop
         vertex 1.0447701e+00 8.9030404e-01 2.0000010e+00
         vertex 4.2540100e-01 1.0000000e-06 2.0000010e+00
         vertex 1.0187528e+00 8.9561551e-01 2.0000010e+00
      endloop
   endfacet
   facet normal -3.0057886e-16 -7.9256131e-16 -1.0000000e+00
      outer loop
         vertex 1.0187528e+00 8.9561551e-01 2.0000010e+00
         vertex 4.2540100e-01 1.0000000e-06 2.0000010e+00
         vertex 9.9392442e-01 9.0503168e-01 2.0000010e+00
      endloop
   endfacet
   facet normal -4.1579780e-16 -7.2018292e-16 -1.0000000e+00
      outer loop
         vertex 9.9392442e-01 9.0503168e-01 2.0000010e+00
         vertex 4.2540100e-01 1.0000000e-06 2.0000010e+00
         vertex 9.7092801e-01 9.1830866e-01 2.0000010e+00
      endloop
   endfacet
   facet normal -5.3176385e-16 -6.5129248e-16 -1.0000000e+00
      outer loop
         vertex 9.7092801e-01 9.1830866e-01 2.0000010e+00
         vertex 4.2540100e-01 1.0000000e-06 2.0000010e+00
         vertex 9.5035917e-01 9.3510260e-01 2.0000010e+00
      endloop
   endfacet
   facet normal 1.4781340e-14 -9.2479405e-15 -1.0000000e+00
      outer loop
         vertex 9.5035917e-01 9.3510260e-01 2.0000010e+00
         vertex 4.2540100e-01 1.0000000e-06 2.0000010e+00
         vertex 9.3275064e-01 9.5497853e-01 2.0000010e+00
      endloop
   endfacet
   facet normal -1.1989009e-15 -7.5813899e-16 -1.0000000e+00
      outer loop
         vertex 9.3275064e-01 9.5497853e-01 2.0000010e+00
         vertex 4.2540100e-01 1.0000000e-06 2.0000010e+00
         vertex 9.1855845e-01 9.7742168e-01 2.0000010e+00
      endloop
   endfacet
   facet normal -1.4646782e-15 -6.2404108e-16 -1.0000000e+00
      outer loop
         vertex 9.1855845e-01 9.7742168e-01 2.0000010e+00
         vertex 4.2540100e-01 1.0000000e-06 2.0000010e+00
         vertex 9.0815018e-01 1.0018508e+00 2.0000010e+00
      endloop
   endfacet
   facet normal -1.8258171e-15 -4.5002349e-16 -1.0000000e+00
      outer loop
         vertex 9.0815018e-01 1.0018508e+00 2.0000010e+00
         vertex 4.2540100e-01 1.0000000e-06 2.0000010e+00
         vertex 9.0179540e-01 1.0276331e+00 2.0000010e+00
      endloop
   endfacet
   facet normal 1.0000000e+00 -2.8918037e-31 -7.9443508e-16
      outer loop
         vertex 1.6764010e+00 2.4400010e+00 2.0000010e+00
         vertex 1.6764010e+00 2.4400010e+00 2.5590010e+00
         vertex 1.6764010e+00 1.0000000e-06 2.0000010e+00
      endloop
   endfacet
   facet normal 1.0000000e+00 -4.3377055e-31 -7.9443508e-16
      outer loop
         vertex 1.6764010e+00 1.0000000e-06 2.0000010e+00
         vertex 1.6764010e+00 2.4400010e+00 2.5590010e+00
         vertex 1.6764010e+00 1.0000000e-06 2.5590010e+00
      endloop
   endfacet
   facet normal 0.0000000e+00 5.4601132e-16 1.0000000e+00
      outer loop
         vertex 1.6764010e+00 2.4400010e+00 2.5590010e+00
         vertex 1.3844010e+00 2.4400010e+00 2.5590010e+00
         vertex 1.6764010e+00 1.0000000e-06 2.5590010e+00
      endloop
   endfacet
   facet normal 0.0000000e+00 5.4601132e-16 1.0000000e+00
      outer loop
         vertex 1.6764010e+00 1.0000000e-06 2.5590010e+00
         vertex 1.3844010e+00 2.4400010e+00 2.5590010e+00
         vertex 1.3844010e+00 1.0000000e-06 2.5590010e+00
      endloop
   endfacet
   facet normal 1.0000000e+00 9.1001887e-17 -3.2605669e-16
      outer loop
         vertex 1.3844010e+00 2.4400010e+00 2.5590010e+00
         vertex 1.3844010e+00 2.4400010e+00 3.2400010e+00
         vertex 1.3844010e+00 1.0000000e-06 2.5590010e+00
      endloop
   endfacet
   facet normal 1.0000000e+00 9.1001887e-17 -3.2605669e-16
      outer loop
         vertex 1.3844010e+00 1.0000000e-06 2.5590010e+00
         vertex 1.3844010e+00 2.4400010e+00 3.2400010e+00
         vertex 1.3844010e+00 1.0000000e-06 3.2400010e+00
      endloop
   endfacet
   facet normal -4.3902327e-16 3.5441623e-17 1.0000000e+00
      outer loop
         vertex 9.0179540e-01 1.0805689e+00 3.2400010e+00
         vertex 1.0000000e-06 2.4400010e+00 3.2400010e+00
         vertex 8.9965869e-01 1.0541010e+00 3.2400010e+00
      endloop
   endfacet
   facet normal 6.7124255e-17 3.6400755e-16 1.0000000e+00
      outer loop
         vertex 8.9965869e-01 1.0541010e+00 3.2400010e+00
         vertex 1.0000000e-06 2.4400010e+00 3.2400010e+00
         vertex 1.0000000e-06 1.0000000e-06 3.2400010e+00
      endloop
   endfacet
   facet normal 4.5096487e-16 3.6405648e-17 1.0000000e+00
      outer loop
         vertex 8.9965869e-01 1.0541010e+00 3.2400010e+00
         vertex 1.0000000e-06 1.0000000e-06 3.2400010e+00
         vertex 9.0179540e-01 1.0276331e+00 3.2400010e+00
      endloop
   endfacet
   facet normal 3.8446520e-16 9.4762162e-17 1.0000000e+00
      outer loop
         vertex 9.0179540e-01 1.0276331e+00 3.2400010e+00
         vertex 1.0000000e-06 1.0000000e-06 3.2400010e+00
         vertex 9.0815018e-01 1.0018508e+00 3.2400010e+00
      endloop
   endfacet
   facet normal 3.3265172e-16 1.4172965e-16 1.0000000e+00
      outer loop
         vertex 9.0815018e-01 1.0018508e+00 3.2400010e+00
         vertex 1.0000000e-06 1.0000000e-06 3.2400010e+00
         vertex 9.1855845e-01 9.7742168e-01 3.2400010e+00
      endloop
   endfacet
   facet normal 2.8900001e-16 1.8275253e-16 1.0000000e+00
      outer loop
         vertex 9.1855845e-01 9.7742168e-01 3.2400010e+00
         vertex 1.0000000e-06 1.0000000e-06 3.2400010e+00
         vertex 9.3275064e-01 9.5497853e-01 3.2400010e+00
      endloop
   endfacet
   facet normal 2.4965861e-16 2.2117823e-16 1.0000000e+00
      outer loop
         vertex 9.3275064e-01 9.5497853e-01 3.2400010e+00
         vertex 1.0000000e-06 1.0000000e-06 3.2400010e+00
         vertex 9.5035917e-01 9.3510260e-01 3.2400010e+00
      endloop
   endfacet
   facet normal 2.1191004e-16 2.5954268e-16 1.0000000e+00
      outer loop
         vertex 9.5035917e-01 9.3510260e-01 3.2400010e+00
         vertex 1.0000000e-06 1.0000000e-06 3.2400010e+00
         vertex 9.7092801e-01 9.1830866e-01 3.2400010e+00
      endloop
   endfacet
   facet normal -1.5512816e-31 4.8359524e-16 1.0000000e+00
      outer loop
         vertex 9.7092801e-01 9.1830866e-01 3.2400010e+00
         vertex 1.0000000e-06 1.0000000e-06 3.2400010e+00
         vertex 1.3844010e+00 1.0000000e-06 3.2400010e+00
      endloop
   endfacet
   facet normal 3.7727958e-16 6.5346741e-16 1.0000000e+00
      outer loop
         vertex 9.7092801e-01 9.1830866e-01 3.2400010e+00
         vertex 1.3844010e+00 1.0000000e-06 3.2400010e+00
         vertex 9.9392442e-01 9.0503168e-01 3.2400010e+00
      endloop
   endfacet
   facet normal 2.2250149e-16 5.8668821e-16 1.0000000e+00
      outer loop
         vertex 9.9392442e-01 9.0503168e-01 3.2400010e+00
         vertex 1.3844010e+00 1.0000000e-06 3.2400010e+00
         vertex 1.0187528e+00 8.9561551e-01 3.2400010e+00
      endloop
   endfacet
   facet normal 1.1043254e-16 5.4093437e-16 1.0000000e+00
      outer loop
         vertex 1.0187528e+00 8.9561551e-01 3.2400010e+00
         vertex 1.3844010e+00 1.0000000e-06 3.2400010e+00
         vertex 1.0447701e+00 8.9030404e-01 3.2400010e+00
      endloop
   endfacet
   facet normal 2.0415068e-17 5.0659470e-16 1.0000000e+00
      outer loop
         vertex 1.0447701e+00 8.9030404e-01 3.2400010e+00
         vertex 1.3844010e+00 1.0000000e-06 3.2400010e+00
         vertex 1.0713026e+00 8.8923482e-01 3.2400010e+00
      endloop
   endfacet
   facet normal -5.8152756e-17 4.7893104e-16 1.0000000e+00
      outer loop
         vertex 1.0713026e+00 8.8923482e-01 3.2400010e+00
         vertex 1.3844010e+00 1.0000000e-06 3.2400010e+00
         vertex 1.0976629e+00 8.9243554e-01 3.2400010e+00
      endloop
   endfacet
   facet normal -1.3186410e-16 4.5524768e-16 1.0000000e+00
      outer loop
         vertex 1.0976629e+00 8.9243554e-01 3.2400010e+00
         vertex 1.3844010e+00 1.0000000e-06 3.2400010e+00
         vertex 1.1231685e+00 8.9982332e-01 3.2400010e+00
      endloop
   endfacet
   facet normal -2.0582862e-16 4.3377462e-16 1.0000000e+00
      outer loop
         vertex 1.1231685e+00 8.9982332e-01 3.2400010e+00
         vertex 1.3844010e+00 1.0000000e-06 3.2400010e+00
         vertex 1.1471587e+00 9.1120681e-01 3.2400010e+00
      endloop
   endfacet
   facet normal -2.8515664e-16 4.1312071e-16 1.0000000e+00
      outer loop
         vertex 1.1471587e+00 9.1120681e-01 3.2400010e+00
         vertex 1.3844010e+00 1.0000000e-06 3.2400010e+00
         vertex 1.1690122e+00 9.2629118e-01 3.2400010e+00
      endloop
   endfacet
   facet normal -3.7642365e-16 3.9189853e-16 1.0000000e+00
      outer loop
         vertex 1.1690122e+00 9.2629118e-01 3.2400010e+00
         vertex 1.3844010e+00 1.0000000e-06 3.2400010e+00
         vertex 1.1881630e+00 9.4468576e-01 3.2400010e+00
      endloop
   endfacet
   facet normal -4.9009838e-16 3.6828504e-16 1.0000000e+00
      outer loop
         vertex 1.1881630e+00 9.4468576e-01 3.2400010e+00
         vertex 1.3844010e+00 1.0000000e-06 3.2400010e+00
         vertex 1.2041151e+00 9.6591414e-01 3.2400010e+00
      endloop
   endfacet
   facet normal -6.4619583e-16 3.3914973e-16 1.0000000e+00
      outer loop
         vertex 1.2041151e+00 9.6591414e-01 3.2400010e+00
         vertex 1.3844010e+00 1.0000000e-06 3.2400010e+00
         vertex 1.2164553e+00 9.8942651e-01 3.2400010e+00
      endloop
   endfacet
   facet normal -8.9127208e-16 2.9755034e-16 1.0000000e+00
      outer loop
         vertex 1.2164553e+00 9.8942651e-01 3.2400010e+00
         vertex 1.3844010e+00 1.0000000e-06 3.2400010e+00
         vertex 1.2248641e+00 1.0146139e+00 3.2400010e+00
      endloop
   endfacet
   facet normal -1.3688394e-15 2.2245805e-16 1.0000000e+00
      outer loop
         vertex 1.2248641e+00 1.0146139e+00 3.2400010e+00
         vertex 1.3844010e+00 1.0000000e-06 3.2400010e+00
         vertex 1.2291236e+00 1.0408240e+00 3.2400010e+00
      endloop
   endfacet
   facet normal -2.8599741e-15 0.0000000e+00 1.0000000e+00
      outer loop
         vertex 1.2291236e+00 1.0408240e+00 3.2400010e+00
         vertex 1.3844010e+00 1.0000000e-06 3.2400010e+00
         vertex 1.2291236e+00 1.0673780e+00 3.2400010e+00
      endloop
   endfacet
   facet normal -3.5778514e-16 3.6400755e-16 1.0000000e+00
      outer loop
         vertex 1.2291236e+00 1.0673780e+00 3.2400010e+00
         vertex 1.3844010e+00 1.0000000e-06 3.2400010e+00
         vertex 1.3844010e+00 2.4400010e+00 3.2400010e+00
      endloop
   endfacet
   facet normal 1.1737514e-15 1.9075317e-16 1.0000000e+00
      outer loop
         vertex 1.2291236e+00 1.0673780e+00 3.2400010e+00
         vertex 1.3844010e+00 2.4400010e+00 3.2400010e+00
         vertex 1.2248641e+00 1.0935881e+00 3.2400010e+00
      endloop
   endfacet
   facet normal 7.2916792e-16 2.4343202e-16 1.0000000e+00
      outer loop
         vertex 1.2248641e+00 1.0935881e+00 3.2400010e+00
         vertex 1.3844010e+00 2.4400010e+00 3.2400010e+00
         vertex 1.2164553e+00 1.1187755e+00 3.2400010e+00
      endloop
   endfacet
   facet normal 5.1555651e-16 2.7058493e-16 1.0000000e+00
      outer loop
         vertex 1.2164553e+00 1.1187755e+00 3.2400010e+00
         vertex 1.3844010e+00 2.4400010e+00 3.2400010e+00
         vertex 1.2041151e+00 1.1422879e+00 3.2400010e+00
      endloop
   endfacet
   facet normal 3.8434171e-16 2.8881406e-16 1.0000000e+00
      outer loop
         vertex 1.2041151e+00 1.1422879e+00 3.2400010e+00
         vertex 1.3844010e+00 2.4400010e+00 3.2400010e+00
         vertex 1.1881630e+00 1.1635162e+00 3.2400010e+00
      endloop
   endfacet
   facet normal 2.9116796e-16 3.0313796e-16 1.0000000e+00
      outer loop
         vertex 1.1881630e+00 1.1635162e+00 3.2400010e+00
         vertex 1.3844010e+00 2.4400010e+00 3.2400010e+00
         vertex 1.1690122e+00 1.1819108e+00 3.2400010e+00
      endloop
   endfacet
   facet normal 2.1789938e-16 3.1568176e-16 1.0000000e+00
      outer loop
         vertex 1.1690122e+00 1.1819108e+00 3.2400010e+00
         vertex 1.3844010e+00 2.4400010e+00 3.2400010e+00
         vertex 1.1471587e+00 1.1969952e+00 3.2400010e+00
      endloop
   endfacet
   facet normal 1.5544870e-16 3.2760120e-16 1.0000000e+00
      outer loop
         vertex 1.1471587e+00 1.1969952e+00 3.2400010e+00
         vertex 1.3844010e+00 2.4400010e+00 3.2400010e+00
         vertex 1.1231685e+00 1.2083787e+00 3.2400010e+00
      endloop
   endfacet
   facet normal 9.8395982e-17 3.3970234e-16 1.0000000e+00
      outer loop
         vertex 1.1231685e+00 1.2083787e+00 3.2400010e+00
         vertex 1.3844010e+00 2.4400010e+00 3.2400010e+00
         vertex 1.0976629e+00 1.2157665e+00 3.2400010e+00
      endloop
   endfacet
   facet normal 4.2827653e-17 3.5271745e-16 1.0000000e+00
      outer loop
         vertex 1.0976629e+00 1.2157665e+00 3.2400010e+00
         vertex 1.3844010e+00 2.4400010e+00 3.2400010e+00
         vertex 1.0713026e+00 1.2189672e+00 3.2400010e+00
      endloop
   endfacet
   facet normal -1.4809617e-17 3.6749685e-16 1.0000000e+00
      outer loop
         vertex 1.0713026e+00 1.2189672e+00 3.2400010e+00
         vertex 1.3844010e+00 2.4400010e+00 3.2400010e+00
         vertex 1.0447701e+00 1.2178980e+00 3.2400010e+00
      endloop
   endfacet
   facet normal -7.8646829e-17 3.8523765e-16 1.0000000e+00
      outer loop
         vertex 1.0447701e+00 1.2178980e+00 3.2400010e+00
         vertex 1.3844010e+00 2.4400010e+00 3.2400010e+00
         vertex 1.0187528e+00 1.2125865e+00 3.2400010e+00
      endloop
   endfacet
   facet normal -1.5469299e-16 4.0789189e-16 1.0000000e+00
      outer loop
         vertex 1.0187528e+00 1.2125865e+00 3.2400010e+00
         vertex 1.3844010e+00 2.4400010e+00 3.2400010e+00
         vertex 9.9392442e-01 1.2031703e+00 3.2400010e+00
      endloop
   endfacet
   facet normal -2.5350784e-16 4.3908847e-16 1.0000000e+00
      outer loop
         vertex 9.9392442e-01 1.2031703e+00 3.2400010e+00
         vertex 1.3844010e+00 2.4400010e+00 3.2400010e+00
         vertex 9.7092801e-01 1.1898933e+00 3.2400010e+00
      endloop
   endfacet
   facet normal 0.0000000e+00 3.5524077e-16 1.0000000e+00
      outer loop
         vertex 9.7092801e-01 1.1898933e+00 3.2400010e+00
         vertex 1.3844010e+00 2.4400010e+00 3.2400010e+00
         vertex 1.0000000e-06 2.4400010e+00 3.2400010e+00
      endloop
   endfacet
   facet normal -1.7749149e-16 2.1738762e-16 1.0000000e+00
      outer loop
         vertex 9.7092801e-01 1.1898933e+00 3.2400010e+00
         vertex 1.0000000e-06 2.4400010e+00 3.2400010e+00
         vertex 9.5035917e-01 1.1730994e+00 3.2400010e+00
      endloop
   endfacet
   facet normal -2.1425276e-16 1.8981138e-16 1.0000000e+00
      outer loop
         vertex 9.5035917e-01 1.1730994e+00 3.2400010e+00
         vertex 1.0000000e-06 2.4400010e+00 3.2400010e+00
         vertex 9.3275064e-01 1.1532235e+00 3.2400010e+00
      endloop
   endfacet
   facet normal -2.5427986e-16 1.6079684e-16 1.0000000e+00
      outer loop
         vertex 9.3275064e-01 1.1532235e+00 3.2400010e+00
         vertex 1.0000000e-06 2.4400010e+00 3.2400010e+00
         vertex 9.1855845e-01 1.1307803e+00 3.2400010e+00
      endloop
   endfacet
   facet normal -3.0079922e-16 1.2815857e-16 1.0000000e+00
      outer loop
         vertex 9.1855845e-01 1.1307803e+00 3.2400010e+00
         vertex 1.0000000e-06 2.4400010e+00 3.2400010e+00
         vertex 9.0815018e-01 1.1063512e+00 3.2400010e+00
      endloop
   endfacet
   facet normal -3.5904440e-16 8.8496496e-17 1.0000000e+00
      outer loop
         vertex 9.0815018e-01 1.1063512e+00 3.2400010e+00
         vertex 1.0000000e-06 2.4400010e+00 3.2400010e+00
         vertex 9.0179540e-01 1.0805689e+00 3.2400010e+00
      endloop
   endfacet
   facet normal -1.0000000e+00 -9.1001887e-17 1.5419764e-16
      outer loop
         vertex 1.0000000e-06 2.4400010e+00 3.2400010e+00
         vertex 1.0000000e-06 2.4400010e+00 1.0000000e-06
         vertex 1.0000000e-06 1.0000000e-06 3.2400010e+00
      endloop
   endfacet
   facet normal -1.0000000e+00 -9.1001887e-17 1.5419764e-16
      outer loop
         vertex 1.0000000e-06 1.0000000e-06 3.2400010e+00
         vertex 1.0000000e-06 2.4400010e+00 1.0000000e-06
         vertex 1.0000000e-06 1.0000000e-06 1.0000000e-06
      endloop
   endfacet
   facet normal 0.0000000e+00 -3.6400755e-16 -1.0000000e+00
      outer loop
         vertex 1.0000000e-06 2.4400010e+00 1.0000000e-06
         vertex 4.2540100e-01 2.4400010e+00 1.0000000e-06
         vertex 1.0000000e-06 1.0000000e-06 1.0000000e-06
      endloop
   endfacet
   facet normal 0.0000000e+00 -3.6400755e-16 -1.0000000e+00
      outer loop
         vertex 1.0000000e-06 1.0000000e-06 1.0000000e-06
         vertex 4.2540100e-01 2.4400010e+00 1.0000000e-06
         vertex 4.2540100e-01 1.0000000e-06 1.0000000e-06
      endloop
   endfacet
   facet normal 1.0000000e+00 9.1001887e-17 -5.5511151e-17
      outer loop
         vertex 4.2540100e-01 2.4400010e+00 1.0000000e-06
         vertex 4.2540100e-01 2.4400010e+00 2.0000010e+00
         vertex 4.2540100e-01 1.0000000e-06 1.0000000e-06
      endloop
   endfacet
   facet normal 1.0000000e+00 9.1001887e-17 -5.5511151e-17
      outer loop
         vertex 4.2540100e-01 1.0000000e-06 1.0000000e-06
         vertex 4.2540100e-01 2.4400010e+00 2.0000010e+00
         vertex 4.2540100e-01 1.0000000e-06 2.0000010e+00
      endloop
   endfacet
   facet normal 0.0000000e+00 1.0000000e+00 -2.2204460e-16
      outer loop
         vertex 4.2540100e-01 2.4400010e+00 1.0000000e-06
         vertex 1.0000000e-06 2.4400010e+00 1.0000000e-06
         vertex 4.2540100e-01 2.4400010e+00 2.0000010e+00
      endloop
   endfacet
   facet normal 2.4487323e-16 1.0000000e+00 -2.7412914e-16
      outer loop
         vertex 4.2540100e-01 2.4400010e+00 2.0000010e+00
         vertex 1.0000000e-06 2.4400010e+00 1.0000000e-06
         vertex 1.0000000e-06 2.4400010e+00 3.2400010e+00
      endloop
   endfacet
   facet normal 0.0000000e+00 1.0000000e+00 -3.5813646e-16
      outer loop
         vertex 4.2540100e-01 2.4400010e+00 2.0000010e+00
         vertex 1.0000000e-06 2.4400010e+00 3.2400010e+00
         vertex 1.3844010e+00 2.4400010e+00 3.2400010e+00
      endloop
   endfacet
   facet normal -4.6307530e-16 1.0000000e+00 1.5098880e-31
      outer loop
         vertex 1.3844010e+00 2.4400010e+00 3.2400010e+00
         vertex 1.3844010e+00 2.4400010e+00 2.5590010e+00
         vertex 4.2540100e-01 2.4400010e+00 2.0000010e+00
      endloop
   endfacet
   facet normal -3.5498738e-16 1.0000000e+00 -1.8543169e-16
      outer loop
         vertex 4.2540100e-01 2.4400010e+00 2.0000010e+00
         vertex 1.3844010e+00 2.4400010e+00 2.5590010e+00
         vertex 1.6764010e+00 2.4400010e+00 2.0000010e+00
      endloop
   endfacet
   facet normal 0.0000000e+00 1.0000000e+00 -0.0000000e+00
      outer loop
         vertex 1.6764010e+00 2.4400010e+00 2.0000010e+00
         vertex 1.3844010e+00 2.4400010e+00 2.5590010e+00
         vertex 1.6764010e+00 2.4400010e+00 2.5590010e+00
      endloop
   endfacet
   facet normal 0.0000000e+00 -1.0000000e+00 2.2204460e-16
      outer loop
         vertex 4.2540100e-01 1.0000000e-06 1.0000000e-06
         vertex 4.2540100e-01 1.0000000e-06 2.0000010e+00
         vertex 1.0000000e-06 1.0000000e-06 1.0000000e-06
      endloop
   endfacet
   facet normal -2.4487323e-16 -1.0000000e+00 2.7412914e-16
      outer loop
         vertex 1.0000000e-06 1.0000000e-06 1.0000000e-06
         vertex 4.2540100e-01 1.0000000e-06 2.0000010e+00
         vertex 1.0000000e-06 1.0000000e-06 3.2400010e+00
      endloop
   endfacet
   facet normal 3.2078100e-16 -1.0000000e+00 4.6818504e-16
      outer loop
         vertex 1.0000000e-06 1.0000000e-06 3.2400010e+00
         vertex 4.2540100e-01 1.0000000e-06 2.0000010e+00
         vertex 1.3844010e+00 1.0000000e-06 3.2400010e+00
      endloop
   endfacet
   facet normal 8.2959157e-17 -1.0000000e+00 6.5211338e-16
      outer loop
         vertex 1.3844010e+00 1.0000000e-06 3.2400010e+00
         vertex 4.2540100e-01 1.0000000e-06 2.0000010e+00
         vertex 1.3844010e+00 1.0000000e-06 2.5590010e+00
      endloop
   endfacet
   facet normal 3.5498738e-16 -1.0000000e+00 1.8543169e-16
      outer loop
         vertex 1.3844010e+00 1.0000000e-06 2.5590010e+00
         vertex 4.2540100e-01 1.0000000e-06 2.0000010e+00
         vertex 1.6764010e+00 1.0000000e-06 2.0000010e+00
      endloop
   endfacet
   facet normal 0.0000000e+00 -1.0000000e+00 0.0000000e+00
      outer loop
         vertex 1.3844010e+00 1.0000000e-06 2.5590010e+00
         vertex 1.6764010e+00 1.0000000e-06 2.0000010e+00
         vertex 1.6764010e+00 1.0000000e-06 2.5590010e+00
      endloop
   endfacet
endsolid AutoCAD
