solid AutoCAD
   facet normal -5.5722471e-33 -4.5500944e-17 -1.0000000e+00
      outer loop
         vertex 6.2274231e-01 1.0000000e-06 8.4940000e-01
         vertex 3.3074231e-01 1.0000000e-06 8.4940000e-01
         vertex 6.2274231e-01 2.4400010e+00 8.4940000e-01
      endloop
   endfacet
   facet normal 0.0000000e+00 -4.5500944e-17 -1.0000000e+00
      outer loop
         vertex 6.2274231e-01 2.4400010e+00 8.4940000e-01
         vertex 3.3074231e-01 1.0000000e-06 8.4940000e-01
         vertex 3.3074231e-01 2.4400010e+00 8.4940000e-01
      endloop
   endfacet
   facet normal -1.0000000e+00 0.0000000e+00 0.0000000e+00
      outer loop
         vertex 6.2274231e-01 1.0000000e-06 2.7940000e-01
         vertex 6.2274231e-01 1.0000000e-06 8.4940000e-01
         vertex 6.2274231e-01 2.4400010e+00 2.7940000e-01
      endloop
   endfacet
   facet normal -1.0000000e+00 0.0000000e+00 0.0000000e+00
      outer loop
         vertex 6.2274231e-01 2.4400010e+00 2.7940000e-01
         vertex 6.2274231e-01 1.0000000e-06 8.4940000e-01
         vertex 6.2274231e-01 2.4400010e+00 8.4940000e-01
      endloop
   endfacet
   facet normal 2.1854784e-16 -6.8251415e-17 -1.0000000e+00
      outer loop
         vertex 2.1467423e+00 1.0000000e-06 2.7940000e-01
         vertex 6.2274231e-01 1.0000000e-06 2.7940000e-01
         vertex 2.1467423e+00 2.4400010e+00 2.7940000e-01
      endloop
   endfacet
   facet normal 2.1854784e-16 -6.8251415e-17 -1.0000000e+00
      outer loop
         vertex 2.1467423e+00 2.4400010e+00 2.7940000e-01
         vertex 6.2274231e-01 1.0000000e-06 2.7940000e-01
         vertex 6.2274231e-01 2.4400010e+00 2.7940000e-01
      endloop
   endfacet
   facet normal 1.0000000e+00 -1.8200377e-16 1.1144507e-32
      outer loop
         vertex 2.1467423e+00 1.0000000e-06 1.5194000e+00
         vertex 2.1467423e+00 1.0000000e-06 2.7940000e-01
         vertex 2.1467423e+00 2.4400010e+00 1.5194000e+00
      endloop
   endfacet
   facet normal 1.0000000e+00 -1.8200377e-16 0.0000000e+00
      outer loop
         vertex 2.1467423e+00 2.4400010e+00 1.5194000e+00
         vertex 2.1467423e+00 1.0000000e-06 2.7940000e-01
         vertex 2.1467423e+00 2.4400010e+00 2.7940000e-01
      endloop
   endfacet
   facet normal -1.2227126e-16 9.1001887e-17 1.0000000e+00
      outer loop
         vertex 3.3074231e-01 1.0000000e-06 1.5194000e+00
         vertex 2.1467423e+00 1.0000000e-06 1.5194000e+00
         vertex 3.3074231e-01 2.4400010e+00 1.5194000e+00
      endloop
   endfacet
   facet normal -1.2227126e-16 9.1001887e-17 1.0000000e+00
      outer loop
         vertex 3.3074231e-01 2.4400010e+00 1.5194000e+00
         vertex 2.1467423e+00 1.0000000e-06 1.5194000e+00
         vertex 2.1467423e+00 2.4400010e+00 1.5194000e+00
      endloop
   endfacet
   facet normal -1.0000000e+00 0.0000000e+00 0.0000000e+00
      outer loop
         vertex 3.3074231e-01 1.0000000e-06 8.4940000e-01
         vertex 3.3074231e-01 1.0000000e-06 1.5194000e+00
         vertex 3.3074231e-01 2.4400010e+00 8.4940000e-01
      endloop
   endfacet
   facet normal -1.0000000e+00 0.0000000e+00 0.0000000e+00
      outer loop
         vertex 3.3074231e-01 2.4400010e+00 8.4940000e-01
         vertex 3.3074231e-01 1.0000000e-06 1.5194000e+00
         vertex 3.3074231e-01 2.4400010e+00 1.5194000e+00
      endloop
   endfacet
   facet normal -0.0000000e+00 1.0000000e+00 0.0000000e+00
      outer loop
         vertex 3.3074231e-01 2.4400010e+00 8.4940000e-01
         vertex 3.3074231e-01 2.4400010e+00 1.5194000e+00
         vertex 6.2274231e-01 2.4400010e+00 8.4940000e-01
      endloop
   endfacet
   facet normal 2.4454252e-16 1.0000000e+00 1.0657674e-16
      outer loop
         vertex 6.2274231e-01 2.4400010e+00 8.4940000e-01
         vertex 3.3074231e-01 2.4400010e+00 1.5194000e+00
         vertex 2.1467423e+00 2.4400010e+00 1.5194000e+00
      endloop
   endfacet
   facet normal 2.9139712e-16 1.0000000e+00 0.0000000e+00
      outer loop
         vertex 6.2274231e-01 2.4400010e+00 8.4940000e-01
         vertex 2.1467423e+00 2.4400010e+00 1.5194000e+00
         vertex 2.1467423e+00 2.4400010e+00 2.7940000e-01
      endloop
   endfacet
   facet normal 1.7027147e-31 1.0000000e+00 -7.7910388e-16
      outer loop
         vertex 2.1467423e+00 2.4400010e+00 2.7940000e-01
         vertex 6.2274231e-01 2.4400010e+00 2.7940000e-01
         vertex 6.2274231e-01 2.4400010e+00 8.4940000e-01
      endloop
   endfacet
   facet normal -1.2246443e-16 -1.0000000e+00 6.1232265e-17
      outer loop
         vertex 3.3074231e-01 1.0000000e-06 8.4940000e-01
         vertex 6.2274231e-01 1.0000000e-06 8.4940000e-01
         vertex 3.3074231e-01 1.0000000e-06 1.5194000e+00
      endloop
   endfacet
   facet normal -1.2246471e-16 -1.0000000e+00 6.1232143e-17
      outer loop
         vertex 3.3074231e-01 1.0000000e-06 1.5194000e+00
         vertex 6.2274231e-01 1.0000000e-06 8.4940000e-01
         vertex 2.1467423e+00 1.0000000e-06 1.5194000e+00
      endloop
   endfacet
   facet normal -1.2246477e-16 -1.0000000e+00 6.1232285e-17
      outer loop
         vertex 2.1467423e+00 1.0000000e-06 1.5194000e+00
         vertex 6.2274231e-01 1.0000000e-06 8.4940000e-01
         vertex 2.1467423e+00 1.0000000e-06 2.7940000e-01
      endloop
   endfacet
   facet normal -1.2246476e-16 -1.0000000e+00 6.1232309e-17
      outer loop
         vertex 2.1467423e+00 1.0000000e-06 2.7940000e-01
         vertex 6.2274231e-01 1.0000000e-06 8.4940000e-01
         vertex 6.2274231e-01 1.0000000e-06 2.7940000e-01
      endloop
   endfacet
endsolid AutoCAD
