solid AutoCAD
   facet normal 0.0000000e+00 -0.0000000e+00 -1.0000000e+00
      outer loop
         vertex 4.5325869e-01 2.0932331e-01 2.7120001e+01
         vertex 6.7772084e-01 8.9012758e-02 2.7120001e+01
         vertex 4.5325869e-01 1.0000000e-06 2.7120001e+01
      endloop
   endfacet
   facet normal 0.0000000e+00 0.0000000e+00 -1.0000000e+00
      outer loop
         vertex 4.5325869e-01 1.0000000e-06 2.7120001e+01
         vertex 6.7772084e-01 8.9012758e-02 2.7120001e+01
         vertex 9.2432866e-01 2.5432353e-02 2.7120001e+01
      endloop
   endfacet
   facet normal 0.0000000e+00 0.0000000e+00 -1.0000000e+00
      outer loop
         vertex 4.5325869e-01 1.0000000e-06 2.7120001e+01
         vertex 9.2432866e-01 2.5432353e-02 2.7120001e+01
         vertex 1.1789805e+00 2.2217778e-02 2.7120001e+01
      endloop
   endfacet
   facet normal 0.0000000e+00 0.0000000e+00 -1.0000000e+00
      outer loop
         vertex 4.5325869e-01 1.0000000e-06 2.7120001e+01
         vertex 1.1789805e+00 2.2217778e-02 2.7120001e+01
         vertex 2.1296587e+00 1.0000000e-06 2.7120001e+01
      endloop
   endfacet
   facet normal 0.0000000e+00 0.0000000e+00 -1.0000000e+00
      outer loop
         vertex 2.1296587e+00 1.0000000e-06 2.7120001e+01
         vertex 1.1789805e+00 2.2217778e-02 2.7120001e+01
         vertex 1.4271147e+00 7.9552853e-02 2.7120001e+01
      endloop
   endfacet
   facet normal 0.0000000e+00 0.0000000e+00 -1.0000000e+00
      outer loop
         vertex 2.1296587e+00 1.0000000e-06 2.7120001e+01
         vertex 1.4271147e+00 7.9552853e-02 2.7120001e+01
         vertex 1.6545423e+00 1.9415901e-01 2.7120001e+01
      endloop
   endfacet
   facet normal 0.0000000e+00 0.0000000e+00 -1.0000000e+00
      outer loop
         vertex 1.6545423e+00 1.9415901e-01 2.7120001e+01
         vertex 1.8482584e+00 3.5948278e-01 2.7120001e+01
         vertex 2.1296587e+00 1.0000000e-06 2.7120001e+01
      endloop
   endfacet
   facet normal 0.0000000e+00 0.0000000e+00 -1.0000000e+00
      outer loop
         vertex 2.1296587e+00 1.0000000e-06 2.7120001e+01
         vertex 1.8482584e+00 3.5948278e-01 2.7120001e+01
         vertex 1.9971859e+00 5.6607052e-01 2.7120001e+01
      endloop
   endfacet
   facet normal 0.0000000e+00 0.0000000e+00 -1.0000000e+00
      outer loop
         vertex 2.1296587e+00 1.0000000e-06 2.7120001e+01
         vertex 1.9971859e+00 5.6607052e-01 2.7120001e+01
         vertex 2.0928086e+00 8.0210902e-01 2.7120001e+01
      endloop
   endfacet
   facet normal 0.0000000e+00 0.0000000e+00 -1.0000000e+00
      outer loop
         vertex 2.0928086e+00 8.0210902e-01 2.7120001e+01
         vertex 2.1296587e+00 1.0541010e+00 2.7120001e+01
         vertex 2.1296587e+00 1.0000000e-06 2.7120001e+01
      endloop
   endfacet
   facet normal 0.0000000e+00 0.0000000e+00 -1.0000000e+00
      outer loop
         vertex 2.1296587e+00 1.1081010e+00 2.7120001e+01
         vertex 2.0928086e+00 1.3600930e+00 2.7120001e+01
         vertex 2.1296587e+00 2.4400010e+00 2.7120001e+01
      endloop
   endfacet
   facet normal -0.0000000e+00 0.0000000e+00 -1.0000000e+00
      outer loop
         vertex 2.1296587e+00 2.4400010e+00 2.7120001e+01
         vertex 2.0928086e+00 1.3600930e+00 2.7120001e+01
         vertex 1.9971859e+00 1.5961315e+00 2.7120001e+01
      endloop
   endfacet
   facet normal -0.0000000e+00 0.0000000e+00 -1.0000000e+00
      outer loop
         vertex 2.1296587e+00 2.4400010e+00 2.7120001e+01
         vertex 1.9971859e+00 1.5961315e+00 2.7120001e+01
         vertex 1.8482584e+00 1.8027192e+00 2.7120001e+01
      endloop
   endfacet
   facet normal 0.0000000e+00 0.0000000e+00 -1.0000000e+00
      outer loop
         vertex 1.8482584e+00 1.8027192e+00 2.7120001e+01
         vertex 1.6545423e+00 1.9680430e+00 2.7120001e+01
         vertex 2.1296587e+00 2.4400010e+00 2.7120001e+01
      endloop
   endfacet
   facet normal -0.0000000e+00 0.0000000e+00 -1.0000000e+00
      outer loop
         vertex 2.1296587e+00 2.4400010e+00 2.7120001e+01
         vertex 1.6545423e+00 1.9680430e+00 2.7120001e+01
         vertex 1.4271147e+00 2.0826491e+00 2.7120001e+01
      endloop
   endfacet
   facet normal -0.0000000e+00 0.0000000e+00 -1.0000000e+00
      outer loop
         vertex 2.1296587e+00 2.4400010e+00 2.7120001e+01
         vertex 1.4271147e+00 2.0826491e+00 2.7120001e+01
         vertex 1.1789805e+00 2.1399842e+00 2.7120001e+01
      endloop
   endfacet
   facet normal -0.0000000e+00 0.0000000e+00 -1.0000000e+00
      outer loop
         vertex 2.1296587e+00 2.4400010e+00 2.7120001e+01
         vertex 1.1789805e+00 2.1399842e+00 2.7120001e+01
         vertex 4.5325869e-01 2.4400010e+00 2.7120001e+01
      endloop
   endfacet
   facet normal 0.0000000e+00 -0.0000000e+00 -1.0000000e+00
      outer loop
         vertex 4.5325869e-01 2.4400010e+00 2.7120001e+01
         vertex 1.1789805e+00 2.1399842e+00 2.7120001e+01
         vertex 9.2432866e-01 2.1367696e+00 2.7120001e+01
      endloop
   endfacet
   facet normal 0.0000000e+00 -0.0000000e+00 -1.0000000e+00
      outer loop
         vertex 4.5325869e-01 2.4400010e+00 2.7120001e+01
         vertex 9.2432866e-01 2.1367696e+00 2.7120001e+01
         vertex 6.7772084e-01 2.0731892e+00 2.7120001e+01
      endloop
   endfacet
   facet normal -0.0000000e+00 0.0000000e+00 -1.0000000e+00
      outer loop
         vertex 6.7772084e-01 2.0731892e+00 2.7120001e+01
         vertex 4.5325869e-01 1.9528787e+00 2.7120001e+01
         vertex 4.5325869e-01 2.4400010e+00 2.7120001e+01
      endloop
   endfacet
   facet normal -9.9144486e-01 -1.3052619e-01 -1.7753628e-16
      outer loop
         vertex 1.2243788e+00 1.0968061e+00 2.8360001e+01
         vertex 1.2243788e+00 1.0968061e+00 2.7120001e+01
         vertex 1.2300010e+00 1.0541010e+00 2.8360001e+01
      endloop
   endfacet
   facet normal -9.9144486e-01 -1.3052619e-01 0.0000000e+00
      outer loop
         vertex 1.2300010e+00 1.0541010e+00 2.8360001e+01
         vertex 1.2243788e+00 1.0968061e+00 2.7120001e+01
         vertex 1.2300010e+00 1.0541010e+00 2.7120001e+01
      endloop
   endfacet
   facet normal -9.9144486e-01 1.3052619e-01 0.0000000e+00
      outer loop
         vertex 1.2300010e+00 1.0541010e+00 2.8360001e+01
         vertex 1.2300010e+00 1.0541010e+00 2.7120001e+01
         vertex 1.2243788e+00 1.0113959e+00 2.8360001e+01
      endloop
   endfacet
   facet normal -9.9144486e-01 1.3052619e-01 1.7761721e-16
      outer loop
         vertex 1.2243788e+00 1.0113959e+00 2.8360001e+01
         vertex 1.2300010e+00 1.0541010e+00 2.7120001e+01
         vertex 1.2243788e+00 1.0113959e+00 2.7120001e+01
      endloop
   endfacet
   facet normal -9.2387953e-01 3.8268343e-01 1.6543747e-16
      outer loop
         vertex 1.2243788e+00 1.0113959e+00 2.8360001e+01
         vertex 1.2243788e+00 1.0113959e+00 2.7120001e+01
         vertex 1.2078952e+00 9.7160100e-01 2.8360001e+01
      endloop
   endfacet
   facet normal -9.2387953e-01 3.8268343e-01 0.0000000e+00
      outer loop
         vertex 1.2078952e+00 9.7160100e-01 2.8360001e+01
         vertex 1.2243788e+00 1.0113959e+00 2.7120001e+01
         vertex 1.2078952e+00 9.7160100e-01 2.7120001e+01
      endloop
   endfacet
   facet normal -7.9335334e-01 6.0876143e-01 0.0000000e+00
      outer loop
         vertex 1.2078952e+00 9.7160100e-01 2.8360001e+01
         vertex 1.2078952e+00 9.7160100e-01 2.7120001e+01
         vertex 1.1816736e+00 9.3742838e-01 2.8360001e+01
      endloop
   endfacet
   facet normal -7.9335334e-01 6.0876143e-01 0.0000000e+00
      outer loop
         vertex 1.1816736e+00 9.3742838e-01 2.8360001e+01
         vertex 1.2078952e+00 9.7160100e-01 2.7120001e+01
         vertex 1.1816736e+00 9.3742838e-01 2.7120001e+01
      endloop
   endfacet
   facet normal -6.0876143e-01 7.9335334e-01 0.0000000e+00
      outer loop
         vertex 1.1816736e+00 9.3742838e-01 2.8360001e+01
         vertex 1.1816736e+00 9.3742838e-01 2.7120001e+01
         vertex 1.1475010e+00 9.1120681e-01 2.8360001e+01
      endloop
   endfacet
   facet normal -6.0876143e-01 7.9335334e-01 1.0758528e-16
      outer loop
         vertex 1.1475010e+00 9.1120681e-01 2.8360001e+01
         vertex 1.1816736e+00 9.3742838e-01 2.7120001e+01
         vertex 1.1475010e+00 9.1120681e-01 2.7120001e+01
      endloop
   endfacet
   facet normal -3.8268343e-01 9.2387953e-01 6.8526445e-17
      outer loop
         vertex 1.1475010e+00 9.1120681e-01 2.8360001e+01
         vertex 1.1475010e+00 9.1120681e-01 2.7120001e+01
         vertex 1.1077061e+00 8.9472324e-01 2.8360001e+01
      endloop
   endfacet
   facet normal -3.8268343e-01 9.2387953e-01 0.0000000e+00
      outer loop
         vertex 1.1077061e+00 8.9472324e-01 2.8360001e+01
         vertex 1.1475010e+00 9.1120681e-01 2.7120001e+01
         vertex 1.1077061e+00 8.9472324e-01 2.7120001e+01
      endloop
   endfacet
   facet normal -1.3052619e-01 9.9144486e-01 0.0000000e+00
      outer loop
         vertex 1.1077061e+00 8.9472324e-01 2.8360001e+01
         vertex 1.1077061e+00 8.9472324e-01 2.7120001e+01
         vertex 1.0650010e+00 8.8910100e-01 2.8360001e+01
      endloop
   endfacet
   facet normal -1.3052619e-01 9.9144486e-01 0.0000000e+00
      outer loop
         vertex 1.0650010e+00 8.8910100e-01 2.8360001e+01
         vertex 1.1077061e+00 8.9472324e-01 2.7120001e+01
         vertex 1.0650010e+00 8.8910100e-01 2.7120001e+01
      endloop
   endfacet
   facet normal 1.3052619e-01 9.9144486e-01 0.0000000e+00
      outer loop
         vertex 1.0650010e+00 8.8910100e-01 2.8360001e+01
         vertex 1.0650010e+00 8.8910100e-01 2.7120001e+01
         vertex 1.0222959e+00 8.9472324e-01 2.8360001e+01
      endloop
   endfacet
   facet normal 1.3052619e-01 9.9144486e-01 8.8808603e-17
      outer loop
         vertex 1.0222959e+00 8.9472324e-01 2.8360001e+01
         vertex 1.0650010e+00 8.8910100e-01 2.7120001e+01
         vertex 1.0222959e+00 8.9472324e-01 2.7120001e+01
      endloop
   endfacet
   facet normal 3.8268343e-01 9.2387953e-01 8.2718736e-17
      outer loop
         vertex 1.0222959e+00 8.9472324e-01 2.8360001e+01
         vertex 1.0222959e+00 8.9472324e-01 2.7120001e+01
         vertex 9.8250100e-01 9.1120681e-01 2.8360001e+01
      endloop
   endfacet
   facet normal 3.8268343e-01 9.2387953e-01 -3.4508486e-17
      outer loop
         vertex 9.8250100e-01 9.1120681e-01 2.8360001e+01
         vertex 1.0222959e+00 8.9472324e-01 2.7120001e+01
         vertex 9.8250100e-01 9.1120681e-01 2.7120001e+01
      endloop
   endfacet
   facet normal 6.0876143e-01 7.9335334e-01 -5.4504916e-17
      outer loop
         vertex 9.8250100e-01 9.1120681e-01 2.8360001e+01
         vertex 9.8250100e-01 9.1120681e-01 2.7120001e+01
         vertex 9.4832838e-01 9.3742838e-01 2.8360001e+01
      endloop
   endfacet
   facet normal 6.0876143e-01 7.9335334e-01 0.0000000e+00
      outer loop
         vertex 9.4832838e-01 9.3742838e-01 2.8360001e+01
         vertex 9.8250100e-01 9.1120681e-01 2.7120001e+01
         vertex 9.4832838e-01 9.3742838e-01 2.7120001e+01
      endloop
   endfacet
   facet normal 7.9335334e-01 6.0876143e-01 0.0000000e+00
      outer loop
         vertex 9.4832838e-01 9.3742838e-01 2.8360001e+01
         vertex 9.4832838e-01 9.3742838e-01 2.7120001e+01
         vertex 9.2210681e-01 9.7160100e-01 2.8360001e+01
      endloop
   endfacet
   facet normal 7.9335334e-01 6.0876143e-01 0.0000000e+00
      outer loop
         vertex 9.2210681e-01 9.7160100e-01 2.8360001e+01
         vertex 9.4832838e-01 9.3742838e-01 2.7120001e+01
         vertex 9.2210681e-01 9.7160100e-01 2.7120001e+01
      endloop
   endfacet
   facet normal 9.2387953e-01 3.8268343e-01 0.0000000e+00
      outer loop
         vertex 9.2210681e-01 9.7160100e-01 2.8360001e+01
         vertex 9.2210681e-01 9.7160100e-01 2.7120001e+01
         vertex 9.0562324e-01 1.0113959e+00 2.8360001e+01
      endloop
   endfacet
   facet normal 9.2387953e-01 3.8268343e-01 6.9016971e-17
      outer loop
         vertex 9.0562324e-01 1.0113959e+00 2.8360001e+01
         vertex 9.2210681e-01 9.7160100e-01 2.7120001e+01
         vertex 9.0562324e-01 1.0113959e+00 2.7120001e+01
      endloop
   endfacet
   facet normal 9.9144486e-01 1.3052619e-01 2.3373094e-17
      outer loop
         vertex 9.0562324e-01 1.0113959e+00 2.8360001e+01
         vertex 9.0562324e-01 1.0113959e+00 2.7120001e+01
         vertex 9.0000100e-01 1.0541010e+00 2.8360001e+01
      endloop
   endfacet
   facet normal 9.9144486e-01 1.3052619e-01 0.0000000e+00
      outer loop
         vertex 9.0000100e-01 1.0541010e+00 2.8360001e+01
         vertex 9.0562324e-01 1.0113959e+00 2.7120001e+01
         vertex 9.0000100e-01 1.0541010e+00 2.7120001e+01
      endloop
   endfacet
   facet normal 9.9144486e-01 -1.3052619e-01 0.0000000e+00
      outer loop
         vertex 9.0000100e-01 1.0541010e+00 2.8360001e+01
         vertex 9.0000100e-01 1.0541010e+00 2.7120001e+01
         vertex 9.0562324e-01 1.0968061e+00 2.8360001e+01
      endloop
   endfacet
   facet normal 9.9144486e-01 -1.3052619e-01 -2.3343976e-17
      outer loop
         vertex 9.0562324e-01 1.0968061e+00 2.8360001e+01
         vertex 9.0000100e-01 1.0541010e+00 2.7120001e+01
         vertex 9.0562324e-01 1.0968061e+00 2.7120001e+01
      endloop
   endfacet
   facet normal 9.2387953e-01 -3.8268343e-01 -6.8526445e-17
      outer loop
         vertex 9.0562324e-01 1.0968061e+00 2.8360001e+01
         vertex 9.0562324e-01 1.0968061e+00 2.7120001e+01
         vertex 9.2210681e-01 1.1366010e+00 2.8360001e+01
      endloop
   endfacet
   facet normal 9.2387953e-01 -3.8268343e-01 0.0000000e+00
      outer loop
         vertex 9.2210681e-01 1.1366010e+00 2.8360001e+01
         vertex 9.0562324e-01 1.0968061e+00 2.7120001e+01
         vertex 9.2210681e-01 1.1366010e+00 2.7120001e+01
      endloop
   endfacet
   facet normal 7.9335334e-01 -6.0876143e-01 0.0000000e+00
      outer loop
         vertex 9.2210681e-01 1.1366010e+00 2.8360001e+01
         vertex 9.2210681e-01 1.1366010e+00 2.7120001e+01
         vertex 9.4832838e-01 1.1707736e+00 2.8360001e+01
      endloop
   endfacet
   facet normal 7.9335334e-01 -6.0876143e-01 0.0000000e+00
      outer loop
         vertex 9.4832838e-01 1.1707736e+00 2.8360001e+01
         vertex 9.2210681e-01 1.1366010e+00 2.7120001e+01
         vertex 9.4832838e-01 1.1707736e+00 2.7120001e+01
      endloop
   endfacet
   facet normal 6.0876143e-01 -7.9335334e-01 0.0000000e+00
      outer loop
         vertex 9.4832838e-01 1.1707736e+00 2.8360001e+01
         vertex 9.4832838e-01 1.1707736e+00 2.7120001e+01
         vertex 9.8250100e-01 1.1969952e+00 2.8360001e+01
      endloop
   endfacet
   facet normal 6.0876143e-01 -7.9335334e-01 5.2777684e-17
      outer loop
         vertex 9.8250100e-01 1.1969952e+00 2.8360001e+01
         vertex 9.4832838e-01 1.1707736e+00 2.7120001e+01
         vertex 9.8250100e-01 1.1969952e+00 2.7120001e+01
      endloop
   endfacet
   facet normal 3.8268343e-01 -9.2387953e-01 3.4263222e-17
      outer loop
         vertex 9.8250100e-01 1.1969952e+00 2.8360001e+01
         vertex 9.8250100e-01 1.1969952e+00 2.7120001e+01
         vertex 1.0222959e+00 1.2134788e+00 2.8360001e+01
      endloop
   endfacet
   facet normal 3.8268343e-01 -9.2387953e-01 0.0000000e+00
      outer loop
         vertex 1.0222959e+00 1.2134788e+00 2.8360001e+01
         vertex 9.8250100e-01 1.1969952e+00 2.7120001e+01
         vertex 1.0222959e+00 1.2134788e+00 2.7120001e+01
      endloop
   endfacet
   facet normal 1.3052619e-01 -9.9144486e-01 0.0000000e+00
      outer loop
         vertex 1.0222959e+00 1.2134788e+00 2.8360001e+01
         vertex 1.0222959e+00 1.2134788e+00 2.7120001e+01
         vertex 1.0650010e+00 1.2191010e+00 2.8360001e+01
      endloop
   endfacet
   facet normal 1.3052619e-01 -9.9144486e-01 0.0000000e+00
      outer loop
         vertex 1.0650010e+00 1.2191010e+00 2.8360001e+01
         vertex 1.0222959e+00 1.2134788e+00 2.7120001e+01
         vertex 1.0650010e+00 1.2191010e+00 2.7120001e+01
      endloop
   endfacet
   facet normal -1.3052619e-01 -9.9144486e-01 -0.0000000e+00
      outer loop
         vertex 1.0650010e+00 1.2191010e+00 2.8360001e+01
         vertex 1.0650010e+00 1.2191010e+00 2.7120001e+01
         vertex 1.1077061e+00 1.2134788e+00 2.8360001e+01
      endloop
   endfacet
   facet normal -1.3052619e-01 -9.9144486e-01 0.0000000e+00
      outer loop
         vertex 1.1077061e+00 1.2134788e+00 2.8360001e+01
         vertex 1.0650010e+00 1.2191010e+00 2.7120001e+01
         vertex 1.1077061e+00 1.2134788e+00 2.7120001e+01
      endloop
   endfacet
   facet normal -3.8268343e-01 -9.2387953e-01 -0.0000000e+00
      outer loop
         vertex 1.1077061e+00 1.2134788e+00 2.8360001e+01
         vertex 1.1077061e+00 1.2134788e+00 2.7120001e+01
         vertex 1.1475010e+00 1.1969952e+00 2.8360001e+01
      endloop
   endfacet
   facet normal -3.8268343e-01 -9.2387953e-01 -6.9016971e-17
      outer loop
         vertex 1.1475010e+00 1.1969952e+00 2.8360001e+01
         vertex 1.1077061e+00 1.2134788e+00 2.7120001e+01
         vertex 1.1475010e+00 1.1969952e+00 2.7120001e+01
      endloop
   endfacet
   facet normal -6.0876143e-01 -7.9335334e-01 -1.0900983e-16
      outer loop
         vertex 1.1475010e+00 1.1969952e+00 2.8360001e+01
         vertex 1.1475010e+00 1.1969952e+00 2.7120001e+01
         vertex 1.1816736e+00 1.1707736e+00 2.8360001e+01
      endloop
   endfacet
   facet normal -6.0876143e-01 -7.9335334e-01 0.0000000e+00
      outer loop
         vertex 1.1816736e+00 1.1707736e+00 2.8360001e+01
         vertex 1.1475010e+00 1.1969952e+00 2.7120001e+01
         vertex 1.1816736e+00 1.1707736e+00 2.7120001e+01
      endloop
   endfacet
   facet normal -7.9335334e-01 -6.0876143e-01 -0.0000000e+00
      outer loop
         vertex 1.1816736e+00 1.1707736e+00 2.8360001e+01
         vertex 1.1816736e+00 1.1707736e+00 2.7120001e+01
         vertex 1.2078952e+00 1.1366010e+00 2.8360001e+01
      endloop
   endfacet
   facet normal -7.9335334e-01 -6.0876143e-01 0.0000000e+00
      outer loop
         vertex 1.2078952e+00 1.1366010e+00 2.8360001e+01
         vertex 1.1816736e+00 1.1707736e+00 2.7120001e+01
         vertex 1.2078952e+00 1.1366010e+00 2.7120001e+01
      endloop
   endfacet
   facet normal -9.2387953e-01 -3.8268343e-01 -0.0000000e+00
      outer loop
         vertex 1.2078952e+00 1.1366010e+00 2.8360001e+01
         vertex 1.2078952e+00 1.1366010e+00 2.7120001e+01
         vertex 1.2243788e+00 1.0968061e+00 2.8360001e+01
      endloop
   endfacet
   facet normal -9.2387953e-01 -3.8268343e-01 -1.6442278e-16
      outer loop
         vertex 1.2243788e+00 1.0968061e+00 2.8360001e+01
         vertex 1.2078952e+00 1.1366010e+00 2.7120001e+01
         vertex 1.2243788e+00 1.0968061e+00 2.7120001e+01
      endloop
   endfacet
   facet normal -1.0000000e+00 -2.2791463e-16 0.0000000e+00
      outer loop
         vertex 4.5325869e-01 2.4400010e+00 2.7120001e+01
         vertex 4.5325869e-01 1.9528787e+00 2.7120001e+01
         vertex 4.5325869e-01 2.4400010e+00 2.8360001e+01
      endloop
   endfacet
   facet normal -1.0000000e+00 -0.0000000e+00 -8.9534115e-17
      outer loop
         vertex 4.5325869e-01 2.4400010e+00 2.8360001e+01
         vertex 4.5325869e-01 1.9528787e+00 2.7120001e+01
         vertex 4.5325869e-01 1.9221547e+00 2.7120001e+01
      endloop
   endfacet
   facet normal -1.0000000e+00 -4.5500944e-17 -7.0532103e-17
      outer loop
         vertex 4.5325869e-01 2.4400010e+00 2.8360001e+01
         vertex 4.5325869e-01 1.9221547e+00 2.7120001e+01
         vertex 4.5325869e-01 1.0000000e-06 2.8360001e+01
      endloop
   endfacet
   facet normal -1.0000000e+00 -0.0000000e+00 -0.0000000e+00
      outer loop
         vertex 4.5325869e-01 1.0000000e-06 2.8360001e+01
         vertex 4.5325869e-01 1.9221547e+00 2.7120001e+01
         vertex 4.5325869e-01 2.4110100e-01 2.7120001e+01
      endloop
   endfacet
   facet normal -1.0000000e+00 -0.0000000e+00 -0.0000000e+00
      outer loop
         vertex 4.5325869e-01 1.0000000e-06 2.8360001e+01
         vertex 4.5325869e-01 2.4110100e-01 2.7120001e+01
         vertex 4.5325869e-01 2.0932331e-01 2.7120001e+01
      endloop
   endfacet
   facet normal -1.0000000e+00 0.0000000e+00 0.0000000e+00
      outer loop
         vertex 4.5325869e-01 2.0932331e-01 2.7120001e+01
         vertex 4.5325869e-01 1.0000000e-06 2.7120001e+01
         vertex 4.5325869e-01 1.0000000e-06 2.8360001e+01
      endloop
   endfacet
   facet normal 0.0000000e+00 1.0000000e+00 -0.0000000e+00
      outer loop
         vertex 2.1296587e+00 2.4400010e+00 2.7120001e+01
         vertex 4.5325869e-01 2.4400010e+00 2.7120001e+01
         vertex 2.1296587e+00 2.4400010e+00 2.8360001e+01
      endloop
   endfacet
   facet normal 0.0000000e+00 1.0000000e+00 -0.0000000e+00
      outer loop
         vertex 2.1296587e+00 2.4400010e+00 2.8360001e+01
         vertex 4.5325869e-01 2.4400010e+00 2.7120001e+01
         vertex 4.5325869e-01 2.4400010e+00 2.8360001e+01
      endloop
   endfacet
   facet normal 1.0000000e+00 0.0000000e+00 -0.0000000e+00
      outer loop
         vertex 2.1296587e+00 1.0000000e-06 2.7120001e+01
         vertex 2.1296587e+00 1.0541010e+00 2.7120001e+01
         vertex 2.1296587e+00 1.0000000e-06 2.8360001e+01
      endloop
   endfacet
   facet normal 1.0000000e+00 -0.0000000e+00 0.0000000e+00
      outer loop
         vertex 2.1296587e+00 1.0000000e-06 2.8360001e+01
         vertex 2.1296587e+00 1.0541010e+00 2.7120001e+01
         vertex 2.1296587e+00 1.1081010e+00 2.7120001e+01
      endloop
   endfacet
   facet normal 1.0000000e+00 -0.0000000e+00 0.0000000e+00
      outer loop
         vertex 2.1296587e+00 1.0000000e-06 2.8360001e+01
         vertex 2.1296587e+00 1.1081010e+00 2.7120001e+01
         vertex 2.1296587e+00 2.4400010e+00 2.8360001e+01
      endloop
   endfacet
   facet normal 1.0000000e+00 -0.0000000e+00 0.0000000e+00
      outer loop
         vertex 2.1296587e+00 2.4400010e+00 2.8360001e+01
         vertex 2.1296587e+00 1.1081010e+00 2.7120001e+01
         vertex 2.1296587e+00 2.4400010e+00 2.7120001e+01
      endloop
   endfacet
   facet normal 0.0000000e+00 -1.0000000e+00 0.0000000e+00
      outer loop
         vertex 4.5325869e-01 1.0000000e-06 2.7120001e+01
         vertex 2.1296587e+00 1.0000000e-06 2.7120001e+01
         vertex 4.5325869e-01 1.0000000e-06 2.8360001e+01
      endloop
   endfacet
   facet normal 0.0000000e+00 -1.0000000e+00 0.0000000e+00
      outer loop
         vertex 4.5325869e-01 1.0000000e-06 2.8360001e+01
         vertex 2.1296587e+00 1.0000000e-06 2.7120001e+01
         vertex 2.1296587e+00 1.0000000e-06 2.8360001e+01
      endloop
   endfacet
   facet normal -0.0000000e+00 -0.0000000e+00 1.0000000e+00
      outer loop
         vertex 1.2243788e+00 1.0113959e+00 2.8360001e+01
         vertex 2.1296587e+00 1.0000000e-06 2.8360001e+01
         vertex 1.2300010e+00 1.0541010e+00 2.8360001e+01
      endloop
   endfacet
   facet normal -0.0000000e+00 0.0000000e+00 1.0000000e+00
      outer loop
         vertex 1.2300010e+00 1.0541010e+00 2.8360001e+01
         vertex 2.1296587e+00 1.0000000e-06 2.8360001e+01
         vertex 2.1296587e+00 2.4400010e+00 2.8360001e+01
      endloop
   endfacet
   facet normal 0.0000000e+00 -0.0000000e+00 1.0000000e+00
      outer loop
         vertex 1.2300010e+00 1.0541010e+00 2.8360001e+01
         vertex 2.1296587e+00 2.4400010e+00 2.8360001e+01
         vertex 1.2243788e+00 1.0968061e+00 2.8360001e+01
      endloop
   endfacet
   facet normal 0.0000000e+00 -0.0000000e+00 1.0000000e+00
      outer loop
         vertex 1.2243788e+00 1.0968061e+00 2.8360001e+01
         vertex 2.1296587e+00 2.4400010e+00 2.8360001e+01
         vertex 1.2078952e+00 1.1366010e+00 2.8360001e+01
      endloop
   endfacet
   facet normal 0.0000000e+00 -0.0000000e+00 1.0000000e+00
      outer loop
         vertex 1.2078952e+00 1.1366010e+00 2.8360001e+01
         vertex 2.1296587e+00 2.4400010e+00 2.8360001e+01
         vertex 1.1816736e+00 1.1707736e+00 2.8360001e+01
      endloop
   endfacet
   facet normal 0.0000000e+00 -0.0000000e+00 1.0000000e+00
      outer loop
         vertex 1.1816736e+00 1.1707736e+00 2.8360001e+01
         vertex 2.1296587e+00 2.4400010e+00 2.8360001e+01
         vertex 1.1475010e+00 1.1969952e+00 2.8360001e+01
      endloop
   endfacet
   facet normal 0.0000000e+00 -0.0000000e+00 1.0000000e+00
      outer loop
         vertex 1.1475010e+00 1.1969952e+00 2.8360001e+01
         vertex 2.1296587e+00 2.4400010e+00 2.8360001e+01
         vertex 1.1077061e+00 1.2134788e+00 2.8360001e+01
      endloop
   endfacet
   facet normal 0.0000000e+00 -0.0000000e+00 1.0000000e+00
      outer loop
         vertex 1.1077061e+00 1.2134788e+00 2.8360001e+01
         vertex 2.1296587e+00 2.4400010e+00 2.8360001e+01
         vertex 4.5325869e-01 2.4400010e+00 2.8360001e+01
      endloop
   endfacet
   facet normal 0.0000000e+00 0.0000000e+00 1.0000000e+00
      outer loop
         vertex 1.1077061e+00 1.2134788e+00 2.8360001e+01
         vertex 4.5325869e-01 2.4400010e+00 2.8360001e+01
         vertex 1.0650010e+00 1.2191010e+00 2.8360001e+01
      endloop
   endfacet
   facet normal 0.0000000e+00 0.0000000e+00 1.0000000e+00
      outer loop
         vertex 1.0650010e+00 1.2191010e+00 2.8360001e+01
         vertex 4.5325869e-01 2.4400010e+00 2.8360001e+01
         vertex 1.0222959e+00 1.2134788e+00 2.8360001e+01
      endloop
   endfacet
   facet normal 0.0000000e+00 0.0000000e+00 1.0000000e+00
      outer loop
         vertex 1.0222959e+00 1.2134788e+00 2.8360001e+01
         vertex 4.5325869e-01 2.4400010e+00 2.8360001e+01
         vertex 9.8250100e-01 1.1969952e+00 2.8360001e+01
      endloop
   endfacet
   facet normal 0.0000000e+00 0.0000000e+00 1.0000000e+00
      outer loop
         vertex 9.8250100e-01 1.1969952e+00 2.8360001e+01
         vertex 4.5325869e-01 2.4400010e+00 2.8360001e+01
         vertex 9.4832838e-01 1.1707736e+00 2.8360001e+01
      endloop
   endfacet
   facet normal 0.0000000e+00 0.0000000e+00 1.0000000e+00
      outer loop
         vertex 9.4832838e-01 1.1707736e+00 2.8360001e+01
         vertex 4.5325869e-01 2.4400010e+00 2.8360001e+01
         vertex 9.2210681e-01 1.1366010e+00 2.8360001e+01
      endloop
   endfacet
   facet normal 0.0000000e+00 0.0000000e+00 1.0000000e+00
      outer loop
         vertex 9.2210681e-01 1.1366010e+00 2.8360001e+01
         vertex 4.5325869e-01 2.4400010e+00 2.8360001e+01
         vertex 9.0562324e-01 1.0968061e+00 2.8360001e+01
      endloop
   endfacet
   facet normal 0.0000000e+00 0.0000000e+00 1.0000000e+00
      outer loop
         vertex 9.0562324e-01 1.0968061e+00 2.8360001e+01
         vertex 4.5325869e-01 2.4400010e+00 2.8360001e+01
         vertex 9.0000100e-01 1.0541010e+00 2.8360001e+01
      endloop
   endfacet
   facet normal 0.0000000e+00 0.0000000e+00 1.0000000e+00
      outer loop
         vertex 9.0000100e-01 1.0541010e+00 2.8360001e+01
         vertex 4.5325869e-01 2.4400010e+00 2.8360001e+01
         vertex 4.5325869e-01 1.0000000e-06 2.8360001e+01
      endloop
   endfacet
   facet normal -0.0000000e+00 0.0000000e+00 1.0000000e+00
      outer loop
         vertex 9.0000100e-01 1.0541010e+00 2.8360001e+01
         vertex 4.5325869e-01 1.0000000e-06 2.8360001e+01
         vertex 9.0562324e-01 1.0113959e+00 2.8360001e+01
      endloop
   endfacet
   facet normal -0.0000000e+00 0.0000000e+00 1.0000000e+00
      outer loop
         vertex 9.0562324e-01 1.0113959e+00 2.8360001e+01
         vertex 4.5325869e-01 1.0000000e-06 2.8360001e+01
         vertex 9.2210681e-01 9.7160100e-01 2.8360001e+01
      endloop
   endfacet
   facet normal -0.0000000e+00 0.0000000e+00 1.0000000e+00
      outer loop
         vertex 9.2210681e-01 9.7160100e-01 2.8360001e+01
         vertex 4.5325869e-01 1.0000000e-06 2.8360001e+01
         vertex 9.4832838e-01 9.3742838e-01 2.8360001e+01
      endloop
   endfacet
   facet normal -0.0000000e+00 0.0000000e+00 1.0000000e+00
      outer loop
         vertex 9.4832838e-01 9.3742838e-01 2.8360001e+01
         vertex 4.5325869e-01 1.0000000e-06 2.8360001e+01
         vertex 9.8250100e-01 9.1120681e-01 2.8360001e+01
      endloop
   endfacet
   facet normal -0.0000000e+00 0.0000000e+00 1.0000000e+00
      outer loop
         vertex 9.8250100e-01 9.1120681e-01 2.8360001e+01
         vertex 4.5325869e-01 1.0000000e-06 2.8360001e+01
         vertex 1.0222959e+00 8.9472324e-01 2.8360001e+01
      endloop
   endfacet
   facet normal -0.0000000e+00 0.0000000e+00 1.0000000e+00
      outer loop
         vertex 1.0222959e+00 8.9472324e-01 2.8360001e+01
         vertex 4.5325869e-01 1.0000000e-06 2.8360001e+01
         vertex 1.0650010e+00 8.8910100e-01 2.8360001e+01
      endloop
   endfacet
   facet normal -0.0000000e+00 0.0000000e+00 1.0000000e+00
      outer loop
         vertex 1.0650010e+00 8.8910100e-01 2.8360001e+01
         vertex 4.5325869e-01 1.0000000e-06 2.8360001e+01
         vertex 1.1077061e+00 8.9472324e-01 2.8360001e+01
      endloop
   endfacet
   facet normal -0.0000000e+00 0.0000000e+00 1.0000000e+00
      outer loop
         vertex 1.1077061e+00 8.9472324e-01 2.8360001e+01
         vertex 4.5325869e-01 1.0000000e-06 2.8360001e+01
         vertex 2.1296587e+00 1.0000000e-06 2.8360001e+01
      endloop
   endfacet
   facet normal -0.0000000e+00 -0.0000000e+00 1.0000000e+00
      outer loop
         vertex 1.1077061e+00 8.9472324e-01 2.8360001e+01
         vertex 2.1296587e+00 1.0000000e-06 2.8360001e+01
         vertex 1.1475010e+00 9.1120681e-01 2.8360001e+01
      endloop
   endfacet
   facet normal -0.0000000e+00 -0.0000000e+00 1.0000000e+00
      outer loop
         vertex 1.1475010e+00 9.1120681e-01 2.8360001e+01
         vertex 2.1296587e+00 1.0000000e-06 2.8360001e+01
         vertex 1.1816736e+00 9.3742838e-01 2.8360001e+01
      endloop
   endfacet
   facet normal -0.0000000e+00 -0.0000000e+00 1.0000000e+00
      outer loop
         vertex 1.1816736e+00 9.3742838e-01 2.8360001e+01
         vertex 2.1296587e+00 1.0000000e-06 2.8360001e+01
         vertex 1.2078952e+00 9.7160100e-01 2.8360001e+01
      endloop
   endfacet
   facet normal -0.0000000e+00 -0.0000000e+00 1.0000000e+00
      outer loop
         vertex 1.2078952e+00 9.7160100e-01 2.8360001e+01
         vertex 2.1296587e+00 1.0000000e-06 2.8360001e+01
         vertex 1.2243788e+00 1.0113959e+00 2.8360001e+01
      endloop
   endfacet
   facet normal 0.0000000e+00 0.0000000e+00 -1.0000000e+00
      outer loop
         vertex 4.5325869e-01 2.4110100e-01 2.7120001e+01
         vertex 1.0650010e+00 8.8910100e-01 2.7120001e+01
         vertex 1.6781894e+00 2.4110100e-01 2.7120001e+01
      endloop
   endfacet
   facet normal 0.0000000e+00 0.0000000e+00 -1.0000000e+00
      outer loop
         vertex 1.6781894e+00 2.4110100e-01 2.7120001e+01
         vertex 1.0650010e+00 8.8910100e-01 2.7120001e+01
         vertex 1.1077061e+00 8.9472324e-01 2.7120001e+01
      endloop
   endfacet
   facet normal 0.0000000e+00 0.0000000e+00 -1.0000000e+00
      outer loop
         vertex 1.6781894e+00 2.4110100e-01 2.7120001e+01
         vertex 1.1077061e+00 8.9472324e-01 2.7120001e+01
         vertex 1.1475010e+00 9.1120681e-01 2.7120001e+01
      endloop
   endfacet
   facet normal 0.0000000e+00 -0.0000000e+00 -1.0000000e+00
      outer loop
         vertex 4.5325869e-01 1.9221547e+00 2.7120001e+01
         vertex 9.0000100e-01 1.0541010e+00 2.7120001e+01
         vertex 4.5325869e-01 2.4110100e-01 2.7120001e+01
      endloop
   endfacet
   facet normal 0.0000000e+00 0.0000000e+00 -1.0000000e+00
      outer loop
         vertex 4.5325869e-01 2.4110100e-01 2.7120001e+01
         vertex 9.0000100e-01 1.0541010e+00 2.7120001e+01
         vertex 9.0562324e-01 1.0113959e+00 2.7120001e+01
      endloop
   endfacet
   facet normal 0.0000000e+00 0.0000000e+00 -1.0000000e+00
      outer loop
         vertex 4.5325869e-01 2.4110100e-01 2.7120001e+01
         vertex 9.0562324e-01 1.0113959e+00 2.7120001e+01
         vertex 9.2210681e-01 9.7160100e-01 2.7120001e+01
      endloop
   endfacet
   facet normal -0.0000000e+00 -0.0000000e+00 -1.0000000e+00
      outer loop
         vertex 6.9164485e-01 2.0517735e+00 2.7120001e+01
         vertex 9.8250100e-01 1.1969952e+00 2.7120001e+01
         vertex 4.5325869e-01 1.9221547e+00 2.7120001e+01
      endloop
   endfacet
   facet normal 0.0000000e+00 -0.0000000e+00 -1.0000000e+00
      outer loop
         vertex 4.5325869e-01 1.9221547e+00 2.7120001e+01
         vertex 9.8250100e-01 1.1969952e+00 2.7120001e+01
         vertex 9.4832838e-01 1.1707736e+00 2.7120001e+01
      endloop
   endfacet
   facet normal 0.0000000e+00 -0.0000000e+00 -1.0000000e+00
      outer loop
         vertex 4.5325869e-01 1.9221547e+00 2.7120001e+01
         vertex 9.4832838e-01 1.1707736e+00 2.7120001e+01
         vertex 9.2210681e-01 1.1366010e+00 2.7120001e+01
      endloop
   endfacet
   facet normal 0.0000000e+00 0.0000000e+00 -1.0000000e+00
      outer loop
         vertex 9.8250100e-01 1.1969952e+00 2.7120001e+01
         vertex 6.9164485e-01 2.0517735e+00 2.7120001e+01
         vertex 1.0222959e+00 1.2134788e+00 2.7120001e+01
      endloop
   endfacet
   facet normal 0.0000000e+00 0.0000000e+00 -1.0000000e+00
      outer loop
         vertex 1.0222959e+00 1.2134788e+00 2.7120001e+01
         vertex 6.9164485e-01 2.0517735e+00 2.7120001e+01
         vertex 9.5544692e-01 2.1153147e+00 2.7120001e+01
      endloop
   endfacet
   facet normal 0.0000000e+00 0.0000000e+00 -1.0000000e+00
      outer loop
         vertex 1.0222959e+00 1.2134788e+00 2.7120001e+01
         vertex 9.5544692e-01 2.1153147e+00 2.7120001e+01
         vertex 1.0650010e+00 1.2191010e+00 2.7120001e+01
      endloop
   endfacet
   facet normal 0.0000000e+00 0.0000000e+00 -1.0000000e+00
      outer loop
         vertex 1.0650010e+00 1.2191010e+00 2.7120001e+01
         vertex 9.5544692e-01 2.1153147e+00 2.7120001e+01
         vertex 1.2267068e+00 2.1084526e+00 2.7120001e+01
      endloop
   endfacet
   facet normal 0.0000000e+00 -0.0000000e+00 -1.0000000e+00
      outer loop
         vertex 1.0650010e+00 1.2191010e+00 2.7120001e+01
         vertex 1.2267068e+00 2.1084526e+00 2.7120001e+01
         vertex 1.1077061e+00 1.2134788e+00 2.7120001e+01
      endloop
   endfacet
   facet normal 0.0000000e+00 0.0000000e+00 -1.0000000e+00
      outer loop
         vertex 1.1077061e+00 1.2134788e+00 2.7120001e+01
         vertex 1.2267068e+00 2.1084526e+00 2.7120001e+01
         vertex 1.4869587e+00 2.0316544e+00 2.7120001e+01
      endloop
   endfacet
   facet normal 0.0000000e+00 -0.0000000e+00 -1.0000000e+00
      outer loop
         vertex 1.1077061e+00 1.2134788e+00 2.7120001e+01
         vertex 1.4869587e+00 2.0316544e+00 2.7120001e+01
         vertex 1.1475010e+00 1.1969952e+00 2.7120001e+01
      endloop
   endfacet
   facet normal 0.0000000e+00 0.0000000e+00 -1.0000000e+00
      outer loop
         vertex 1.1475010e+00 1.1969952e+00 2.7120001e+01
         vertex 1.4869587e+00 2.0316544e+00 2.7120001e+01
         vertex 1.7184861e+00 1.8901481e+00 2.7120001e+01
      endloop
   endfacet
   facet normal 0.0000000e+00 -0.0000000e+00 -1.0000000e+00
      outer loop
         vertex 1.1475010e+00 1.1969952e+00 2.7120001e+01
         vertex 1.7184861e+00 1.8901481e+00 2.7120001e+01
         vertex 1.1816736e+00 1.1707736e+00 2.7120001e+01
      endloop
   endfacet
   facet normal 0.0000000e+00 0.0000000e+00 -1.0000000e+00
      outer loop
         vertex 1.1816736e+00 1.1707736e+00 2.7120001e+01
         vertex 1.7184861e+00 1.8901481e+00 2.7120001e+01
         vertex 1.9055282e+00 1.6935666e+00 2.7120001e+01
      endloop
   endfacet
   facet normal 0.0000000e+00 -0.0000000e+00 -1.0000000e+00
      outer loop
         vertex 1.1816736e+00 1.1707736e+00 2.7120001e+01
         vertex 1.9055282e+00 1.6935666e+00 2.7120001e+01
         vertex 1.2078952e+00 1.1366010e+00 2.7120001e+01
      endloop
   endfacet
   facet normal 0.0000000e+00 0.0000000e+00 -1.0000000e+00
      outer loop
         vertex 1.2078952e+00 1.1366010e+00 2.7120001e+01
         vertex 1.9055282e+00 1.6935666e+00 2.7120001e+01
         vertex 2.0353520e+00 1.4552920e+00 2.7120001e+01
      endloop
   endfacet
   facet normal 0.0000000e+00 -0.0000000e+00 -1.0000000e+00
      outer loop
         vertex 1.2078952e+00 1.1366010e+00 2.7120001e+01
         vertex 2.0353520e+00 1.4552920e+00 2.7120001e+01
         vertex 1.2243788e+00 1.0968061e+00 2.7120001e+01
      endloop
   endfacet
   facet normal 0.0000000e+00 0.0000000e+00 -1.0000000e+00
      outer loop
         vertex 1.2243788e+00 1.0968061e+00 2.7120001e+01
         vertex 2.0353520e+00 1.4552920e+00 2.7120001e+01
         vertex 2.0991200e+00 1.1915447e+00 2.7120001e+01
      endloop
   endfacet
   facet normal 0.0000000e+00 -0.0000000e+00 -1.0000000e+00
      outer loop
         vertex 1.2243788e+00 1.0968061e+00 2.7120001e+01
         vertex 2.0991200e+00 1.1915447e+00 2.7120001e+01
         vertex 1.2300010e+00 1.0541010e+00 2.7120001e+01
      endloop
   endfacet
   facet normal 0.0000000e+00 -0.0000000e+00 -1.0000000e+00
      outer loop
         vertex 1.2300010e+00 1.0541010e+00 2.7120001e+01
         vertex 2.0991200e+00 1.1915447e+00 2.7120001e+01
         vertex 2.0924913e+00 9.2027902e-01 2.7120001e+01
      endloop
   endfacet
   facet normal -0.0000000e+00 -0.0000000e+00 -1.0000000e+00
      outer loop
         vertex 1.2300010e+00 1.0541010e+00 2.7120001e+01
         vertex 2.0924913e+00 9.2027902e-01 2.7120001e+01
         vertex 1.2243788e+00 1.0113959e+00 2.7120001e+01
      endloop
   endfacet
   facet normal 0.0000000e+00 -0.0000000e+00 -1.0000000e+00
      outer loop
         vertex 1.2243788e+00 1.0113959e+00 2.7120001e+01
         vertex 2.0924913e+00 9.2027902e-01 2.7120001e+01
         vertex 2.0159170e+00 6.5996117e-01 2.7120001e+01
      endloop
   endfacet
   facet normal -0.0000000e+00 -0.0000000e+00 -1.0000000e+00
      outer loop
         vertex 1.2243788e+00 1.0113959e+00 2.7120001e+01
         vertex 2.0159170e+00 6.5996117e-01 2.7120001e+01
         vertex 1.2078952e+00 9.7160100e-01 2.7120001e+01
      endloop
   endfacet
   facet normal 0.0000000e+00 -0.0000000e+00 -1.0000000e+00
      outer loop
         vertex 1.2078952e+00 9.7160100e-01 2.7120001e+01
         vertex 2.0159170e+00 6.5996117e-01 2.7120001e+01
         vertex 1.8746099e+00 4.2831206e-01 2.7120001e+01
      endloop
   endfacet
   facet normal -0.0000000e+00 -0.0000000e+00 -1.0000000e+00
      outer loop
         vertex 1.2078952e+00 9.7160100e-01 2.7120001e+01
         vertex 1.8746099e+00 4.2831206e-01 2.7120001e+01
         vertex 1.1816736e+00 9.3742838e-01 2.7120001e+01
      endloop
   endfacet
   facet normal 0.0000000e+00 -0.0000000e+00 -1.0000000e+00
      outer loop
         vertex 1.1816736e+00 9.3742838e-01 2.7120001e+01
         vertex 1.8746099e+00 4.2831206e-01 2.7120001e+01
         vertex 1.6781894e+00 2.4110100e-01 2.7120001e+01
      endloop
   endfacet
   facet normal -0.0000000e+00 -0.0000000e+00 -1.0000000e+00
      outer loop
         vertex 1.1816736e+00 9.3742838e-01 2.7120001e+01
         vertex 1.6781894e+00 2.4110100e-01 2.7120001e+01
         vertex 1.1475010e+00 9.1120681e-01 2.7120001e+01
      endloop
   endfacet
   facet normal -0.0000000e+00 0.0000000e+00 -1.0000000e+00
      outer loop
         vertex 9.2210681e-01 1.1366010e+00 2.7120001e+01
         vertex 9.0562324e-01 1.0968061e+00 2.7120001e+01
         vertex 4.5325869e-01 1.9221547e+00 2.7120001e+01
      endloop
   endfacet
   facet normal 0.0000000e+00 -0.0000000e+00 -1.0000000e+00
      outer loop
         vertex 4.5325869e-01 1.9221547e+00 2.7120001e+01
         vertex 9.0562324e-01 1.0968061e+00 2.7120001e+01
         vertex 9.0000100e-01 1.0541010e+00 2.7120001e+01
      endloop
   endfacet
   facet normal 0.0000000e+00 -0.0000000e+00 -1.0000000e+00
      outer loop
         vertex 9.2210681e-01 9.7160100e-01 2.7120001e+01
         vertex 9.4832838e-01 9.3742838e-01 2.7120001e+01
         vertex 4.5325869e-01 2.4110100e-01 2.7120001e+01
      endloop
   endfacet
   facet normal 0.0000000e+00 0.0000000e+00 -1.0000000e+00
      outer loop
         vertex 4.5325869e-01 2.4110100e-01 2.7120001e+01
         vertex 9.4832838e-01 9.3742838e-01 2.7120001e+01
         vertex 9.8250100e-01 9.1120681e-01 2.7120001e+01
      endloop
   endfacet
   facet normal 0.0000000e+00 0.0000000e+00 -1.0000000e+00
      outer loop
         vertex 4.5325869e-01 2.4110100e-01 2.7120001e+01
         vertex 9.8250100e-01 9.1120681e-01 2.7120001e+01
         vertex 1.0222959e+00 8.9472324e-01 2.7120001e+01
      endloop
   endfacet
   facet normal 0.0000000e+00 -0.0000000e+00 -1.0000000e+00
      outer loop
         vertex 1.0222959e+00 8.9472324e-01 2.7120001e+01
         vertex 1.0650010e+00 8.8910100e-01 2.7120001e+01
         vertex 4.5325869e-01 2.4110100e-01 2.7120001e+01
      endloop
   endfacet
   facet normal -0.0000000e+00 0.0000000e+00 1.0000000e+00
      outer loop
         vertex 2.1296587e+00 1.1081010e+00 2.7120001e+01
         vertex 2.1296587e+00 1.0541010e+00 2.7120001e+01
         vertex 2.1299630e+00 1.0901019e+00 2.7120001e+01
      endloop
   endfacet
   facet normal -0.0000000e+00 0.0000000e+00 1.0000000e+00
      outer loop
         vertex 2.1299630e+00 1.0901019e+00 2.7120001e+01
         vertex 2.1296587e+00 1.0541010e+00 2.7120001e+01
         vertex 2.1299630e+00 1.0721001e+00 2.7120001e+01
      endloop
   endfacet
   facet normal -1.8127116e-16 1.0000000e+00 0.0000000e+00
      outer loop
         vertex 1.6781894e+00 2.4110100e-01 2.7120001e+01
         vertex 1.6781894e+00 2.4110100e-01 1.0000000e-06
         vertex 4.5325869e-01 2.4110100e-01 2.7120001e+01
      endloop
   endfacet
   facet normal 9.0528706e-17 1.0000000e+00 1.2276401e-17
      outer loop
         vertex 4.5325869e-01 2.4110100e-01 2.7120001e+01
         vertex 1.6781894e+00 2.4110100e-01 1.0000000e-06
         vertex 4.5181261e-01 2.4110100e-01 1.0000000e-06
      endloop
   endfacet
   facet normal 2.3032396e-13 1.0000000e+00 -0.0000000e+00
      outer loop
         vertex 4.5325869e-01 2.4110100e-01 2.7120001e+01
         vertex 4.5181261e-01 2.4110100e-01 1.0000000e-06
         vertex 4.5181261e-01 2.4110100e-01 2.7120001e+01
      endloop
   endfacet
   facet normal 6.8032407e-01 7.3291142e-01 0.0000000e+00
      outer loop
         vertex 4.5181261e-01 2.4110100e-01 2.7120001e+01
         vertex 4.5181261e-01 2.4110100e-01 1.0000000e-06
         vertex 2.7289509e-01 4.0718096e-01 2.7120001e+01
      endloop
   endfacet
   facet normal 6.8610385e-01 7.2750361e-01 7.1247582e-05
      outer loop
         vertex 2.7289509e-01 4.0718096e-01 2.7120001e+01
         vertex 4.5181261e-01 2.4110100e-01 1.0000000e-06
         vertex 2.6232633e-01 4.1980426e-01 1.0000000e-06
      endloop
   endfacet
   facet normal 8.3242893e-01 5.5413182e-01 -6.6473590e-05
      outer loop
         vertex 2.7289509e-01 4.0718096e-01 2.7120001e+01
         vertex 2.6232633e-01 4.1980426e-01 1.0000000e-06
         vertex 1.3762104e-01 6.1039259e-01 2.7120001e+01
      endloop
   endfacet
   facet normal 8.4535124e-01 5.3421088e-01 1.3294302e-04
      outer loop
         vertex 1.3762104e-01 6.1039259e-01 2.7120001e+01
         vertex 2.6232633e-01 4.1980426e-01 1.0000000e-06
         vertex 1.2318526e-01 6.3998525e-01 1.0000000e-06
      endloop
   endfacet
   facet normal 9.3866858e-01 3.4482064e-01 -1.2338700e-04
      outer loop
         vertex 1.3762104e-01 6.1039259e-01 2.7120001e+01
         vertex 1.2318526e-01 6.3998525e-01 1.0000000e-06
         vertex 5.3443807e-02 8.3953932e-01 2.7120001e+01
      endloop
   endfacet
   facet normal 9.5157666e-01 3.0741149e-01 1.8507084e-04
      outer loop
         vertex 5.3443807e-02 8.3953932e-01 2.7120001e+01
         vertex 1.2318526e-01 6.3998525e-01 1.0000000e-06
         vertex 4.3116568e-02 8.8783381e-01 1.0000000e-06
      endloop
   endfacet
   facet normal 9.9318944e-01 1.1651053e-01 -1.7072597e-04
      outer loop
         vertex 5.3443807e-02 8.3953932e-01 2.7120001e+01
         vertex 4.3116568e-02 8.8783381e-01 1.0000000e-06
         vertex 2.5001385e-02 1.0819956e+00 2.7120001e+01
      endloop
   endfacet
   facet normal 9.9811747e-01 6.1330702e-02 2.2761799e-04
      outer loop
         vertex 2.5001385e-02 1.0819956e+00 2.7120001e+01
         vertex 4.3116568e-02 8.8783381e-01 1.0000000e-06
         vertex 2.7142314e-02 1.1478044e+00 1.0000000e-06
      endloop
   endfacet
   facet normal 9.9298752e-01 -1.1821908e-01 -2.0847863e-04
      outer loop
         vertex 2.5001385e-02 1.0819956e+00 2.7120001e+01
         vertex 2.7142314e-02 1.1478044e+00 1.0000000e-06
         vertex 5.3860897e-02 1.3244026e+00 2.7120001e+01
      endloop
   endfacet
   facet normal 9.8205456e-01 -1.8859686e-01 2.6057380e-04
      outer loop
         vertex 5.3860897e-02 1.3244026e+00 2.7120001e+01
         vertex 2.7142314e-02 1.1478044e+00 1.0000000e-06
         vertex 7.6264432e-02 1.4035913e+00 1.0000000e-06
      endloop
   endfacet
   facet normal 9.3807393e-01 -3.4643505e-01 -2.3663553e-04
      outer loop
         vertex 5.3860897e-02 1.3244026e+00 2.7120001e+01
         vertex 7.6264432e-02 1.4035913e+00 1.0000000e-06
         vertex 1.3843224e-01 1.5534042e+00 2.7120001e+01
      endloop
   endfacet
   facet normal 9.0439541e-01 -4.2669528e-01 2.8393002e-04
      outer loop
         vertex 1.3843224e-01 1.5534042e+00 2.7120001e+01
         vertex 7.6264432e-02 1.4035913e+00 1.0000000e-06
         vertex 1.8740189e-01 1.6391510e+00 1.0000000e-06
      endloop
   endfacet
   facet normal 8.3147432e-01 -5.5556313e-01 -2.5518961e-04
      outer loop
         vertex 1.3843224e-01 1.5534042e+00 2.7120001e+01
         vertex 1.8740189e-01 1.6391510e+00 1.0000000e-06
         vertex 2.7405570e-01 1.7563828e+00 2.7120001e+01
      endloop
   endfacet
   facet normal 7.7001095e-01 -6.3803060e-01 2.9768079e-04
      outer loop
         vertex 2.7405570e-01 1.7563828e+00 2.7120001e+01
         vertex 1.8740189e-01 1.6391510e+00 1.0000000e-06
         vertex 3.5358396e-01 1.8397088e+00 1.0000000e-06
      endloop
   endfacet
   facet normal 6.7906211e-01 -7.3408077e-01 -2.6413622e-04
      outer loop
         vertex 2.7405570e-01 1.7563828e+00 2.7120001e+01
         vertex 3.5358396e-01 1.8397088e+00 1.0000000e-06
         vertex 4.5325869e-01 1.9221547e+00 2.7120001e+01
      endloop
   endfacet
   facet normal 5.8733002e-01 -8.0934749e-01 3.0182268e-04
      outer loop
         vertex 4.5325869e-01 1.9221547e+00 2.7120001e+01
         vertex 3.5358396e-01 1.8397088e+00 1.0000000e-06
         vertex 5.6438738e-01 1.9926853e+00 1.0000000e-06
      endloop
   endfacet
   facet normal 4.7768721e-01 -8.7852992e-01 -3.2737869e-04
      outer loop
         vertex 4.5325869e-01 1.9221547e+00 2.7120001e+01
         vertex 5.6438738e-01 1.9926853e+00 1.0000000e-06
         vertex 6.9164485e-01 2.0517735e+00 2.7120001e+01
      endloop
   endfacet
   facet normal 3.6781069e-01 -9.2990064e-01 3.0012918e-04
      outer loop
         vertex 6.9164485e-01 2.0517735e+00 2.7120001e+01
         vertex 5.6438738e-01 1.9926853e+00 1.0000000e-06
         vertex 8.0659019e-01 2.0884857e+00 1.0000000e-06
      endloop
   endfacet
   facet normal 2.3416953e-01 -9.7219573e-01 -3.2354967e-04
      outer loop
         vertex 6.9164485e-01 2.0517735e+00 2.7120001e+01
         vertex 8.0659019e-01 2.0884857e+00 1.0000000e-06
         vertex 9.5544692e-01 2.1153147e+00 2.7120001e+01
      endloop
   endfacet
   facet normal 1.2522160e-01 -9.9212875e-01 2.9416474e-04
      outer loop
         vertex 9.5544692e-01 2.1153147e+00 2.7120001e+01
         vertex 8.0659019e-01 2.0884857e+00 1.0000000e-06
         vertex 1.0650010e+00 2.1211010e+00 1.0000000e-06
      endloop
   endfacet
   facet normal -2.5289051e-02 -9.9968013e-01 -3.1544998e-04
      outer loop
         vertex 9.5544692e-01 2.1153147e+00 2.7120001e+01
         vertex 1.0650010e+00 2.1211010e+00 1.0000000e-06
         vertex 1.2267068e+00 2.1084526e+00 2.7120001e+01
      endloop
   endfacet
   facet normal -1.2522160e-01 -9.9212876e-01 2.8393002e-04
      outer loop
         vertex 1.2267068e+00 2.1084526e+00 2.7120001e+01
         vertex 1.0650010e+00 2.1211010e+00 1.0000000e-06
         vertex 1.3234118e+00 2.0884857e+00 1.0000000e-06
      endloop
   endfacet
   facet normal -2.8302610e-01 -9.5911216e-01 -3.0308052e-04
      outer loop
         vertex 1.2267068e+00 2.1084526e+00 2.7120001e+01
         vertex 1.3234118e+00 2.0884857e+00 1.0000000e-06
         vertex 1.4869587e+00 2.0316544e+00 2.7120001e+01
      endloop
   endfacet
   facet normal -3.6781069e-01 -9.2990065e-01 2.6942617e-04
      outer loop
         vertex 1.4869587e+00 2.0316544e+00 2.7120001e+01
         vertex 1.3234118e+00 2.0884857e+00 1.0000000e-06
         vertex 1.5656146e+00 1.9926853e+00 1.0000000e-06
      endloop
   endfacet
   facet normal -5.2149639e-01 -8.5325344e-01 -2.8644267e-04
      outer loop
         vertex 1.4869587e+00 2.0316544e+00 2.7120001e+01
         vertex 1.5656146e+00 1.9926853e+00 1.0000000e-06
         vertex 1.7184861e+00 1.8901481e+00 2.7120001e+01
      endloop
   endfacet
   facet normal -5.8733003e-01 -8.0934750e-01 2.5065479e-04
      outer loop
         vertex 1.7184861e+00 1.8901481e+00 2.7120001e+01
         vertex 1.5656146e+00 1.9926853e+00 1.0000000e-06
         vertex 1.7764180e+00 1.8397088e+00 1.0000000e-06
      endloop
   endfacet
   facet normal -7.2446626e-01 -6.8931022e-01 -2.6553829e-04
      outer loop
         vertex 1.7184861e+00 1.8901481e+00 2.7120001e+01
         vertex 1.7764180e+00 1.8397088e+00 1.0000000e-06
         vertex 1.9055282e+00 1.6935666e+00 2.7120001e+01
      endloop
   endfacet
   facet normal -7.7001097e-01 -6.3803061e-01 2.2761799e-04
      outer loop
         vertex 1.9055282e+00 1.6935666e+00 2.7120001e+01
         vertex 1.7764180e+00 1.8397088e+00 1.0000000e-06
         vertex 1.9426001e+00 1.6391510e+00 1.0000000e-06
      endloop
   endfacet
   facet normal -8.7811870e-01 -4.7844278e-01 -2.4036970e-04
      outer loop
         vertex 1.9055282e+00 1.6935666e+00 2.7120001e+01
         vertex 1.9426001e+00 1.6391510e+00 1.0000000e-06
         vertex 2.0353520e+00 1.4552920e+00 2.7120001e+01
      endloop
   endfacet
   facet normal -9.0439543e-01 -4.2669529e-01 2.0031832e-04
      outer loop
         vertex 2.0353520e+00 1.4552920e+00 2.7120001e+01
         vertex 1.9426001e+00 1.6391510e+00 1.0000000e-06
         vertex 2.0537376e+00 1.4035913e+00 1.0000000e-06
      endloop
   endfacet
   facet normal -9.7199396e-01 -2.3500575e-01 -2.1093971e-04
      outer loop
         vertex 2.0353520e+00 1.4552920e+00 2.7120001e+01
         vertex 2.0537376e+00 1.4035913e+00 1.0000000e-06
         vertex 2.0991200e+00 1.1915447e+00 2.7120001e+01
      endloop
   endfacet
   facet normal -9.8205458e-01 -1.8859686e-01 1.6875882e-04
      outer loop
         vertex 2.0991200e+00 1.1915447e+00 2.7120001e+01
         vertex 2.0537376e+00 1.4035913e+00 1.0000000e-06
         vertex 2.1028597e+00 1.1478044e+00 1.0000000e-06
      endloop
   endfacet
   facet normal -9.9970155e-01 2.4429095e-02 -1.7725159e-04
      outer loop
         vertex 2.0991200e+00 1.1915447e+00 2.7120001e+01
         vertex 2.1028597e+00 1.1478044e+00 1.0000000e-06
         vertex 2.0924913e+00 9.2027902e-01 2.7120001e+01
      endloop
   endfacet
   facet normal -9.9811749e-01 6.1330703e-02 1.3294302e-04
      outer loop
         vertex 2.0924913e+00 9.2027902e-01 2.7120001e+01
         vertex 2.1028597e+00 1.1478044e+00 1.0000000e-06
         vertex 2.0868854e+00 8.8783381e-01 1.0000000e-06
      endloop
   endfacet
   facet normal -9.5935530e-01 2.8220096e-01 -1.3930910e-04
      outer loop
         vertex 2.0924913e+00 9.2027902e-01 2.7120001e+01
         vertex 2.0868854e+00 8.8783381e-01 1.0000000e-06
         vertex 2.0159170e+00 6.5996117e-01 2.7120001e+01
      endloop
   endfacet
   facet normal -9.5157667e-01 3.0741150e-01 9.2874889e-05
      outer loop
         vertex 2.0159170e+00 6.5996117e-01 2.7120001e+01
         vertex 2.0868854e+00 8.8783381e-01 1.0000000e-06
         vertex 2.0068167e+00 6.3998525e-01 1.0000000e-06
      endloop
   endfacet
   facet normal -8.5370176e-01 5.2076223e-01 -9.7116459e-05
      outer loop
         vertex 2.0159170e+00 6.5996117e-01 2.7120001e+01
         vertex 2.0068167e+00 6.3998525e-01 1.0000000e-06
         vertex 1.8746099e+00 4.2831206e-01 2.7120001e+01
      endloop
   endfacet
   facet normal -8.4535124e-01 5.3421089e-01 4.8558906e-05
      outer loop
         vertex 1.8746099e+00 4.2831206e-01 2.7120001e+01
         vertex 2.0068167e+00 6.3998525e-01 1.0000000e-06
         vertex 1.8676757e+00 4.1980426e-01 1.0000000e-06
      endloop
   endfacet
   facet normal -6.8993319e-01 7.2387305e-01 -5.0678368e-05
      outer loop
         vertex 1.8746099e+00 4.2831206e-01 2.7120001e+01
         vertex 1.8676757e+00 4.1980426e-01 1.0000000e-06
         vertex 1.6781894e+00 2.4110100e-01 2.7120001e+01
      endloop
   endfacet
   facet normal -6.8610386e-01 7.2750361e-01 0.0000000e+00
      outer loop
         vertex 1.6781894e+00 2.4110100e-01 2.7120001e+01
         vertex 1.8676757e+00 4.1980426e-01 1.0000000e-06
         vertex 1.6781894e+00 2.4110100e-01 1.0000000e-06
      endloop
   endfacet
   facet normal 9.9144485e-01 1.3052619e-01 -1.1743463e-04
      outer loop
         vertex 2.0937120e+00 1.3567433e+00 1.0000000e-06
         vertex 2.1296587e+00 1.1081010e+00 2.7120001e+01
         vertex 2.1300010e+00 1.0811010e+00 1.0000000e-06
      endloop
   endfacet
   facet normal 9.9985714e-01 1.6902415e-02 -4.2074322e-06
      outer loop
         vertex 2.1300010e+00 1.0811010e+00 1.0000000e-06
         vertex 2.1296587e+00 1.1081010e+00 2.7120001e+01
         vertex 2.1299630e+00 1.0901019e+00 2.7120001e+01
      endloop
   endfacet
   facet normal 1.0000000e+00 0.0000000e+00 1.4025108e-06
      outer loop
         vertex 2.1300010e+00 1.0811010e+00 1.0000000e-06
         vertex 2.1299630e+00 1.0901019e+00 2.7120001e+01
         vertex 2.1299630e+00 1.0721001e+00 2.7120001e+01
      endloop
   endfacet
   facet normal 9.2387953e-01 3.8268343e-01 -8.9652036e-05
      outer loop
         vertex 1.9873181e+00 1.6136010e+00 1.0000000e-06
         vertex 1.9971859e+00 1.5961315e+00 2.7120001e+01
         vertex 2.0937120e+00 1.3567433e+00 1.0000000e-06
      endloop
   endfacet
   facet normal 9.2683294e-01 3.7547398e-01 -1.5502348e-05
      outer loop
         vertex 2.0937120e+00 1.3567433e+00 1.0000000e-06
         vertex 1.9971859e+00 1.5961315e+00 2.7120001e+01
         vertex 2.0928086e+00 1.3600930e+00 2.7120001e+01
      endloop
   endfacet
   facet normal 9.8947613e-01 1.4469619e-01 1.5088599e-05
      outer loop
         vertex 2.0937120e+00 1.3567433e+00 1.0000000e-06
         vertex 2.0928086e+00 1.3600930e+00 2.7120001e+01
         vertex 2.1296587e+00 1.1081010e+00 2.7120001e+01
      endloop
   endfacet
   facet normal 8.1119106e-01 5.8478120e-01 8.1533025e-05
      outer loop
         vertex 1.9971859e+00 1.5961315e+00 2.7120001e+01
         vertex 1.9873181e+00 1.6136010e+00 1.0000000e-06
         vertex 1.8482584e+00 1.8027192e+00 2.7120001e+01
      endloop
   endfacet
   facet normal 7.9335333e-01 6.0876142e-01 -1.7715453e-04
      outer loop
         vertex 1.8482584e+00 1.8027192e+00 2.7120001e+01
         vertex 1.9873181e+00 1.6136010e+00 1.0000000e-06
         vertex 1.8180697e+00 1.8341697e+00 1.0000000e-06
      endloop
   endfacet
   facet normal 6.4916321e-01 7.6064913e-01 1.5949196e-04
      outer loop
         vertex 1.8482584e+00 1.8027192e+00 2.7120001e+01
         vertex 1.8180697e+00 1.8341697e+00 1.0000000e-06
         vertex 1.6545423e+00 1.9680430e+00 2.7120001e+01
      endloop
   endfacet
   facet normal 6.0876141e-01 7.9335332e-01 -2.4556039e-04
      outer loop
         vertex 1.6545423e+00 1.9680430e+00 2.7120001e+01
         vertex 1.8180697e+00 1.8341697e+00 1.0000000e-06
         vertex 1.5975010e+00 2.0034181e+00 1.0000000e-06
      endloop
   endfacet
   facet normal 4.5001455e-01 8.9302120e-01 2.1833639e-04
      outer loop
         vertex 1.6545423e+00 1.9680430e+00 2.7120001e+01
         vertex 1.5975010e+00 2.0034181e+00 1.0000000e-06
         vertex 1.4271147e+00 2.0826491e+00 2.7120001e+01
      endloop
   endfacet
   facet normal 3.8268342e-01 9.2387949e-01 -2.9483621e-04
      outer loop
         vertex 1.4271147e+00 2.0826491e+00 2.7120001e+01
         vertex 1.5975010e+00 2.0034181e+00 1.0000000e-06
         vertex 1.3406433e+00 2.1098120e+00 1.0000000e-06
      endloop
   endfacet
   facet normal 2.2513291e-01 9.7432803e-01 2.5803759e-04
      outer loop
         vertex 1.4271147e+00 2.0826491e+00 2.7120001e+01
         vertex 1.3406433e+00 2.1098120e+00 1.0000000e-06
         vertex 1.1789805e+00 2.1399842e+00 2.7120001e+01
      endloop
   endfacet
   facet normal 1.3052619e-01 9.9144481e-01 -3.2495793e-04
      outer loop
         vertex 1.1789805e+00 2.1399842e+00 2.7120001e+01
         vertex 1.3406433e+00 2.1098120e+00 1.0000000e-06
         vertex 1.0650010e+00 2.1461010e+00 1.0000000e-06
      endloop
   endfacet
   facet normal -1.2622403e-02 9.9992030e-01 2.7857617e-04
      outer loop
         vertex 1.1789805e+00 2.1399842e+00 2.7120001e+01
         vertex 1.0650010e+00 2.1461010e+00 1.0000000e-06
         vertex 9.2432866e-01 2.1367696e+00 2.7120001e+01
      endloop
   endfacet
   facet normal -1.3052618e-01 9.9144481e-01 -3.3591086e-04
      outer loop
         vertex 9.2432866e-01 2.1367696e+00 2.7120001e+01
         vertex 1.0650010e+00 2.1461010e+00 1.0000000e-06
         vertex 7.8935872e-01 2.1098120e+00 1.0000000e-06
      endloop
   endfacet
   facet normal -2.4965593e-01 9.6833457e-01 2.7994211e-04
      outer loop
         vertex 9.2432866e-01 2.1367696e+00 2.7120001e+01
         vertex 7.8935872e-01 2.1098120e+00 1.0000000e-06
         vertex 6.7772084e-01 2.0731892e+00 2.7120001e+01
      endloop
   endfacet
   facet normal -3.8268341e-01 9.2387948e-01 -3.2768965e-04
      outer loop
         vertex 6.7772084e-01 2.0731892e+00 2.7120001e+01
         vertex 7.8935872e-01 2.1098120e+00 1.0000000e-06
         vertex 5.3250100e-01 2.0034181e+00 1.0000000e-06
      endloop
   endfacet
   facet normal -4.7241350e-01 8.8137700e-01 2.6213474e-04
      outer loop
         vertex 6.7772084e-01 2.0731892e+00 2.7120001e+01
         vertex 5.3250100e-01 2.0034181e+00 1.0000000e-06
         vertex 4.5325869e-01 1.9528787e+00 2.7120001e+01
      endloop
   endfacet
   facet normal -6.0876140e-01 7.9335330e-01 -3.0029830e-04
      outer loop
         vertex 4.5325869e-01 1.9528787e+00 2.7120001e+01
         vertex 5.3250100e-01 2.0034181e+00 1.0000000e-06
         vertex 3.1193228e-01 1.8341697e+00 1.0000000e-06
      endloop
   endfacet
   facet normal -6.6816743e-01 7.4401091e-01 2.2525573e-04
      outer loop
         vertex 4.5325869e-01 1.9528787e+00 2.7120001e+01
         vertex 3.1193228e-01 1.8341697e+00 1.0000000e-06
         vertex 2.6375835e-01 1.7826958e+00 2.7120001e+01
      endloop
   endfacet
   facet normal -7.9335331e-01 6.0876141e-01 -2.5381960e-04
      outer loop
         vertex 2.6375835e-01 1.7826958e+00 2.7120001e+01
         vertex 3.1193228e-01 1.8341697e+00 1.0000000e-06
         vertex 1.4268394e-01 1.6136010e+00 1.0000000e-06
      endloop
   endfacet
   facet normal -8.2571721e-01 5.6408426e-01 1.6923024e-04
      outer loop
         vertex 2.6375835e-01 1.7826958e+00 2.7120001e+01
         vertex 1.4268394e-01 1.6136010e+00 1.0000000e-06
         vertex 1.2008551e-01 1.5723847e+00 2.7120001e+01
      endloop
   endfacet
   facet normal -9.2387952e-01 3.8268343e-01 -1.8825415e-04
      outer loop
         vertex 1.2008551e-01 1.5723847e+00 2.7120001e+01
         vertex 1.4268394e-01 1.6136010e+00 1.0000000e-06
         vertex 3.6289995e-02 1.3567433e+00 1.0000000e-06
      endloop
   endfacet
   facet normal -9.3603966e-01 3.5189450e-01 9.4132808e-05
      outer loop
         vertex 1.2008551e-01 1.5723847e+00 2.7120001e+01
         vertex 3.6289995e-02 1.3567433e+00 1.0000000e-06
         vertex 3.0457624e-02 1.3339745e+00 2.7120001e+01
      endloop
   endfacet
   facet normal -9.9144486e-01 1.3052619e-01 -1.0363388e-04
      outer loop
         vertex 3.0457624e-02 1.3339745e+00 2.7120001e+01
         vertex 3.6289995e-02 1.3567433e+00 1.0000000e-06
         vertex 1.0000000e-06 1.0811010e+00 1.0000000e-06
      endloop
   endfacet
   facet normal -9.9282482e-01 1.1957794e-01 -1.9580853e-18
      outer loop
         vertex 3.0457624e-02 1.3339745e+00 2.7120001e+01
         vertex 1.0000000e-06 1.0811010e+00 1.0000000e-06
         vertex 1.0000000e-06 1.0811010e+00 2.7120001e+01
      endloop
   endfacet
   facet normal -9.9282482e-01 -1.1957794e-01 1.9580853e-18
      outer loop
         vertex 1.0000000e-06 1.0811010e+00 2.7120001e+01
         vertex 1.0000000e-06 1.0811010e+00 1.0000000e-06
         vertex 3.0457624e-02 8.2822751e-01 2.7120001e+01
      endloop
   endfacet
   facet normal -9.9144486e-01 -1.3052619e-01 -1.0363388e-04
      outer loop
         vertex 3.0457624e-02 8.2822751e-01 2.7120001e+01
         vertex 1.0000000e-06 1.0811010e+00 1.0000000e-06
         vertex 3.6289995e-02 8.0545872e-01 1.0000000e-06
      endloop
   endfacet
   facet normal -9.3603966e-01 -3.5189450e-01 9.4132808e-05
      outer loop
         vertex 3.0457624e-02 8.2822751e-01 2.7120001e+01
         vertex 3.6289995e-02 8.0545872e-01 1.0000000e-06
         vertex 1.2008551e-01 5.8981725e-01 2.7120001e+01
      endloop
   endfacet
   facet normal -9.2387952e-01 -3.8268343e-01 -1.8825415e-04
      outer loop
         vertex 1.2008551e-01 5.8981725e-01 2.7120001e+01
         vertex 3.6289995e-02 8.0545872e-01 1.0000000e-06
         vertex 1.4268394e-01 5.4860100e-01 1.0000000e-06
      endloop
   endfacet
   facet normal -8.2571721e-01 -5.6408426e-01 1.6923024e-04
      outer loop
         vertex 1.2008551e-01 5.8981725e-01 2.7120001e+01
         vertex 1.4268394e-01 5.4860100e-01 1.0000000e-06
         vertex 2.6375835e-01 3.7950623e-01 2.7120001e+01
      endloop
   endfacet
   facet normal -7.9335331e-01 -6.0876141e-01 -2.5381960e-04
      outer loop
         vertex 2.6375835e-01 3.7950623e-01 2.7120001e+01
         vertex 1.4268394e-01 5.4860100e-01 1.0000000e-06
         vertex 3.1193228e-01 3.2803228e-01 1.0000000e-06
      endloop
   endfacet
   facet normal -6.6816743e-01 -7.4401091e-01 2.2525573e-04
      outer loop
         vertex 2.6375835e-01 3.7950623e-01 2.7120001e+01
         vertex 3.1193228e-01 3.2803228e-01 1.0000000e-06
         vertex 4.5325869e-01 2.0932331e-01 2.7120001e+01
      endloop
   endfacet
   facet normal -6.0876140e-01 -7.9335330e-01 -3.0029830e-04
      outer loop
         vertex 4.5325869e-01 2.0932331e-01 2.7120001e+01
         vertex 3.1193228e-01 3.2803228e-01 1.0000000e-06
         vertex 5.3250100e-01 1.5878394e-01 1.0000000e-06
      endloop
   endfacet
   facet normal -4.7241350e-01 -8.8137700e-01 2.6213474e-04
      outer loop
         vertex 4.5325869e-01 2.0932331e-01 2.7120001e+01
         vertex 5.3250100e-01 1.5878394e-01 1.0000000e-06
         vertex 6.7772084e-01 8.9012758e-02 2.7120001e+01
      endloop
   endfacet
   facet normal -3.8268341e-01 -9.2387948e-01 -3.2768965e-04
      outer loop
         vertex 6.7772084e-01 8.9012758e-02 2.7120001e+01
         vertex 5.3250100e-01 1.5878394e-01 1.0000000e-06
         vertex 7.8935872e-01 5.2389995e-02 1.0000000e-06
      endloop
   endfacet
   facet normal -2.4965593e-01 -9.6833457e-01 2.7994211e-04
      outer loop
         vertex 6.7772084e-01 8.9012758e-02 2.7120001e+01
         vertex 7.8935872e-01 5.2389995e-02 1.0000000e-06
         vertex 9.2432866e-01 2.5432353e-02 2.7120001e+01
      endloop
   endfacet
   facet normal -1.3052618e-01 -9.9144481e-01 -3.3591086e-04
      outer loop
         vertex 9.2432866e-01 2.5432353e-02 2.7120001e+01
         vertex 7.8935872e-01 5.2389995e-02 1.0000000e-06
         vertex 1.0650010e+00 1.6101000e-02 1.0000000e-06
      endloop
   endfacet
   facet normal -1.2622403e-02 -9.9992030e-01 2.7857617e-04
      outer loop
         vertex 9.2432866e-01 2.5432353e-02 2.7120001e+01
         vertex 1.0650010e+00 1.6101000e-02 1.0000000e-06
         vertex 1.1789805e+00 2.2217778e-02 2.7120001e+01
      endloop
   endfacet
   facet normal 1.3052619e-01 -9.9144481e-01 -3.2495793e-04
      outer loop
         vertex 1.1789805e+00 2.2217778e-02 2.7120001e+01
         vertex 1.0650010e+00 1.6101000e-02 1.0000000e-06
         vertex 1.3406433e+00 5.2389995e-02 1.0000000e-06
      endloop
   endfacet
   facet normal 2.2513291e-01 -9.7432803e-01 2.5803759e-04
      outer loop
         vertex 1.1789805e+00 2.2217778e-02 2.7120001e+01
         vertex 1.3406433e+00 5.2389995e-02 1.0000000e-06
         vertex 1.4271147e+00 7.9552853e-02 2.7120001e+01
      endloop
   endfacet
   facet normal 3.8268342e-01 -9.2387949e-01 -2.9483621e-04
      outer loop
         vertex 1.4271147e+00 7.9552853e-02 2.7120001e+01
         vertex 1.3406433e+00 5.2389995e-02 1.0000000e-06
         vertex 1.5975010e+00 1.5878394e-01 1.0000000e-06
      endloop
   endfacet
   facet normal 4.5001455e-01 -8.9302120e-01 2.1833639e-04
      outer loop
         vertex 1.4271147e+00 7.9552853e-02 2.7120001e+01
         vertex 1.5975010e+00 1.5878394e-01 1.0000000e-06
         vertex 1.6545423e+00 1.9415901e-01 2.7120001e+01
      endloop
   endfacet
   facet normal 6.0876141e-01 -7.9335332e-01 -2.4556039e-04
      outer loop
         vertex 1.6545423e+00 1.9415901e-01 2.7120001e+01
         vertex 1.5975010e+00 1.5878394e-01 1.0000000e-06
         vertex 1.8180697e+00 3.2803228e-01 1.0000000e-06
      endloop
   endfacet
   facet normal 6.4916321e-01 -7.6064913e-01 1.5949196e-04
      outer loop
         vertex 1.6545423e+00 1.9415901e-01 2.7120001e+01
         vertex 1.8180697e+00 3.2803228e-01 1.0000000e-06
         vertex 1.8482584e+00 3.5948278e-01 2.7120001e+01
      endloop
   endfacet
   facet normal 7.9335333e-01 -6.0876142e-01 -1.7715453e-04
      outer loop
         vertex 1.8482584e+00 3.5948278e-01 2.7120001e+01
         vertex 1.8180697e+00 3.2803228e-01 1.0000000e-06
         vertex 1.9873181e+00 5.4860100e-01 1.0000000e-06
      endloop
   endfacet
   facet normal 8.1119106e-01 -5.8478120e-01 8.1533025e-05
      outer loop
         vertex 1.8482584e+00 3.5948278e-01 2.7120001e+01
         vertex 1.9873181e+00 5.4860100e-01 1.0000000e-06
         vertex 1.9971859e+00 5.6607052e-01 2.7120001e+01
      endloop
   endfacet
   facet normal 9.2387953e-01 -3.8268343e-01 -8.9652036e-05
      outer loop
         vertex 1.9971859e+00 5.6607052e-01 2.7120001e+01
         vertex 1.9873181e+00 5.4860100e-01 1.0000000e-06
         vertex 2.0937120e+00 8.0545872e-01 1.0000000e-06
      endloop
   endfacet
   facet normal 9.2683294e-01 -3.7547398e-01 -1.5502348e-05
      outer loop
         vertex 1.9971859e+00 5.6607052e-01 2.7120001e+01
         vertex 2.0937120e+00 8.0545872e-01 1.0000000e-06
         vertex 2.0928086e+00 8.0210902e-01 2.7120001e+01
      endloop
   endfacet
   facet normal 9.8947613e-01 -1.4469619e-01 1.5088599e-05
      outer loop
         vertex 2.0928086e+00 8.0210902e-01 2.7120001e+01
         vertex 2.0937120e+00 8.0545872e-01 1.0000000e-06
         vertex 2.1296587e+00 1.0541010e+00 2.7120001e+01
      endloop
   endfacet
   facet normal 9.9144485e-01 -1.3052619e-01 -1.1743463e-04
      outer loop
         vertex 2.1296587e+00 1.0541010e+00 2.7120001e+01
         vertex 2.0937120e+00 8.0545872e-01 1.0000000e-06
         vertex 2.1300010e+00 1.0811010e+00 1.0000000e-06
      endloop
   endfacet
   facet normal 9.9985714e-01 -1.6902415e-02 -4.2074322e-06
      outer loop
         vertex 2.1296587e+00 1.0541010e+00 2.7120001e+01
         vertex 2.1300010e+00 1.0811010e+00 1.0000000e-06
         vertex 2.1299630e+00 1.0721001e+00 2.7120001e+01
      endloop
   endfacet
   facet normal 0.0000000e+00 0.0000000e+00 -1.0000000e+00
      outer loop
         vertex 1.8676757e+00 4.1980426e-01 1.0000000e-06
         vertex 1.8180697e+00 3.2803228e-01 1.0000000e-06
         vertex 1.6781894e+00 2.4110100e-01 1.0000000e-06
      endloop
   endfacet
   facet normal 0.0000000e+00 -0.0000000e+00 -1.0000000e+00
      outer loop
         vertex 1.6781894e+00 2.4110100e-01 1.0000000e-06
         vertex 1.8180697e+00 3.2803228e-01 1.0000000e-06
         vertex 1.5975010e+00 1.5878394e-01 1.0000000e-06
      endloop
   endfacet
   facet normal 0.0000000e+00 0.0000000e+00 -1.0000000e+00
      outer loop
         vertex 1.6781894e+00 2.4110100e-01 1.0000000e-06
         vertex 1.5975010e+00 1.5878394e-01 1.0000000e-06
         vertex 1.3406433e+00 5.2389995e-02 1.0000000e-06
      endloop
   endfacet
   facet normal 0.0000000e+00 0.0000000e+00 -1.0000000e+00
      outer loop
         vertex 1.8180697e+00 3.2803228e-01 1.0000000e-06
         vertex 1.8676757e+00 4.1980426e-01 1.0000000e-06
         vertex 1.9873181e+00 5.4860100e-01 1.0000000e-06
      endloop
   endfacet
   facet normal -0.0000000e+00 0.0000000e+00 -1.0000000e+00
      outer loop
         vertex 1.9873181e+00 5.4860100e-01 1.0000000e-06
         vertex 1.8676757e+00 4.1980426e-01 1.0000000e-06
         vertex 2.0068167e+00 6.3998525e-01 1.0000000e-06
      endloop
   endfacet
   facet normal 0.0000000e+00 0.0000000e+00 -1.0000000e+00
      outer loop
         vertex 1.9873181e+00 5.4860100e-01 1.0000000e-06
         vertex 2.0068167e+00 6.3998525e-01 1.0000000e-06
         vertex 2.0937120e+00 8.0545872e-01 1.0000000e-06
      endloop
   endfacet
   facet normal -0.0000000e+00 0.0000000e+00 -1.0000000e+00
      outer loop
         vertex 2.0937120e+00 8.0545872e-01 1.0000000e-06
         vertex 2.0068167e+00 6.3998525e-01 1.0000000e-06
         vertex 2.0868854e+00 8.8783381e-01 1.0000000e-06
      endloop
   endfacet
   facet normal 0.0000000e+00 0.0000000e+00 -1.0000000e+00
      outer loop
         vertex 2.0937120e+00 8.0545872e-01 1.0000000e-06
         vertex 2.0868854e+00 8.8783381e-01 1.0000000e-06
         vertex 2.1300010e+00 1.0811010e+00 1.0000000e-06
      endloop
   endfacet
   facet normal -0.0000000e+00 0.0000000e+00 -1.0000000e+00
      outer loop
         vertex 2.1300010e+00 1.0811010e+00 1.0000000e-06
         vertex 2.0868854e+00 8.8783381e-01 1.0000000e-06
         vertex 2.1028597e+00 1.1478044e+00 1.0000000e-06
      endloop
   endfacet
   facet normal 0.0000000e+00 0.0000000e+00 -1.0000000e+00
      outer loop
         vertex 2.1300010e+00 1.0811010e+00 1.0000000e-06
         vertex 2.1028597e+00 1.1478044e+00 1.0000000e-06
         vertex 2.0937120e+00 1.3567433e+00 1.0000000e-06
      endloop
   endfacet
   facet normal -0.0000000e+00 -0.0000000e+00 -1.0000000e+00
      outer loop
         vertex 2.0937120e+00 1.3567433e+00 1.0000000e-06
         vertex 2.1028597e+00 1.1478044e+00 1.0000000e-06
         vertex 2.0537376e+00 1.4035913e+00 1.0000000e-06
      endloop
   endfacet
   facet normal 0.0000000e+00 0.0000000e+00 -1.0000000e+00
      outer loop
         vertex 2.0937120e+00 1.3567433e+00 1.0000000e-06
         vertex 2.0537376e+00 1.4035913e+00 1.0000000e-06
         vertex 1.9873181e+00 1.6136010e+00 1.0000000e-06
      endloop
   endfacet
   facet normal -0.0000000e+00 -0.0000000e+00 -1.0000000e+00
      outer loop
         vertex 1.9873181e+00 1.6136010e+00 1.0000000e-06
         vertex 2.0537376e+00 1.4035913e+00 1.0000000e-06
         vertex 1.9426001e+00 1.6391510e+00 1.0000000e-06
      endloop
   endfacet
   facet normal 0.0000000e+00 0.0000000e+00 -1.0000000e+00
      outer loop
         vertex 1.9873181e+00 1.6136010e+00 1.0000000e-06
         vertex 1.9426001e+00 1.6391510e+00 1.0000000e-06
         vertex 1.8180697e+00 1.8341697e+00 1.0000000e-06
      endloop
   endfacet
   facet normal -0.0000000e+00 -0.0000000e+00 -1.0000000e+00
      outer loop
         vertex 1.8180697e+00 1.8341697e+00 1.0000000e-06
         vertex 1.9426001e+00 1.6391510e+00 1.0000000e-06
         vertex 1.7764180e+00 1.8397088e+00 1.0000000e-06
      endloop
   endfacet
   facet normal 0.0000000e+00 0.0000000e+00 -1.0000000e+00
      outer loop
         vertex 1.8180697e+00 1.8341697e+00 1.0000000e-06
         vertex 1.7764180e+00 1.8397088e+00 1.0000000e-06
         vertex 1.5975010e+00 2.0034181e+00 1.0000000e-06
      endloop
   endfacet
   facet normal -0.0000000e+00 -0.0000000e+00 -1.0000000e+00
      outer loop
         vertex 1.5975010e+00 2.0034181e+00 1.0000000e-06
         vertex 1.7764180e+00 1.8397088e+00 1.0000000e-06
         vertex 1.5656146e+00 1.9926853e+00 1.0000000e-06
      endloop
   endfacet
   facet normal -0.0000000e+00 0.0000000e+00 -1.0000000e+00
      outer loop
         vertex 1.5975010e+00 2.0034181e+00 1.0000000e-06
         vertex 1.5656146e+00 1.9926853e+00 1.0000000e-06
         vertex 1.3406433e+00 2.1098120e+00 1.0000000e-06
      endloop
   endfacet
   facet normal -0.0000000e+00 -0.0000000e+00 -1.0000000e+00
      outer loop
         vertex 1.3406433e+00 2.1098120e+00 1.0000000e-06
         vertex 1.5656146e+00 1.9926853e+00 1.0000000e-06
         vertex 1.3234118e+00 2.0884857e+00 1.0000000e-06
      endloop
   endfacet
   facet normal -0.0000000e+00 0.0000000e+00 -1.0000000e+00
      outer loop
         vertex 1.3406433e+00 2.1098120e+00 1.0000000e-06
         vertex 1.3234118e+00 2.0884857e+00 1.0000000e-06
         vertex 1.0650010e+00 2.1461010e+00 1.0000000e-06
      endloop
   endfacet
   facet normal -0.0000000e+00 -0.0000000e+00 -1.0000000e+00
      outer loop
         vertex 1.0650010e+00 2.1461010e+00 1.0000000e-06
         vertex 1.3234118e+00 2.0884857e+00 1.0000000e-06
         vertex 1.0650010e+00 2.1211010e+00 1.0000000e-06
      endloop
   endfacet
   facet normal 0.0000000e+00 -0.0000000e+00 -1.0000000e+00
      outer loop
         vertex 1.0650010e+00 2.1461010e+00 1.0000000e-06
         vertex 1.0650010e+00 2.1211010e+00 1.0000000e-06
         vertex 8.0659019e-01 2.0884857e+00 1.0000000e-06
      endloop
   endfacet
   facet normal -0.0000000e+00 0.0000000e+00 -1.0000000e+00
      outer loop
         vertex 1.0650010e+00 2.1461010e+00 1.0000000e-06
         vertex 8.0659019e-01 2.0884857e+00 1.0000000e-06
         vertex 7.8935872e-01 2.1098120e+00 1.0000000e-06
      endloop
   endfacet
   facet normal 0.0000000e+00 -0.0000000e+00 -1.0000000e+00
      outer loop
         vertex 7.8935872e-01 2.1098120e+00 1.0000000e-06
         vertex 8.0659019e-01 2.0884857e+00 1.0000000e-06
         vertex 5.6438738e-01 1.9926853e+00 1.0000000e-06
      endloop
   endfacet
   facet normal -0.0000000e+00 0.0000000e+00 -1.0000000e+00
      outer loop
         vertex 7.8935872e-01 2.1098120e+00 1.0000000e-06
         vertex 5.6438738e-01 1.9926853e+00 1.0000000e-06
         vertex 5.3250100e-01 2.0034181e+00 1.0000000e-06
      endloop
   endfacet
   facet normal 0.0000000e+00 -0.0000000e+00 -1.0000000e+00
      outer loop
         vertex 5.3250100e-01 2.0034181e+00 1.0000000e-06
         vertex 5.6438738e-01 1.9926853e+00 1.0000000e-06
         vertex 3.5358396e-01 1.8397088e+00 1.0000000e-06
      endloop
   endfacet
   facet normal 0.0000000e+00 0.0000000e+00 -1.0000000e+00
      outer loop
         vertex 5.3250100e-01 2.0034181e+00 1.0000000e-06
         vertex 3.5358396e-01 1.8397088e+00 1.0000000e-06
         vertex 3.1193228e-01 1.8341697e+00 1.0000000e-06
      endloop
   endfacet
   facet normal 0.0000000e+00 -0.0000000e+00 -1.0000000e+00
      outer loop
         vertex 3.1193228e-01 1.8341697e+00 1.0000000e-06
         vertex 3.5358396e-01 1.8397088e+00 1.0000000e-06
         vertex 1.8740189e-01 1.6391510e+00 1.0000000e-06
      endloop
   endfacet
   facet normal 0.0000000e+00 0.0000000e+00 -1.0000000e+00
      outer loop
         vertex 3.1193228e-01 1.8341697e+00 1.0000000e-06
         vertex 1.8740189e-01 1.6391510e+00 1.0000000e-06
         vertex 1.4268394e-01 1.6136010e+00 1.0000000e-06
      endloop
   endfacet
   facet normal 0.0000000e+00 -0.0000000e+00 -1.0000000e+00
      outer loop
         vertex 1.4268394e-01 1.6136010e+00 1.0000000e-06
         vertex 1.8740189e-01 1.6391510e+00 1.0000000e-06
         vertex 7.6264432e-02 1.4035913e+00 1.0000000e-06
      endloop
   endfacet
   facet normal 0.0000000e+00 0.0000000e+00 -1.0000000e+00
      outer loop
         vertex 1.4268394e-01 1.6136010e+00 1.0000000e-06
         vertex 7.6264432e-02 1.4035913e+00 1.0000000e-06
         vertex 3.6289995e-02 1.3567433e+00 1.0000000e-06
      endloop
   endfacet
   facet normal 0.0000000e+00 -0.0000000e+00 -1.0000000e+00
      outer loop
         vertex 3.6289995e-02 1.3567433e+00 1.0000000e-06
         vertex 7.6264432e-02 1.4035913e+00 1.0000000e-06
         vertex 2.7142314e-02 1.1478044e+00 1.0000000e-06
      endloop
   endfacet
   facet normal 0.0000000e+00 0.0000000e+00 -1.0000000e+00
      outer loop
         vertex 3.6289995e-02 1.3567433e+00 1.0000000e-06
         vertex 2.7142314e-02 1.1478044e+00 1.0000000e-06
         vertex 1.0000000e-06 1.0811010e+00 1.0000000e-06
      endloop
   endfacet
   facet normal 0.0000000e+00 0.0000000e+00 -1.0000000e+00
      outer loop
         vertex 1.0000000e-06 1.0811010e+00 1.0000000e-06
         vertex 2.7142314e-02 1.1478044e+00 1.0000000e-06
         vertex 4.3116568e-02 8.8783381e-01 1.0000000e-06
      endloop
   endfacet
   facet normal 0.0000000e+00 -0.0000000e+00 -1.0000000e+00
      outer loop
         vertex 1.0000000e-06 1.0811010e+00 1.0000000e-06
         vertex 4.3116568e-02 8.8783381e-01 1.0000000e-06
         vertex 3.6289995e-02 8.0545872e-01 1.0000000e-06
      endloop
   endfacet
   facet normal 0.0000000e+00 0.0000000e+00 -1.0000000e+00
      outer loop
         vertex 3.6289995e-02 8.0545872e-01 1.0000000e-06
         vertex 4.3116568e-02 8.8783381e-01 1.0000000e-06
         vertex 1.2318526e-01 6.3998525e-01 1.0000000e-06
      endloop
   endfacet
   facet normal 0.0000000e+00 0.0000000e+00 -1.0000000e+00
      outer loop
         vertex 3.6289995e-02 8.0545872e-01 1.0000000e-06
         vertex 1.2318526e-01 6.3998525e-01 1.0000000e-06
         vertex 1.4268394e-01 5.4860100e-01 1.0000000e-06
      endloop
   endfacet
   facet normal 0.0000000e+00 0.0000000e+00 -1.0000000e+00
      outer loop
         vertex 1.4268394e-01 5.4860100e-01 1.0000000e-06
         vertex 1.2318526e-01 6.3998525e-01 1.0000000e-06
         vertex 2.6232633e-01 4.1980426e-01 1.0000000e-06
      endloop
   endfacet
   facet normal 0.0000000e+00 0.0000000e+00 -1.0000000e+00
      outer loop
         vertex 1.4268394e-01 5.4860100e-01 1.0000000e-06
         vertex 2.6232633e-01 4.1980426e-01 1.0000000e-06
         vertex 3.1193228e-01 3.2803228e-01 1.0000000e-06
      endloop
   endfacet
   facet normal 0.0000000e+00 0.0000000e+00 -1.0000000e+00
      outer loop
         vertex 3.1193228e-01 3.2803228e-01 1.0000000e-06
         vertex 2.6232633e-01 4.1980426e-01 1.0000000e-06
         vertex 4.5181261e-01 2.4110100e-01 1.0000000e-06
      endloop
   endfacet
   facet normal 0.0000000e+00 0.0000000e+00 -1.0000000e+00
      outer loop
         vertex 3.1193228e-01 3.2803228e-01 1.0000000e-06
         vertex 4.5181261e-01 2.4110100e-01 1.0000000e-06
         vertex 5.3250100e-01 1.5878394e-01 1.0000000e-06
      endloop
   endfacet
   facet normal 0.0000000e+00 0.0000000e+00 -1.0000000e+00
      outer loop
         vertex 5.3250100e-01 1.5878394e-01 1.0000000e-06
         vertex 4.5181261e-01 2.4110100e-01 1.0000000e-06
         vertex 7.8935872e-01 5.2389995e-02 1.0000000e-06
      endloop
   endfacet
   facet normal 0.0000000e+00 0.0000000e+00 -1.0000000e+00
      outer loop
         vertex 7.8935872e-01 5.2389995e-02 1.0000000e-06
         vertex 4.5181261e-01 2.4110100e-01 1.0000000e-06
         vertex 1.6781894e+00 2.4110100e-01 1.0000000e-06
      endloop
   endfacet
   facet normal 0.0000000e+00 -0.0000000e+00 -1.0000000e+00
      outer loop
         vertex 7.8935872e-01 5.2389995e-02 1.0000000e-06
         vertex 1.6781894e+00 2.4110100e-01 1.0000000e-06
         vertex 1.0650010e+00 1.6101000e-02 1.0000000e-06
      endloop
   endfacet
   facet normal 0.0000000e+00 -0.0000000e+00 -1.0000000e+00
      outer loop
         vertex 1.0650010e+00 1.6101000e-02 1.0000000e-06
         vertex 1.6781894e+00 2.4110100e-01 1.0000000e-06
         vertex 1.3406433e+00 5.2389995e-02 1.0000000e-06
      endloop
   endfacet
   facet normal 0.0000000e+00 0.0000000e+00 1.0000000e+00
      outer loop
         vertex 4.5325869e-01 2.4110100e-01 2.7120001e+01
         vertex 4.5181261e-01 2.4110100e-01 2.7120001e+01
         vertex 4.5325869e-01 2.0932331e-01 2.7120001e+01
      endloop
   endfacet
   facet normal 0.0000000e+00 0.0000000e+00 1.0000000e+00
      outer loop
         vertex 4.5325869e-01 2.0932331e-01 2.7120001e+01
         vertex 4.5181261e-01 2.4110100e-01 2.7120001e+01
         vertex 2.7289509e-01 4.0718096e-01 2.7120001e+01
      endloop
   endfacet
   facet normal 0.0000000e+00 0.0000000e+00 1.0000000e+00
      outer loop
         vertex 4.5325869e-01 2.0932331e-01 2.7120001e+01
         vertex 2.7289509e-01 4.0718096e-01 2.7120001e+01
         vertex 2.6375835e-01 3.7950623e-01 2.7120001e+01
      endloop
   endfacet
   facet normal 0.0000000e+00 -0.0000000e+00 1.0000000e+00
      outer loop
         vertex 2.6375835e-01 3.7950623e-01 2.7120001e+01
         vertex 2.7289509e-01 4.0718096e-01 2.7120001e+01
         vertex 1.3762104e-01 6.1039259e-01 2.7120001e+01
      endloop
   endfacet
   facet normal 0.0000000e+00 0.0000000e+00 1.0000000e+00
      outer loop
         vertex 2.6375835e-01 3.7950623e-01 2.7120001e+01
         vertex 1.3762104e-01 6.1039259e-01 2.7120001e+01
         vertex 1.2008551e-01 5.8981725e-01 2.7120001e+01
      endloop
   endfacet
   facet normal 0.0000000e+00 -0.0000000e+00 1.0000000e+00
      outer loop
         vertex 1.2008551e-01 5.8981725e-01 2.7120001e+01
         vertex 1.3762104e-01 6.1039259e-01 2.7120001e+01
         vertex 5.3443807e-02 8.3953932e-01 2.7120001e+01
      endloop
   endfacet
   facet normal 0.0000000e+00 0.0000000e+00 1.0000000e+00
      outer loop
         vertex 1.2008551e-01 5.8981725e-01 2.7120001e+01
         vertex 5.3443807e-02 8.3953932e-01 2.7120001e+01
         vertex 3.0457624e-02 8.2822751e-01 2.7120001e+01
      endloop
   endfacet
   facet normal 0.0000000e+00 -0.0000000e+00 1.0000000e+00
      outer loop
         vertex 3.0457624e-02 8.2822751e-01 2.7120001e+01
         vertex 5.3443807e-02 8.3953932e-01 2.7120001e+01
         vertex 2.5001385e-02 1.0819956e+00 2.7120001e+01
      endloop
   endfacet
   facet normal 0.0000000e+00 0.0000000e+00 1.0000000e+00
      outer loop
         vertex 3.0457624e-02 8.2822751e-01 2.7120001e+01
         vertex 2.5001385e-02 1.0819956e+00 2.7120001e+01
         vertex 1.0000000e-06 1.0811010e+00 2.7120001e+01
      endloop
   endfacet
   facet normal 0.0000000e+00 0.0000000e+00 1.0000000e+00
      outer loop
         vertex 1.0000000e-06 1.0811010e+00 2.7120001e+01
         vertex 2.5001385e-02 1.0819956e+00 2.7120001e+01
         vertex 3.0457624e-02 1.3339745e+00 2.7120001e+01
      endloop
   endfacet
   facet normal -0.0000000e+00 0.0000000e+00 1.0000000e+00
      outer loop
         vertex 3.0457624e-02 1.3339745e+00 2.7120001e+01
         vertex 2.5001385e-02 1.0819956e+00 2.7120001e+01
         vertex 5.3860897e-02 1.3244026e+00 2.7120001e+01
      endloop
   endfacet
   facet normal -0.0000000e+00 0.0000000e+00 1.0000000e+00
      outer loop
         vertex 3.0457624e-02 1.3339745e+00 2.7120001e+01
         vertex 5.3860897e-02 1.3244026e+00 2.7120001e+01
         vertex 1.2008551e-01 1.5723847e+00 2.7120001e+01
      endloop
   endfacet
   facet normal -0.0000000e+00 0.0000000e+00 1.0000000e+00
      outer loop
         vertex 1.2008551e-01 1.5723847e+00 2.7120001e+01
         vertex 5.3860897e-02 1.3244026e+00 2.7120001e+01
         vertex 1.3843224e-01 1.5534042e+00 2.7120001e+01
      endloop
   endfacet
   facet normal -0.0000000e+00 0.0000000e+00 1.0000000e+00
      outer loop
         vertex 1.2008551e-01 1.5723847e+00 2.7120001e+01
         vertex 1.3843224e-01 1.5534042e+00 2.7120001e+01
         vertex 2.6375835e-01 1.7826958e+00 2.7120001e+01
      endloop
   endfacet
   facet normal -0.0000000e+00 0.0000000e+00 1.0000000e+00
      outer loop
         vertex 2.6375835e-01 1.7826958e+00 2.7120001e+01
         vertex 1.3843224e-01 1.5534042e+00 2.7120001e+01
         vertex 2.7405570e-01 1.7563828e+00 2.7120001e+01
      endloop
   endfacet
   facet normal -0.0000000e+00 0.0000000e+00 1.0000000e+00
      outer loop
         vertex 2.6375835e-01 1.7826958e+00 2.7120001e+01
         vertex 2.7405570e-01 1.7563828e+00 2.7120001e+01
         vertex 4.5325869e-01 1.9528787e+00 2.7120001e+01
      endloop
   endfacet
   facet normal -0.0000000e+00 0.0000000e+00 1.0000000e+00
      outer loop
         vertex 4.5325869e-01 1.9528787e+00 2.7120001e+01
         vertex 2.7405570e-01 1.7563828e+00 2.7120001e+01
         vertex 4.5325869e-01 1.9221547e+00 2.7120001e+01
      endloop
   endfacet
endsolid AutoCAD
