solid AutoCAD
   facet normal 9.0528706e-17 1.0000000e+00 0.0000000e+00
      outer loop
         vertex 1.6781894e+00 2.2500100e-01 1.5194000e+00
         vertex 4.5181261e-01 2.2500100e-01 1.5194000e+00
         vertex 1.6781894e+00 2.2500100e-01 2.8639400e+01
      endloop
   endfacet
   facet normal 9.0528706e-17 1.0000000e+00 -0.0000000e+00
      outer loop
         vertex 1.6781894e+00 2.2500100e-01 2.8639400e+01
         vertex 4.5181261e-01 2.2500100e-01 1.5194000e+00
         vertex 4.5181261e-01 2.2500100e-01 2.8639400e+01
      endloop
   endfacet
   facet normal 6.5110411e-01 7.5898843e-01 0.0000000e+00
      outer loop
         vertex 4.5181261e-01 2.2500100e-01 2.8639400e+01
         vertex 4.5181261e-01 2.2500100e-01 1.5194000e+00
         vertex 3.2806023e-01 3.3116294e-01 2.8639400e+01
      endloop
   endfacet
   facet normal 6.5110411e-01 7.5898843e-01 0.0000000e+00
      outer loop
         vertex 3.2806023e-01 3.3116294e-01 2.8639400e+01
         vertex 4.5181261e-01 2.2500100e-01 1.5194000e+00
         vertex 3.2806023e-01 3.3116294e-01 1.5194000e+00
      endloop
   endfacet
   facet normal 7.6172877e-01 6.4789604e-01 0.0000000e+00
      outer loop
         vertex 3.2806023e-01 3.3116294e-01 2.8639400e+01
         vertex 3.2806023e-01 3.3116294e-01 1.5194000e+00
         vertex 2.2242136e-01 4.5536214e-01 1.5194000e+00
      endloop
   endfacet
   facet normal 7.6172877e-01 6.4789604e-01 3.9066336e-18
      outer loop
         vertex 3.2806023e-01 3.3116294e-01 2.8639400e+01
         vertex 2.2242136e-01 4.5536214e-01 1.5194000e+00
         vertex 2.2242136e-01 4.5536214e-01 2.8639400e+01
      endloop
   endfacet
   facet normal 8.5363065e-01 5.2087879e-01 1.7808599e-19
      outer loop
         vertex 2.2242136e-01 4.5536214e-01 2.8639400e+01
         vertex 2.2242136e-01 4.5536214e-01 1.5194000e+00
         vertex 1.3749253e-01 5.9454585e-01 1.5194000e+00
      endloop
   endfacet
   facet normal 8.5363065e-01 5.2087879e-01 -0.0000000e+00
      outer loop
         vertex 2.2242136e-01 4.5536214e-01 2.8639400e+01
         vertex 1.3749253e-01 5.9454585e-01 1.5194000e+00
         vertex 1.3749253e-01 5.9454585e-01 2.8639400e+01
      endloop
   endfacet
   facet normal 9.2455085e-01 3.8105868e-01 0.0000000e+00
      outer loop
         vertex 1.3749253e-01 5.9454585e-01 2.8639400e+01
         vertex 1.3749253e-01 5.9454585e-01 1.5194000e+00
         vertex 7.5361257e-02 7.4529304e-01 1.5194000e+00
      endloop
   endfacet
   facet normal 9.2455085e-01 3.8105868e-01 -0.0000000e+00
      outer loop
         vertex 1.3749253e-01 5.9454585e-01 2.8639400e+01
         vertex 7.5361257e-02 7.4529304e-01 1.5194000e+00
         vertex 7.5361257e-02 7.4529304e-01 2.8639400e+01
      endloop
   endfacet
   facet normal 9.7274621e-01 2.3187241e-01 0.0000000e+00
      outer loop
         vertex 7.5361257e-02 7.4529304e-01 2.8639400e+01
         vertex 7.5361257e-02 7.4529304e-01 1.5194000e+00
         vertex 3.7554668e-02 9.0389844e-01 1.5194000e+00
      endloop
   endfacet
   facet normal 9.7274621e-01 2.3187241e-01 -0.0000000e+00
      outer loop
         vertex 7.5361257e-02 7.4529304e-01 2.8639400e+01
         vertex 3.7554668e-02 9.0389844e-01 1.5194000e+00
         vertex 3.7554668e-02 9.0389844e-01 2.8639400e+01
      endloop
   endfacet
   facet normal 9.9703211e-01 7.6986863e-02 0.0000000e+00
      outer loop
         vertex 3.7554668e-02 9.0389844e-01 2.8639400e+01
         vertex 3.7554668e-02 9.0389844e-01 1.5194000e+00
         vertex 2.5002029e-02 1.0664636e+00 1.5194000e+00
      endloop
   endfacet
   facet normal 9.9703211e-01 7.6986863e-02 -1.2606576e-18
      outer loop
         vertex 3.7554668e-02 9.0389844e-01 2.8639400e+01
         vertex 2.5002029e-02 1.0664636e+00 1.5194000e+00
         vertex 2.5002029e-02 1.0664636e+00 2.8639400e+01
      endloop
   endfacet
   facet normal 9.9681162e-01 -7.9790968e-02 1.3065748e-18
      outer loop
         vertex 2.5002029e-02 1.0664636e+00 2.8639400e+01
         vertex 2.5002029e-02 1.0664636e+00 1.5194000e+00
         vertex 3.8011875e-02 1.2289929e+00 1.5194000e+00
      endloop
   endfacet
   facet normal 9.9681162e-01 -7.9790968e-02 0.0000000e+00
      outer loop
         vertex 2.5002029e-02 1.0664636e+00 2.8639400e+01
         vertex 3.8011875e-02 1.2289929e+00 1.5194000e+00
         vertex 3.8011875e-02 1.2289929e+00 2.8639400e+01
      endloop
   endfacet
   facet normal 9.7209016e-01 -2.3460759e-01 0.0000000e+00
      outer loop
         vertex 3.8011875e-02 1.2289929e+00 2.8639400e+01
         vertex 3.8011875e-02 1.2289929e+00 1.5194000e+00
         vertex 7.6264432e-02 1.3874913e+00 1.5194000e+00
      endloop
   endfacet
   facet normal 9.7209016e-01 -2.3460759e-01 0.0000000e+00
      outer loop
         vertex 3.8011875e-02 1.2289929e+00 2.8639400e+01
         vertex 7.6264432e-02 1.3874913e+00 1.5194000e+00
         vertex 7.6264432e-02 1.3874913e+00 2.8639400e+01
      endloop
   endfacet
   facet normal 9.2347537e-01 -3.8365771e-01 0.0000000e+00
      outer loop
         vertex 7.6264432e-02 1.3874913e+00 2.8639400e+01
         vertex 7.6264432e-02 1.3874913e+00 1.5194000e+00
         vertex 1.3881948e-01 1.5380631e+00 1.5194000e+00
      endloop
   endfacet
   facet normal 9.2347537e-01 -3.8365771e-01 0.0000000e+00
      outer loop
         vertex 7.6264432e-02 1.3874913e+00 2.8639400e+01
         vertex 1.3881948e-01 1.5380631e+00 1.5194000e+00
         vertex 1.3881948e-01 1.5380631e+00 2.8639400e+01
      endloop
   endfacet
   facet normal 8.5216217e-01 -5.2327779e-01 0.0000000e+00
      outer loop
         vertex 1.3881948e-01 1.5380631e+00 2.8639400e+01
         vertex 1.3881948e-01 1.5380631e+00 1.5194000e+00
         vertex 2.2413945e-01 1.6770074e+00 1.5194000e+00
      endloop
   endfacet
   facet normal 8.5216217e-01 -5.2327779e-01 0.0000000e+00
      outer loop
         vertex 1.3881948e-01 1.5380631e+00 2.8639400e+01
         vertex 2.2413945e-01 1.6770074e+00 1.5194000e+00
         vertex 2.2413945e-01 1.6770074e+00 2.8639400e+01
      endloop
   endfacet
   facet normal 7.5990338e-01 -6.5003604e-01 0.0000000e+00
      outer loop
         vertex 2.2413945e-01 1.6770074e+00 2.8639400e+01
         vertex 2.2413945e-01 1.6770074e+00 1.5194000e+00
         vertex 3.3012725e-01 1.8009090e+00 1.5194000e+00
      endloop
   endfacet
   facet normal 7.5990338e-01 -6.5003604e-01 0.0000000e+00
      outer loop
         vertex 2.2413945e-01 1.6770074e+00 2.8639400e+01
         vertex 3.3012725e-01 1.8009090e+00 1.5194000e+00
         vertex 3.3012725e-01 1.8009090e+00 2.8639400e+01
      endloop
   endfacet
   facet normal 6.4896668e-01 -7.6081683e-01 0.0000000e+00
      outer loop
         vertex 3.3012725e-01 1.8009090e+00 2.8639400e+01
         vertex 3.3012725e-01 1.8009090e+00 1.5194000e+00
         vertex 4.5417775e-01 1.9067224e+00 1.5194000e+00
      endloop
   endfacet
   facet normal 6.4896668e-01 -7.6081683e-01 0.0000000e+00
      outer loop
         vertex 3.3012725e-01 1.8009090e+00 2.8639400e+01
         vertex 4.5417775e-01 1.9067224e+00 1.5194000e+00
         vertex 4.5417775e-01 1.9067224e+00 2.8639400e+01
      endloop
   endfacet
   facet normal 5.2207880e-01 -8.5289725e-01 0.0000000e+00
      outer loop
         vertex 4.5417775e-01 1.9067224e+00 2.8639400e+01
         vertex 4.5417775e-01 1.9067224e+00 1.5194000e+00
         vertex 5.9324189e-01 1.9918469e+00 1.5194000e+00
      endloop
   endfacet
   facet normal 5.2207880e-01 -8.5289725e-01 0.0000000e+00
      outer loop
         vertex 4.5417775e-01 1.9067224e+00 2.8639400e+01
         vertex 5.9324189e-01 1.9918469e+00 1.5194000e+00
         vertex 5.9324189e-01 1.9918469e+00 2.8639400e+01
      endloop
   endfacet
   facet normal 3.8235858e-01 -9.2401403e-01 0.0000000e+00
      outer loop
         vertex 5.9324189e-01 1.9918469e+00 2.8639400e+01
         vertex 5.9324189e-01 1.9918469e+00 1.5194000e+00
         vertex 7.4390155e-01 2.0541901e+00 1.5194000e+00
      endloop
   endfacet
   facet normal 3.8235858e-01 -9.2401403e-01 0.0000000e+00
      outer loop
         vertex 5.9324189e-01 1.9918469e+00 2.8639400e+01
         vertex 7.4390155e-01 2.0541901e+00 1.5194000e+00
         vertex 7.4390155e-01 2.0541901e+00 2.8639400e+01
      endloop
   endfacet
   facet normal 2.3324023e-01 -9.7241915e-01 0.0000000e+00
      outer loop
         vertex 7.4390155e-01 2.0541901e+00 2.8639400e+01
         vertex 7.4390155e-01 2.0541901e+00 1.5194000e+00
         vertex 9.0245362e-01 2.0922197e+00 1.5194000e+00
      endloop
   endfacet
   facet normal 2.3324023e-01 -9.7241915e-01 0.0000000e+00
      outer loop
         vertex 7.4390155e-01 2.0541901e+00 2.8639400e+01
         vertex 9.0245362e-01 2.0922197e+00 1.5194000e+00
         vertex 9.0245362e-01 2.0922197e+00 2.8639400e+01
      endloop
   endfacet
   facet normal 7.8388993e-02 -9.9692285e-01 0.0000000e+00
      outer loop
         vertex 9.0245362e-01 2.0922197e+00 2.8639400e+01
         vertex 9.0245362e-01 2.0922197e+00 1.5194000e+00
         vertex 1.0650010e+00 2.1050010e+00 1.5194000e+00
      endloop
   endfacet
   facet normal 7.8388993e-02 -9.9692285e-01 0.0000000e+00
      outer loop
         vertex 9.0245362e-01 2.0922197e+00 2.8639400e+01
         vertex 1.0650010e+00 2.1050010e+00 1.5194000e+00
         vertex 1.0650010e+00 2.1050010e+00 2.8639400e+01
      endloop
   endfacet
   facet normal -7.8388993e-02 -9.9692285e-01 -0.0000000e+00
      outer loop
         vertex 1.0650010e+00 2.1050010e+00 2.8639400e+01
         vertex 1.0650010e+00 2.1050010e+00 1.5194000e+00
         vertex 1.2275484e+00 2.0922197e+00 1.5194000e+00
      endloop
   endfacet
   facet normal -7.8388993e-02 -9.9692285e-01 0.0000000e+00
      outer loop
         vertex 1.0650010e+00 2.1050010e+00 2.8639400e+01
         vertex 1.2275484e+00 2.0922197e+00 1.5194000e+00
         vertex 1.2275484e+00 2.0922197e+00 2.8639400e+01
      endloop
   endfacet
   facet normal -2.3324023e-01 -9.7241915e-01 -0.0000000e+00
      outer loop
         vertex 1.2275484e+00 2.0922197e+00 2.8639400e+01
         vertex 1.2275484e+00 2.0922197e+00 1.5194000e+00
         vertex 1.3861005e+00 2.0541901e+00 1.5194000e+00
      endloop
   endfacet
   facet normal -2.3324023e-01 -9.7241915e-01 0.0000000e+00
      outer loop
         vertex 1.2275484e+00 2.0922197e+00 2.8639400e+01
         vertex 1.3861005e+00 2.0541901e+00 1.5194000e+00
         vertex 1.3861005e+00 2.0541901e+00 2.8639400e+01
      endloop
   endfacet
   facet normal -3.8235858e-01 -9.2401403e-01 -0.0000000e+00
      outer loop
         vertex 1.3861005e+00 2.0541901e+00 2.8639400e+01
         vertex 1.3861005e+00 2.0541901e+00 1.5194000e+00
         vertex 1.5367601e+00 1.9918469e+00 1.5194000e+00
      endloop
   endfacet
   facet normal -3.8235858e-01 -9.2401403e-01 0.0000000e+00
      outer loop
         vertex 1.3861005e+00 2.0541901e+00 2.8639400e+01
         vertex 1.5367601e+00 1.9918469e+00 1.5194000e+00
         vertex 1.5367601e+00 1.9918469e+00 2.8639400e+01
      endloop
   endfacet
   facet normal -5.2207880e-01 -8.5289725e-01 -0.0000000e+00
      outer loop
         vertex 1.5367601e+00 1.9918469e+00 2.8639400e+01
         vertex 1.5367601e+00 1.9918469e+00 1.5194000e+00
         vertex 1.6758242e+00 1.9067224e+00 1.5194000e+00
      endloop
   endfacet
   facet normal -5.2207880e-01 -8.5289725e-01 0.0000000e+00
      outer loop
         vertex 1.5367601e+00 1.9918469e+00 2.8639400e+01
         vertex 1.6758242e+00 1.9067224e+00 1.5194000e+00
         vertex 1.6758242e+00 1.9067224e+00 2.8639400e+01
      endloop
   endfacet
   facet normal -6.4896668e-01 -7.6081683e-01 -0.0000000e+00
      outer loop
         vertex 1.6758242e+00 1.9067224e+00 2.8639400e+01
         vertex 1.6758242e+00 1.9067224e+00 1.5194000e+00
         vertex 1.7998748e+00 1.8009090e+00 1.5194000e+00
      endloop
   endfacet
   facet normal -6.4896668e-01 -7.6081683e-01 5.3134052e-18
      outer loop
         vertex 1.6758242e+00 1.9067224e+00 2.8639400e+01
         vertex 1.7998748e+00 1.8009090e+00 1.5194000e+00
         vertex 1.7998748e+00 1.8009090e+00 2.8639400e+01
      endloop
   endfacet
   facet normal -7.5990338e-01 -6.5003604e-01 6.2216979e-18
      outer loop
         vertex 1.7998748e+00 1.8009090e+00 2.8639400e+01
         vertex 1.7998748e+00 1.8009090e+00 1.5194000e+00
         vertex 1.9058625e+00 1.6770074e+00 1.5194000e+00
      endloop
   endfacet
   facet normal -7.5990338e-01 -6.5003604e-01 0.0000000e+00
      outer loop
         vertex 1.7998748e+00 1.8009090e+00 2.8639400e+01
         vertex 1.9058625e+00 1.6770074e+00 1.5194000e+00
         vertex 1.9058625e+00 1.6770074e+00 2.8639400e+01
      endloop
   endfacet
   facet normal -8.5216217e-01 -5.2327779e-01 -0.0000000e+00
      outer loop
         vertex 1.9058625e+00 1.6770074e+00 2.8639400e+01
         vertex 1.9058625e+00 1.6770074e+00 1.5194000e+00
         vertex 1.9911825e+00 1.5380631e+00 1.5194000e+00
      endloop
   endfacet
   facet normal -8.5216217e-01 -5.2327779e-01 4.2843292e-18
      outer loop
         vertex 1.9058625e+00 1.6770074e+00 2.8639400e+01
         vertex 1.9911825e+00 1.5380631e+00 1.5194000e+00
         vertex 1.9911825e+00 1.5380631e+00 2.8639400e+01
      endloop
   endfacet
   facet normal -9.2347537e-01 -3.8365771e-01 3.1411919e-18
      outer loop
         vertex 1.9911825e+00 1.5380631e+00 2.8639400e+01
         vertex 1.9911825e+00 1.5380631e+00 1.5194000e+00
         vertex 2.0537376e+00 1.3874913e+00 1.5194000e+00
      endloop
   endfacet
   facet normal -9.2347537e-01 -3.8365771e-01 0.0000000e+00
      outer loop
         vertex 1.9911825e+00 1.5380631e+00 2.8639400e+01
         vertex 2.0537376e+00 1.3874913e+00 1.5194000e+00
         vertex 2.0537376e+00 1.3874913e+00 2.8639400e+01
      endloop
   endfacet
   facet normal -9.7209016e-01 -2.3460759e-01 -0.0000000e+00
      outer loop
         vertex 2.0537376e+00 1.3874913e+00 2.8639400e+01
         vertex 2.0537376e+00 1.3874913e+00 1.5194000e+00
         vertex 2.0919901e+00 1.2289929e+00 1.5194000e+00
      endloop
   endfacet
   facet normal -9.7209016e-01 -2.3460759e-01 -1.9208462e-18
      outer loop
         vertex 2.0537376e+00 1.3874913e+00 2.8639400e+01
         vertex 2.0919901e+00 1.2289929e+00 1.5194000e+00
         vertex 2.0919901e+00 1.2289929e+00 2.8639400e+01
      endloop
   endfacet
   facet normal -9.9681162e-01 -7.9790968e-02 -6.5328739e-19
      outer loop
         vertex 2.0919901e+00 1.2289929e+00 2.8639400e+01
         vertex 2.0919901e+00 1.2289929e+00 1.5194000e+00
         vertex 2.1050000e+00 1.0664636e+00 1.5194000e+00
      endloop
   endfacet
   facet normal -9.9681162e-01 -7.9790968e-02 -1.3065748e-18
      outer loop
         vertex 2.0919901e+00 1.2289929e+00 2.8639400e+01
         vertex 2.1050000e+00 1.0664636e+00 1.5194000e+00
         vertex 2.1050000e+00 1.0664636e+00 2.8639400e+01
      endloop
   endfacet
   facet normal -9.9703211e-01 7.6986863e-02 1.2606576e-18
      outer loop
         vertex 2.1050000e+00 1.0664636e+00 2.8639400e+01
         vertex 2.1050000e+00 1.0664636e+00 1.5194000e+00
         vertex 2.0924473e+00 9.0389844e-01 1.5194000e+00
      endloop
   endfacet
   facet normal -9.9703211e-01 7.6986863e-02 -6.3032882e-19
      outer loop
         vertex 2.1050000e+00 1.0664636e+00 2.8639400e+01
         vertex 2.0924473e+00 9.0389844e-01 1.5194000e+00
         vertex 2.0924473e+00 9.0389844e-01 2.8639400e+01
      endloop
   endfacet
   facet normal -9.7274621e-01 2.3187241e-01 -1.8984520e-18
      outer loop
         vertex 2.0924473e+00 9.0389844e-01 2.8639400e+01
         vertex 2.0924473e+00 9.0389844e-01 1.5194000e+00
         vertex 2.0546407e+00 7.4529304e-01 1.5194000e+00
      endloop
   endfacet
   facet normal -9.7274621e-01 2.3187241e-01 0.0000000e+00
      outer loop
         vertex 2.0924473e+00 9.0389844e-01 2.8639400e+01
         vertex 2.0546407e+00 7.4529304e-01 1.5194000e+00
         vertex 2.0546407e+00 7.4529304e-01 2.8639400e+01
      endloop
   endfacet
   facet normal -9.2455085e-01 3.8105868e-01 0.0000000e+00
      outer loop
         vertex 2.0546407e+00 7.4529304e-01 2.8639400e+01
         vertex 2.0546407e+00 7.4529304e-01 1.5194000e+00
         vertex 1.9925095e+00 5.9454585e-01 1.5194000e+00
      endloop
   endfacet
   facet normal -9.2455085e-01 3.8105868e-01 -4.4498342e-18
      outer loop
         vertex 2.0546407e+00 7.4529304e-01 2.8639400e+01
         vertex 1.9925095e+00 5.9454585e-01 1.5194000e+00
         vertex 1.9925095e+00 5.9454585e-01 2.8639400e+01
      endloop
   endfacet
   facet normal -8.5363065e-01 5.2087879e-01 -2.7244010e-18
      outer loop
         vertex 1.9925095e+00 5.9454585e-01 2.8639400e+01
         vertex 1.9925095e+00 5.9454585e-01 1.5194000e+00
         vertex 1.9075806e+00 4.5536214e-01 1.5194000e+00
      endloop
   endfacet
   facet normal -8.5363065e-01 5.2087879e-01 5.4488020e-18
      outer loop
         vertex 1.9925095e+00 5.9454585e-01 2.8639400e+01
         vertex 1.9075806e+00 4.5536214e-01 1.5194000e+00
         vertex 1.9075806e+00 4.5536214e-01 2.8639400e+01
      endloop
   endfacet
   facet normal -7.6172877e-01 6.4789604e-01 1.8640077e-18
      outer loop
         vertex 1.9075806e+00 4.5536214e-01 2.8639400e+01
         vertex 1.9075806e+00 4.5536214e-01 1.5194000e+00
         vertex 1.8019418e+00 3.3116294e-01 1.5194000e+00
      endloop
   endfacet
   facet normal -7.6172877e-01 6.4789604e-01 -2.6523197e-18
      outer loop
         vertex 1.9075806e+00 4.5536214e-01 2.8639400e+01
         vertex 1.8019418e+00 3.3116294e-01 1.5194000e+00
         vertex 1.8019418e+00 3.3116294e-01 2.8639400e+01
      endloop
   endfacet
   facet normal -6.5110411e-01 7.5898843e-01 -3.1071034e-18
      outer loop
         vertex 1.8019418e+00 3.3116294e-01 2.8639400e+01
         vertex 1.8019418e+00 3.3116294e-01 1.5194000e+00
         vertex 1.6781894e+00 2.2500100e-01 2.8639400e+01
      endloop
   endfacet
   facet normal -6.5110411e-01 7.5898843e-01 0.0000000e+00
      outer loop
         vertex 1.6781894e+00 2.2500100e-01 2.8639400e+01
         vertex 1.8019418e+00 3.3116294e-01 1.5194000e+00
         vertex 1.6781894e+00 2.2500100e-01 1.5194000e+00
      endloop
   endfacet
   facet normal 9.9691733e-01 7.8459096e-02 -1.5682110e-17
      outer loop
         vertex 2.1168891e+00 1.2316037e+00 1.5194000e+00
         vertex 2.1168891e+00 1.2316037e+00 2.8639400e+01
         vertex 2.1300010e+00 1.0650010e+00 1.5194000e+00
      endloop
   endfacet
   facet normal 9.9691733e-01 7.8459096e-02 0.0000000e+00
      outer loop
         vertex 2.1300010e+00 1.0650010e+00 1.5194000e+00
         vertex 2.1168891e+00 1.2316037e+00 2.8639400e+01
         vertex 2.1300010e+00 1.0650010e+00 2.8639400e+01
      endloop
   endfacet
   facet normal 9.9691733e-01 -7.8459096e-02 0.0000000e+00
      outer loop
         vertex 2.1300010e+00 1.0650010e+00 1.5194000e+00
         vertex 2.1300010e+00 1.0650010e+00 2.8639400e+01
         vertex 2.1168891e+00 8.9839829e-01 1.5194000e+00
      endloop
   endfacet
   facet normal 9.9691733e-01 -7.8459096e-02 1.5692839e-17
      outer loop
         vertex 2.1168891e+00 8.9839829e-01 1.5194000e+00
         vertex 2.1300010e+00 1.0650010e+00 2.8639400e+01
         vertex 2.1168891e+00 8.9839829e-01 2.8639400e+01
      endloop
   endfacet
   facet normal 9.7236992e-01 -2.3344536e-01 1.4011199e-17
      outer loop
         vertex 2.1168891e+00 8.9839829e-01 1.5194000e+00
         vertex 2.1168891e+00 8.9839829e-01 2.8639400e+01
         vertex 2.0778762e+00 7.3589790e-01 1.5194000e+00
      endloop
   endfacet
   facet normal 9.7236992e-01 -2.3344536e-01 -3.8275218e-18
      outer loop
         vertex 2.0778762e+00 7.3589790e-01 1.5194000e+00
         vertex 2.1168891e+00 8.9839829e-01 2.8639400e+01
         vertex 2.0778762e+00 7.3589790e-01 2.8639400e+01
      endloop
   endfacet
   facet normal 9.2387953e-01 -3.8268343e-01 -6.2664301e-18
      outer loop
         vertex 2.0778762e+00 7.3589790e-01 1.5194000e+00
         vertex 2.0778762e+00 7.3589790e-01 2.8639400e+01
         vertex 2.0139229e+00 5.8150112e-01 1.5194000e+00
      endloop
   endfacet
   facet normal 9.2387953e-01 -3.8268343e-01 -3.0620174e-18
      outer loop
         vertex 2.0139229e+00 5.8150112e-01 1.5194000e+00
         vertex 2.0778762e+00 7.3589790e-01 2.8639400e+01
         vertex 2.0139229e+00 5.8150112e-01 2.8639400e+01
      endloop
   endfacet
   facet normal 8.5264016e-01 -5.2249856e-01 -4.2779494e-18
      outer loop
         vertex 2.0139229e+00 5.8150112e-01 1.5194000e+00
         vertex 2.0139229e+00 5.8150112e-01 2.8639400e+01
         vertex 1.9266041e+00 4.3900971e-01 1.5194000e+00
      endloop
   endfacet
   facet normal 8.5264016e-01 -5.2249856e-01 -4.5930261e-18
      outer loop
         vertex 1.9266041e+00 4.3900971e-01 1.5194000e+00
         vertex 2.0139229e+00 5.8150112e-01 2.8639400e+01
         vertex 1.9266041e+00 4.3900971e-01 2.8639400e+01
      endloop
   endfacet
   facet normal 7.6040597e-01 -6.4944805e-01 -5.3173464e-18
      outer loop
         vertex 1.9266041e+00 4.3900971e-01 1.5194000e+00
         vertex 1.9266041e+00 4.3900971e-01 2.8639400e+01
         vertex 1.8180697e+00 3.1193228e-01 1.5194000e+00
      endloop
   endfacet
   facet normal 7.6040597e-01 -6.4944805e-01 3.4447696e-18
      outer loop
         vertex 1.8180697e+00 3.1193228e-01 1.5194000e+00
         vertex 1.9266041e+00 4.3900971e-01 2.8639400e+01
         vertex 1.8180697e+00 3.1193228e-01 2.8639400e+01
      endloop
   endfacet
   facet normal 6.4944805e-01 -7.6040597e-01 2.2044401e-18
      outer loop
         vertex 1.8180697e+00 3.1193228e-01 1.5194000e+00
         vertex 1.8180697e+00 3.1193228e-01 2.8639400e+01
         vertex 1.6909923e+00 2.0339790e-01 1.5194000e+00
      endloop
   endfacet
   facet normal 6.4944805e-01 -7.6040597e-01 -3.0620174e-18
      outer loop
         vertex 1.6909923e+00 2.0339790e-01 1.5194000e+00
         vertex 1.8180697e+00 3.1193228e-01 2.8639400e+01
         vertex 1.6909923e+00 2.0339790e-01 2.8639400e+01
      endloop
   endfacet
   facet normal 5.2249856e-01 -8.5264016e-01 -3.4904895e-18
      outer loop
         vertex 1.6909923e+00 2.0339790e-01 1.5194000e+00
         vertex 1.6909923e+00 2.0339790e-01 2.8639400e+01
         vertex 1.5485009e+00 1.1607905e-01 1.5194000e+00
      endloop
   endfacet
   facet normal 5.2249856e-01 -8.5264016e-01 -6.1240348e-18
      outer loop
         vertex 1.5485009e+00 1.1607905e-01 1.5194000e+00
         vertex 1.6909923e+00 2.0339790e-01 2.8639400e+01
         vertex 1.5485009e+00 1.1607905e-01 2.8639400e+01
      endloop
   endfacet
   facet normal 3.8268343e-01 -9.2387953e-01 -8.2131603e-18
      outer loop
         vertex 1.5485009e+00 1.1607905e-01 1.5194000e+00
         vertex 1.5485009e+00 1.1607905e-01 2.8639400e+01
         vertex 1.3941041e+00 5.2125810e-02 1.5194000e+00
      endloop
   endfacet
   facet normal 3.8268343e-01 -9.2387953e-01 -1.1482565e-18
      outer loop
         vertex 1.3941041e+00 5.2125810e-02 1.5194000e+00
         vertex 1.5485009e+00 1.1607905e-01 2.8639400e+01
         vertex 1.3941041e+00 5.2125810e-02 2.8639400e+01
      endloop
   endfacet
   facet normal 2.3344536e-01 -9.7236992e-01 -4.1386035e-18
      outer loop
         vertex 1.3941041e+00 5.2125810e-02 1.5194000e+00
         vertex 1.3941041e+00 5.2125810e-02 2.8639400e+01
         vertex 1.2316037e+00 1.3112917e-02 1.5194000e+00
      endloop
   endfacet
   facet normal 2.3344536e-01 -9.7236992e-01 1.9137609e-18
      outer loop
         vertex 1.2316037e+00 1.3112917e-02 1.5194000e+00
         vertex 1.3941041e+00 5.2125810e-02 2.8639400e+01
         vertex 1.2316037e+00 1.3112917e-02 2.8639400e+01
      endloop
   endfacet
   facet normal 7.8459096e-02 -9.9691733e-01 6.4238270e-19
      outer loop
         vertex 1.2316037e+00 1.3112917e-02 1.5194000e+00
         vertex 1.2316037e+00 1.3112917e-02 2.8639400e+01
         vertex 1.0650010e+00 1.0000000e-06 1.5194000e+00
      endloop
   endfacet
   facet normal 7.8459096e-02 -9.9691733e-01 6.6981631e-19
      outer loop
         vertex 1.0650010e+00 1.0000000e-06 1.5194000e+00
         vertex 1.2316037e+00 1.3112917e-02 2.8639400e+01
         vertex 1.0650010e+00 1.0000000e-06 2.8639400e+01
      endloop
   endfacet
   facet normal -7.8459096e-02 -9.9691733e-01 -6.4238270e-19
      outer loop
         vertex 1.0650010e+00 1.0000000e-06 1.5194000e+00
         vertex 1.0650010e+00 1.0000000e-06 2.8639400e+01
         vertex 8.9839829e-01 1.3112917e-02 1.5194000e+00
      endloop
   endfacet
   facet normal -7.8459096e-02 -9.9691733e-01 7.5593555e-18
      outer loop
         vertex 8.9839829e-01 1.3112917e-02 1.5194000e+00
         vertex 1.0650010e+00 1.0000000e-06 2.8639400e+01
         vertex 8.9839829e-01 1.3112917e-02 2.8639400e+01
      endloop
   endfacet
   facet normal -2.3344536e-01 -9.7236992e-01 6.0499340e-18
      outer loop
         vertex 8.9839829e-01 1.3112917e-02 1.5194000e+00
         vertex 8.9839829e-01 1.3112917e-02 2.8639400e+01
         vertex 7.3589790e-01 5.2125810e-02 1.5194000e+00
      endloop
   endfacet
   facet normal -2.3344536e-01 -9.7236992e-01 5.9326587e-18
      outer loop
         vertex 7.3589790e-01 5.2125810e-02 1.5194000e+00
         vertex 8.9839829e-01 1.3112917e-02 2.8639400e+01
         vertex 7.3589790e-01 5.2125810e-02 2.8639400e+01
      endloop
   endfacet
   facet normal -3.8268343e-01 -9.2387953e-01 4.4310352e-18
      outer loop
         vertex 7.3589790e-01 5.2125810e-02 1.5194000e+00
         vertex 7.3589790e-01 5.2125810e-02 2.8639400e+01
         vertex 5.8150112e-01 1.1607905e-01 1.5194000e+00
      endloop
   endfacet
   facet normal -3.8268343e-01 -9.2387953e-01 3.8275218e-19
      outer loop
         vertex 5.8150112e-01 1.1607905e-01 1.5194000e+00
         vertex 7.3589790e-01 5.2125810e-02 2.8639400e+01
         vertex 5.8150112e-01 1.1607905e-01 2.8639400e+01
      endloop
   endfacet
   facet normal -5.2249856e-01 -8.5264016e-01 -7.8745992e-19
      outer loop
         vertex 5.8150112e-01 1.1607905e-01 1.5194000e+00
         vertex 5.8150112e-01 1.1607905e-01 2.8639400e+01
         vertex 4.3900971e-01 2.0339790e-01 1.5194000e+00
      endloop
   endfacet
   facet normal -5.2249856e-01 -8.5264016e-01 -7.6550435e-19
      outer loop
         vertex 4.3900971e-01 2.0339790e-01 1.5194000e+00
         vertex 5.8150112e-01 1.1607905e-01 2.8639400e+01
         vertex 4.3900971e-01 2.0339790e-01 2.8639400e+01
      endloop
   endfacet
   facet normal -6.4944805e-01 -7.6040597e-01 -2.2044401e-18
      outer loop
         vertex 4.3900971e-01 2.0339790e-01 1.5194000e+00
         vertex 4.3900971e-01 2.0339790e-01 2.8639400e+01
         vertex 3.1193228e-01 3.1193228e-01 1.5194000e+00
      endloop
   endfacet
   facet normal -6.4944805e-01 -7.6040597e-01 -2.2965131e-18
      outer loop
         vertex 3.1193228e-01 3.1193228e-01 1.5194000e+00
         vertex 4.3900971e-01 2.0339790e-01 2.8639400e+01
         vertex 3.1193228e-01 3.1193228e-01 2.8639400e+01
      endloop
   endfacet
   facet normal -7.6040597e-01 -6.4944805e-01 -3.5671395e-18
      outer loop
         vertex 3.1193228e-01 3.1193228e-01 1.5194000e+00
         vertex 3.1193228e-01 3.1193228e-01 2.8639400e+01
         vertex 2.0339790e-01 4.3900971e-01 1.5194000e+00
      endloop
   endfacet
   facet normal -7.6040597e-01 -6.4944805e-01 2.2965131e-18
      outer loop
         vertex 2.0339790e-01 4.3900971e-01 1.5194000e+00
         vertex 3.1193228e-01 3.1193228e-01 2.8639400e+01
         vertex 2.0339790e-01 4.3900971e-01 2.8639400e+01
      endloop
   endfacet
   facet normal -8.5264016e-01 -5.2249856e-01 7.8745992e-19
      outer loop
         vertex 2.0339790e-01 4.3900971e-01 1.5194000e+00
         vertex 2.0339790e-01 4.3900971e-01 2.8639400e+01
         vertex 1.1607905e-01 5.8150112e-01 1.5194000e+00
      endloop
   endfacet
   facet normal -8.5264016e-01 -5.2249856e-01 7.6550435e-19
      outer loop
         vertex 1.1607905e-01 5.8150112e-01 1.5194000e+00
         vertex 2.0339790e-01 4.3900971e-01 2.8639400e+01
         vertex 1.1607905e-01 5.8150112e-01 2.8639400e+01
      endloop
   endfacet
   facet normal -9.2387953e-01 -3.8268343e-01 -6.4891008e-19
      outer loop
         vertex 1.1607905e-01 5.8150112e-01 1.5194000e+00
         vertex 1.1607905e-01 5.8150112e-01 2.8639400e+01
         vertex 5.2125810e-02 7.3589790e-01 1.5194000e+00
      endloop
   endfacet
   facet normal -9.2387953e-01 -3.8268343e-01 -4.2102739e-18
      outer loop
         vertex 5.2125810e-02 7.3589790e-01 1.5194000e+00
         vertex 1.1607905e-01 5.8150112e-01 2.8639400e+01
         vertex 5.2125810e-02 7.3589790e-01 2.8639400e+01
      endloop
   endfacet
   facet normal -9.7236992e-01 -2.3344536e-01 -6.0499340e-18
      outer loop
         vertex 5.2125810e-02 7.3589790e-01 1.5194000e+00
         vertex 5.2125810e-02 7.3589790e-01 2.8639400e+01
         vertex 1.3112917e-02 8.9839829e-01 1.5194000e+00
      endloop
   endfacet
   facet normal -9.7236992e-01 -2.3344536e-01 -4.9757783e-18
      outer loop
         vertex 1.3112917e-02 8.9839829e-01 1.5194000e+00
         vertex 5.2125810e-02 7.3589790e-01 2.8639400e+01
         vertex 1.3112917e-02 8.9839829e-01 2.8639400e+01
      endloop
   endfacet
   facet normal -9.9691733e-01 -7.8459096e-02 -7.1986721e-18
      outer loop
         vertex 1.3112917e-02 8.9839829e-01 1.5194000e+00
         vertex 1.3112917e-02 8.9839829e-01 2.8639400e+01
         vertex 1.0000000e-06 1.0650010e+00 1.5194000e+00
      endloop
   endfacet
   facet normal -9.9691733e-01 -7.8459096e-02 1.3396326e-18
      outer loop
         vertex 1.0000000e-06 1.0650010e+00 1.5194000e+00
         vertex 1.3112917e-02 8.9839829e-01 2.8639400e+01
         vertex 1.0000000e-06 1.0650010e+00 2.8639400e+01
      endloop
   endfacet
   facet normal -9.9691733e-01 7.8459096e-02 -1.2847654e-18
      outer loop
         vertex 1.0000000e-06 1.0650010e+00 1.5194000e+00
         vertex 1.0000000e-06 1.0650010e+00 2.8639400e+01
         vertex 1.3112917e-02 1.2316037e+00 1.5194000e+00
      endloop
   endfacet
   facet normal -9.9691733e-01 7.8459096e-02 7.5593555e-18
      outer loop
         vertex 1.3112917e-02 1.2316037e+00 1.5194000e+00
         vertex 1.0000000e-06 1.0650010e+00 2.8639400e+01
         vertex 1.3112917e-02 1.2316037e+00 2.8639400e+01
      endloop
   endfacet
   facet normal -9.7236992e-01 2.3344536e-01 6.0499340e-18
      outer loop
         vertex 1.3112917e-02 1.2316037e+00 1.5194000e+00
         vertex 1.3112917e-02 1.2316037e+00 2.8639400e+01
         vertex 5.2125810e-02 1.3941041e+00 1.5194000e+00
      endloop
   endfacet
   facet normal -9.7236992e-01 2.3344536e-01 5.9326587e-18
      outer loop
         vertex 5.2125810e-02 1.3941041e+00 1.5194000e+00
         vertex 1.3112917e-02 1.2316037e+00 2.8639400e+01
         vertex 5.2125810e-02 1.3941041e+00 2.8639400e+01
      endloop
   endfacet
   facet normal -9.2387953e-01 3.8268343e-01 4.4310352e-18
      outer loop
         vertex 5.2125810e-02 1.3941041e+00 1.5194000e+00
         vertex 5.2125810e-02 1.3941041e+00 2.8639400e+01
         vertex 1.1607905e-01 1.5485009e+00 1.5194000e+00
      endloop
   endfacet
   facet normal -9.2387953e-01 3.8268343e-01 3.8275218e-19
      outer loop
         vertex 1.1607905e-01 1.5485009e+00 1.5194000e+00
         vertex 5.2125810e-02 1.3941041e+00 2.8639400e+01
         vertex 1.1607905e-01 1.5485009e+00 2.8639400e+01
      endloop
   endfacet
   facet normal -8.5264016e-01 5.2249856e-01 -7.8745992e-19
      outer loop
         vertex 1.1607905e-01 1.5485009e+00 1.5194000e+00
         vertex 1.1607905e-01 1.5485009e+00 2.8639400e+01
         vertex 2.0339790e-01 1.6909923e+00 1.5194000e+00
      endloop
   endfacet
   facet normal -8.5264016e-01 5.2249856e-01 -7.6550435e-19
      outer loop
         vertex 2.0339790e-01 1.6909923e+00 1.5194000e+00
         vertex 1.1607905e-01 1.5485009e+00 2.8639400e+01
         vertex 2.0339790e-01 1.6909923e+00 2.8639400e+01
      endloop
   endfacet
   facet normal -7.6040597e-01 6.4944805e-01 -2.2044401e-18
      outer loop
         vertex 2.0339790e-01 1.6909923e+00 1.5194000e+00
         vertex 2.0339790e-01 1.6909923e+00 2.8639400e+01
         vertex 3.1193228e-01 1.8180697e+00 1.5194000e+00
      endloop
   endfacet
   facet normal -7.6040597e-01 6.4944805e-01 7.6550435e-19
      outer loop
         vertex 3.1193228e-01 1.8180697e+00 1.5194000e+00
         vertex 2.0339790e-01 1.6909923e+00 2.8639400e+01
         vertex 3.1193228e-01 1.8180697e+00 2.8639400e+01
      endloop
   endfacet
   facet normal -6.4944805e-01 7.6040597e-01 -9.0846633e-19
      outer loop
         vertex 3.1193228e-01 1.8180697e+00 1.5194000e+00
         vertex 3.1193228e-01 1.8180697e+00 2.8639400e+01
         vertex 4.3900971e-01 1.9266041e+00 1.5194000e+00
      endloop
   endfacet
   facet normal -6.4944805e-01 7.6040597e-01 5.3585305e-18
      outer loop
         vertex 4.3900971e-01 1.9266041e+00 1.5194000e+00
         vertex 3.1193228e-01 1.8180697e+00 2.8639400e+01
         vertex 4.3900971e-01 1.9266041e+00 2.8639400e+01
      endloop
   endfacet
   facet normal -5.2249856e-01 8.5264016e-01 4.2779494e-18
      outer loop
         vertex 4.3900971e-01 1.9266041e+00 1.5194000e+00
         vertex 4.3900971e-01 1.9266041e+00 2.8639400e+01
         vertex 5.8150112e-01 2.0139229e+00 1.5194000e+00
      endloop
   endfacet
   facet normal -5.2249856e-01 8.5264016e-01 4.5930261e-18
      outer loop
         vertex 5.8150112e-01 2.0139229e+00 1.5194000e+00
         vertex 4.3900971e-01 1.9266041e+00 2.8639400e+01
         vertex 5.8150112e-01 2.0139229e+00 2.8639400e+01
      endloop
   endfacet
   facet normal -3.8268343e-01 9.2387953e-01 3.1332150e-18
      outer loop
         vertex 5.8150112e-01 2.0139229e+00 1.5194000e+00
         vertex 5.8150112e-01 2.0139229e+00 2.8639400e+01
         vertex 7.3589790e-01 2.0778762e+00 1.5194000e+00
      endloop
   endfacet
   facet normal -3.8268343e-01 9.2387953e-01 3.0620174e-18
      outer loop
         vertex 7.3589790e-01 2.0778762e+00 1.5194000e+00
         vertex 5.8150112e-01 2.0139229e+00 2.8639400e+01
         vertex 7.3589790e-01 2.0778762e+00 2.8639400e+01
      endloop
   endfacet
   facet normal -2.3344536e-01 9.7236992e-01 1.9113305e-18
      outer loop
         vertex 7.3589790e-01 2.0778762e+00 1.5194000e+00
         vertex 7.3589790e-01 2.0778762e+00 2.8639400e+01
         vertex 8.9839829e-01 2.1168891e+00 1.5194000e+00
      endloop
   endfacet
   facet normal -2.3344536e-01 9.7236992e-01 -1.3970454e-17
      outer loop
         vertex 8.9839829e-01 2.1168891e+00 1.5194000e+00
         vertex 7.3589790e-01 2.0778762e+00 2.8639400e+01
         vertex 8.9839829e-01 2.1168891e+00 2.8639400e+01
      endloop
   endfacet
   facet normal -7.8459096e-02 9.9691733e-01 -1.5682110e-17
      outer loop
         vertex 8.9839829e-01 2.1168891e+00 1.5194000e+00
         vertex 8.9839829e-01 2.1168891e+00 2.8639400e+01
         vertex 1.0650010e+00 2.1300010e+00 1.5194000e+00
      endloop
   endfacet
   facet normal -7.8459096e-02 9.9691733e-01 5.7412826e-19
      outer loop
         vertex 1.0650010e+00 2.1300010e+00 1.5194000e+00
         vertex 8.9839829e-01 2.1168891e+00 2.8639400e+01
         vertex 1.0650010e+00 2.1300010e+00 2.8639400e+01
      endloop
   endfacet
   facet normal 7.8459096e-02 9.9691733e-01 -6.4238270e-19
      outer loop
         vertex 1.0650010e+00 2.1300010e+00 1.5194000e+00
         vertex 1.0650010e+00 2.1300010e+00 2.8639400e+01
         vertex 1.2316037e+00 2.1168891e+00 1.5194000e+00
      endloop
   endfacet
   facet normal 7.8459096e-02 9.9691733e-01 -5.7412826e-19
      outer loop
         vertex 1.2316037e+00 2.1168891e+00 1.5194000e+00
         vertex 1.0650010e+00 2.1300010e+00 2.8639400e+01
         vertex 1.2316037e+00 2.1168891e+00 2.8639400e+01
      endloop
   endfacet
   facet normal 2.3344536e-01 9.7236992e-01 -1.9113305e-18
      outer loop
         vertex 1.2316037e+00 2.1168891e+00 1.5194000e+00
         vertex 1.2316037e+00 2.1168891e+00 2.8639400e+01
         vertex 1.3941041e+00 2.0778762e+00 1.5194000e+00
      endloop
   endfacet
   facet normal 2.3344536e-01 9.7236992e-01 -3.8275218e-18
      outer loop
         vertex 1.3941041e+00 2.0778762e+00 1.5194000e+00
         vertex 1.2316037e+00 2.1168891e+00 2.8639400e+01
         vertex 1.3941041e+00 2.0778762e+00 2.8639400e+01
      endloop
   endfacet
   facet normal 3.8268343e-01 9.2387953e-01 -6.2664301e-18
      outer loop
         vertex 1.3941041e+00 2.0778762e+00 1.5194000e+00
         vertex 1.3941041e+00 2.0778762e+00 2.8639400e+01
         vertex 1.5485009e+00 2.0139229e+00 1.5194000e+00
      endloop
   endfacet
   facet normal 3.8268343e-01 9.2387953e-01 1.1865317e-17
      outer loop
         vertex 1.5485009e+00 2.0139229e+00 1.5194000e+00
         vertex 1.3941041e+00 2.0778762e+00 2.8639400e+01
         vertex 1.5485009e+00 2.0139229e+00 2.8639400e+01
      endloop
   endfacet
   facet normal 5.2249856e-01 8.5264016e-01 9.6840085e-18
      outer loop
         vertex 1.5485009e+00 2.0139229e+00 1.5194000e+00
         vertex 1.5485009e+00 2.0139229e+00 2.8639400e+01
         vertex 1.6909923e+00 1.9266041e+00 1.5194000e+00
      endloop
   endfacet
   facet normal 5.2249856e-01 8.5264016e-01 6.8895392e-18
      outer loop
         vertex 1.6909923e+00 1.9266041e+00 1.5194000e+00
         vertex 1.5485009e+00 2.0139229e+00 2.8639400e+01
         vertex 1.6909923e+00 1.9266041e+00 2.8639400e+01
      endloop
   endfacet
   facet normal 6.4944805e-01 7.6040597e-01 6.2258128e-18
      outer loop
         vertex 1.6909923e+00 1.9266041e+00 1.5194000e+00
         vertex 1.6909923e+00 1.9266041e+00 2.8639400e+01
         vertex 1.8180697e+00 1.8180697e+00 1.5194000e+00
      endloop
   endfacet
   facet normal 6.4944805e-01 7.6040597e-01 7.6550435e-19
      outer loop
         vertex 1.8180697e+00 1.8180697e+00 1.5194000e+00
         vertex 1.6909923e+00 1.9266041e+00 2.8639400e+01
         vertex 1.8180697e+00 1.8180697e+00 2.8639400e+01
      endloop
   endfacet
   facet normal 7.6040597e-01 6.4944805e-01 -9.0846633e-19
      outer loop
         vertex 1.8180697e+00 1.8180697e+00 1.5194000e+00
         vertex 1.8180697e+00 1.8180697e+00 2.8639400e+01
         vertex 1.9266041e+00 1.6909923e+00 1.5194000e+00
      endloop
   endfacet
   facet normal 7.6040597e-01 6.4944805e-01 1.0717061e-17
      outer loop
         vertex 1.9266041e+00 1.6909923e+00 1.5194000e+00
         vertex 1.8180697e+00 1.8180697e+00 2.8639400e+01
         vertex 1.9266041e+00 1.6909923e+00 2.8639400e+01
      endloop
   endfacet
   facet normal 8.5264016e-01 5.2249856e-01 8.5558988e-18
      outer loop
         vertex 1.9266041e+00 1.6909923e+00 1.5194000e+00
         vertex 1.9266041e+00 1.6909923e+00 2.8639400e+01
         vertex 2.0139229e+00 1.5485009e+00 1.5194000e+00
      endloop
   endfacet
   facet normal 8.5264016e-01 5.2249856e-01 4.2102739e-18
      outer loop
         vertex 2.0139229e+00 1.5485009e+00 1.5194000e+00
         vertex 1.9266041e+00 1.6909923e+00 2.8639400e+01
         vertex 2.0139229e+00 1.5485009e+00 2.8639400e+01
      endloop
   endfacet
   facet normal 9.2387953e-01 3.8268343e-01 3.1332150e-18
      outer loop
         vertex 2.0139229e+00 1.5485009e+00 1.5194000e+00
         vertex 2.0139229e+00 1.5485009e+00 2.8639400e+01
         vertex 2.0778762e+00 1.3941041e+00 1.5194000e+00
      endloop
   endfacet
   facet normal 9.2387953e-01 3.8268343e-01 6.1240348e-18
      outer loop
         vertex 2.0778762e+00 1.3941041e+00 1.5194000e+00
         vertex 2.0139229e+00 1.5485009e+00 2.8639400e+01
         vertex 2.0778762e+00 1.3941041e+00 2.8639400e+01
      endloop
   endfacet
   facet normal 9.7236992e-01 2.3344536e-01 3.8226610e-18
      outer loop
         vertex 2.0778762e+00 1.3941041e+00 1.5194000e+00
         vertex 2.0778762e+00 1.3941041e+00 2.8639400e+01
         vertex 2.1168891e+00 1.2316037e+00 1.5194000e+00
      endloop
   endfacet
   facet normal 9.7236992e-01 2.3344536e-01 -1.3970454e-17
      outer loop
         vertex 2.1168891e+00 1.2316037e+00 1.5194000e+00
         vertex 2.0778762e+00 1.3941041e+00 2.8639400e+01
         vertex 2.1168891e+00 1.2316037e+00 2.8639400e+01
      endloop
   endfacet
   facet normal 0.0000000e+00 -0.0000000e+00 -1.0000000e+00
      outer loop
         vertex 1.8019418e+00 3.3116294e-01 1.5194000e+00
         vertex 1.8180697e+00 3.1193228e-01 1.5194000e+00
         vertex 1.6781894e+00 2.2500100e-01 1.5194000e+00
      endloop
   endfacet
   facet normal 0.0000000e+00 -0.0000000e+00 -1.0000000e+00
      outer loop
         vertex 1.6781894e+00 2.2500100e-01 1.5194000e+00
         vertex 1.8180697e+00 3.1193228e-01 1.5194000e+00
         vertex 1.6909923e+00 2.0339790e-01 1.5194000e+00
      endloop
   endfacet
   facet normal 0.0000000e+00 -0.0000000e+00 -1.0000000e+00
      outer loop
         vertex 1.6781894e+00 2.2500100e-01 1.5194000e+00
         vertex 1.6909923e+00 2.0339790e-01 1.5194000e+00
         vertex 1.5485009e+00 1.1607905e-01 1.5194000e+00
      endloop
   endfacet
   facet normal 0.0000000e+00 0.0000000e+00 -1.0000000e+00
      outer loop
         vertex 1.8180697e+00 3.1193228e-01 1.5194000e+00
         vertex 1.8019418e+00 3.3116294e-01 1.5194000e+00
         vertex 1.9266041e+00 4.3900971e-01 1.5194000e+00
      endloop
   endfacet
   facet normal -0.0000000e+00 0.0000000e+00 -1.0000000e+00
      outer loop
         vertex 1.9266041e+00 4.3900971e-01 1.5194000e+00
         vertex 1.8019418e+00 3.3116294e-01 1.5194000e+00
         vertex 1.9075806e+00 4.5536214e-01 1.5194000e+00
      endloop
   endfacet
   facet normal 0.0000000e+00 0.0000000e+00 -1.0000000e+00
      outer loop
         vertex 1.9266041e+00 4.3900971e-01 1.5194000e+00
         vertex 1.9075806e+00 4.5536214e-01 1.5194000e+00
         vertex 2.0139229e+00 5.8150112e-01 1.5194000e+00
      endloop
   endfacet
   facet normal -0.0000000e+00 0.0000000e+00 -1.0000000e+00
      outer loop
         vertex 2.0139229e+00 5.8150112e-01 1.5194000e+00
         vertex 1.9075806e+00 4.5536214e-01 1.5194000e+00
         vertex 1.9925095e+00 5.9454585e-01 1.5194000e+00
      endloop
   endfacet
   facet normal 0.0000000e+00 0.0000000e+00 -1.0000000e+00
      outer loop
         vertex 2.0139229e+00 5.8150112e-01 1.5194000e+00
         vertex 1.9925095e+00 5.9454585e-01 1.5194000e+00
         vertex 2.0778762e+00 7.3589790e-01 1.5194000e+00
      endloop
   endfacet
   facet normal -0.0000000e+00 0.0000000e+00 -1.0000000e+00
      outer loop
         vertex 2.0778762e+00 7.3589790e-01 1.5194000e+00
         vertex 1.9925095e+00 5.9454585e-01 1.5194000e+00
         vertex 2.0546407e+00 7.4529304e-01 1.5194000e+00
      endloop
   endfacet
   facet normal 0.0000000e+00 0.0000000e+00 -1.0000000e+00
      outer loop
         vertex 2.0778762e+00 7.3589790e-01 1.5194000e+00
         vertex 2.0546407e+00 7.4529304e-01 1.5194000e+00
         vertex 2.1168891e+00 8.9839829e-01 1.5194000e+00
      endloop
   endfacet
   facet normal -0.0000000e+00 0.0000000e+00 -1.0000000e+00
      outer loop
         vertex 2.1168891e+00 8.9839829e-01 1.5194000e+00
         vertex 2.0546407e+00 7.4529304e-01 1.5194000e+00
         vertex 2.0924473e+00 9.0389844e-01 1.5194000e+00
      endloop
   endfacet
   facet normal 0.0000000e+00 0.0000000e+00 -1.0000000e+00
      outer loop
         vertex 2.1168891e+00 8.9839829e-01 1.5194000e+00
         vertex 2.0924473e+00 9.0389844e-01 1.5194000e+00
         vertex 2.1300010e+00 1.0650010e+00 1.5194000e+00
      endloop
   endfacet
   facet normal -0.0000000e+00 0.0000000e+00 -1.0000000e+00
      outer loop
         vertex 2.1300010e+00 1.0650010e+00 1.5194000e+00
         vertex 2.0924473e+00 9.0389844e-01 1.5194000e+00
         vertex 2.1050000e+00 1.0664636e+00 1.5194000e+00
      endloop
   endfacet
   facet normal 0.0000000e+00 0.0000000e+00 -1.0000000e+00
      outer loop
         vertex 2.1300010e+00 1.0650010e+00 1.5194000e+00
         vertex 2.1050000e+00 1.0664636e+00 1.5194000e+00
         vertex 2.1168891e+00 1.2316037e+00 1.5194000e+00
      endloop
   endfacet
   facet normal -0.0000000e+00 0.0000000e+00 -1.0000000e+00
      outer loop
         vertex 2.1168891e+00 1.2316037e+00 1.5194000e+00
         vertex 2.1050000e+00 1.0664636e+00 1.5194000e+00
         vertex 2.0919901e+00 1.2289929e+00 1.5194000e+00
      endloop
   endfacet
   facet normal -0.0000000e+00 0.0000000e+00 -1.0000000e+00
      outer loop
         vertex 2.1168891e+00 1.2316037e+00 1.5194000e+00
         vertex 2.0919901e+00 1.2289929e+00 1.5194000e+00
         vertex 2.0778762e+00 1.3941041e+00 1.5194000e+00
      endloop
   endfacet
   facet normal -0.0000000e+00 -0.0000000e+00 -1.0000000e+00
      outer loop
         vertex 2.0778762e+00 1.3941041e+00 1.5194000e+00
         vertex 2.0919901e+00 1.2289929e+00 1.5194000e+00
         vertex 2.0537376e+00 1.3874913e+00 1.5194000e+00
      endloop
   endfacet
   facet normal -0.0000000e+00 0.0000000e+00 -1.0000000e+00
      outer loop
         vertex 2.0778762e+00 1.3941041e+00 1.5194000e+00
         vertex 2.0537376e+00 1.3874913e+00 1.5194000e+00
         vertex 2.0139229e+00 1.5485009e+00 1.5194000e+00
      endloop
   endfacet
   facet normal -0.0000000e+00 -0.0000000e+00 -1.0000000e+00
      outer loop
         vertex 2.0139229e+00 1.5485009e+00 1.5194000e+00
         vertex 2.0537376e+00 1.3874913e+00 1.5194000e+00
         vertex 1.9911825e+00 1.5380631e+00 1.5194000e+00
      endloop
   endfacet
   facet normal -0.0000000e+00 0.0000000e+00 -1.0000000e+00
      outer loop
         vertex 2.0139229e+00 1.5485009e+00 1.5194000e+00
         vertex 1.9911825e+00 1.5380631e+00 1.5194000e+00
         vertex 1.9266041e+00 1.6909923e+00 1.5194000e+00
      endloop
   endfacet
   facet normal -0.0000000e+00 -0.0000000e+00 -1.0000000e+00
      outer loop
         vertex 1.9266041e+00 1.6909923e+00 1.5194000e+00
         vertex 1.9911825e+00 1.5380631e+00 1.5194000e+00
         vertex 1.9058625e+00 1.6770074e+00 1.5194000e+00
      endloop
   endfacet
   facet normal -0.0000000e+00 0.0000000e+00 -1.0000000e+00
      outer loop
         vertex 1.9266041e+00 1.6909923e+00 1.5194000e+00
         vertex 1.9058625e+00 1.6770074e+00 1.5194000e+00
         vertex 1.8180697e+00 1.8180697e+00 1.5194000e+00
      endloop
   endfacet
   facet normal -0.0000000e+00 -0.0000000e+00 -1.0000000e+00
      outer loop
         vertex 1.8180697e+00 1.8180697e+00 1.5194000e+00
         vertex 1.9058625e+00 1.6770074e+00 1.5194000e+00
         vertex 1.7998748e+00 1.8009090e+00 1.5194000e+00
      endloop
   endfacet
   facet normal -0.0000000e+00 0.0000000e+00 -1.0000000e+00
      outer loop
         vertex 1.8180697e+00 1.8180697e+00 1.5194000e+00
         vertex 1.7998748e+00 1.8009090e+00 1.5194000e+00
         vertex 1.6909923e+00 1.9266041e+00 1.5194000e+00
      endloop
   endfacet
   facet normal -0.0000000e+00 -0.0000000e+00 -1.0000000e+00
      outer loop
         vertex 1.6909923e+00 1.9266041e+00 1.5194000e+00
         vertex 1.7998748e+00 1.8009090e+00 1.5194000e+00
         vertex 1.6758242e+00 1.9067224e+00 1.5194000e+00
      endloop
   endfacet
   facet normal -0.0000000e+00 0.0000000e+00 -1.0000000e+00
      outer loop
         vertex 1.6909923e+00 1.9266041e+00 1.5194000e+00
         vertex 1.6758242e+00 1.9067224e+00 1.5194000e+00
         vertex 1.5485009e+00 2.0139229e+00 1.5194000e+00
      endloop
   endfacet
   facet normal -0.0000000e+00 -0.0000000e+00 -1.0000000e+00
      outer loop
         vertex 1.5485009e+00 2.0139229e+00 1.5194000e+00
         vertex 1.6758242e+00 1.9067224e+00 1.5194000e+00
         vertex 1.5367601e+00 1.9918469e+00 1.5194000e+00
      endloop
   endfacet
   facet normal -0.0000000e+00 0.0000000e+00 -1.0000000e+00
      outer loop
         vertex 1.5485009e+00 2.0139229e+00 1.5194000e+00
         vertex 1.5367601e+00 1.9918469e+00 1.5194000e+00
         vertex 1.3941041e+00 2.0778762e+00 1.5194000e+00
      endloop
   endfacet
   facet normal -0.0000000e+00 -0.0000000e+00 -1.0000000e+00
      outer loop
         vertex 1.3941041e+00 2.0778762e+00 1.5194000e+00
         vertex 1.5367601e+00 1.9918469e+00 1.5194000e+00
         vertex 1.3861005e+00 2.0541901e+00 1.5194000e+00
      endloop
   endfacet
   facet normal -0.0000000e+00 0.0000000e+00 -1.0000000e+00
      outer loop
         vertex 1.3941041e+00 2.0778762e+00 1.5194000e+00
         vertex 1.3861005e+00 2.0541901e+00 1.5194000e+00
         vertex 1.2316037e+00 2.1168891e+00 1.5194000e+00
      endloop
   endfacet
   facet normal -0.0000000e+00 -0.0000000e+00 -1.0000000e+00
      outer loop
         vertex 1.2316037e+00 2.1168891e+00 1.5194000e+00
         vertex 1.3861005e+00 2.0541901e+00 1.5194000e+00
         vertex 1.2275484e+00 2.0922197e+00 1.5194000e+00
      endloop
   endfacet
   facet normal -0.0000000e+00 0.0000000e+00 -1.0000000e+00
      outer loop
         vertex 1.2316037e+00 2.1168891e+00 1.5194000e+00
         vertex 1.2275484e+00 2.0922197e+00 1.5194000e+00
         vertex 1.0650010e+00 2.1300010e+00 1.5194000e+00
      endloop
   endfacet
   facet normal -0.0000000e+00 -0.0000000e+00 -1.0000000e+00
      outer loop
         vertex 1.0650010e+00 2.1300010e+00 1.5194000e+00
         vertex 1.2275484e+00 2.0922197e+00 1.5194000e+00
         vertex 1.0650010e+00 2.1050010e+00 1.5194000e+00
      endloop
   endfacet
   facet normal 0.0000000e+00 -0.0000000e+00 -1.0000000e+00
      outer loop
         vertex 1.0650010e+00 2.1300010e+00 1.5194000e+00
         vertex 1.0650010e+00 2.1050010e+00 1.5194000e+00
         vertex 9.0245362e-01 2.0922197e+00 1.5194000e+00
      endloop
   endfacet
   facet normal -0.0000000e+00 0.0000000e+00 -1.0000000e+00
      outer loop
         vertex 1.0650010e+00 2.1300010e+00 1.5194000e+00
         vertex 9.0245362e-01 2.0922197e+00 1.5194000e+00
         vertex 8.9839829e-01 2.1168891e+00 1.5194000e+00
      endloop
   endfacet
   facet normal 0.0000000e+00 -0.0000000e+00 -1.0000000e+00
      outer loop
         vertex 8.9839829e-01 2.1168891e+00 1.5194000e+00
         vertex 9.0245362e-01 2.0922197e+00 1.5194000e+00
         vertex 7.4390155e-01 2.0541901e+00 1.5194000e+00
      endloop
   endfacet
   facet normal -0.0000000e+00 0.0000000e+00 -1.0000000e+00
      outer loop
         vertex 8.9839829e-01 2.1168891e+00 1.5194000e+00
         vertex 7.4390155e-01 2.0541901e+00 1.5194000e+00
         vertex 7.3589790e-01 2.0778762e+00 1.5194000e+00
      endloop
   endfacet
   facet normal 0.0000000e+00 -0.0000000e+00 -1.0000000e+00
      outer loop
         vertex 7.3589790e-01 2.0778762e+00 1.5194000e+00
         vertex 7.4390155e-01 2.0541901e+00 1.5194000e+00
         vertex 5.9324189e-01 1.9918469e+00 1.5194000e+00
      endloop
   endfacet
   facet normal -0.0000000e+00 0.0000000e+00 -1.0000000e+00
      outer loop
         vertex 7.3589790e-01 2.0778762e+00 1.5194000e+00
         vertex 5.9324189e-01 1.9918469e+00 1.5194000e+00
         vertex 5.8150112e-01 2.0139229e+00 1.5194000e+00
      endloop
   endfacet
   facet normal 0.0000000e+00 -0.0000000e+00 -1.0000000e+00
      outer loop
         vertex 5.8150112e-01 2.0139229e+00 1.5194000e+00
         vertex 5.9324189e-01 1.9918469e+00 1.5194000e+00
         vertex 4.5417775e-01 1.9067224e+00 1.5194000e+00
      endloop
   endfacet
   facet normal -0.0000000e+00 0.0000000e+00 -1.0000000e+00
      outer loop
         vertex 5.8150112e-01 2.0139229e+00 1.5194000e+00
         vertex 4.5417775e-01 1.9067224e+00 1.5194000e+00
         vertex 4.3900971e-01 1.9266041e+00 1.5194000e+00
      endloop
   endfacet
   facet normal 0.0000000e+00 -0.0000000e+00 -1.0000000e+00
      outer loop
         vertex 4.3900971e-01 1.9266041e+00 1.5194000e+00
         vertex 4.5417775e-01 1.9067224e+00 1.5194000e+00
         vertex 3.3012725e-01 1.8009090e+00 1.5194000e+00
      endloop
   endfacet
   facet normal -0.0000000e+00 0.0000000e+00 -1.0000000e+00
      outer loop
         vertex 4.3900971e-01 1.9266041e+00 1.5194000e+00
         vertex 3.3012725e-01 1.8009090e+00 1.5194000e+00
         vertex 3.1193228e-01 1.8180697e+00 1.5194000e+00
      endloop
   endfacet
   facet normal 0.0000000e+00 -0.0000000e+00 -1.0000000e+00
      outer loop
         vertex 3.1193228e-01 1.8180697e+00 1.5194000e+00
         vertex 3.3012725e-01 1.8009090e+00 1.5194000e+00
         vertex 2.2413945e-01 1.6770074e+00 1.5194000e+00
      endloop
   endfacet
   facet normal -0.0000000e+00 0.0000000e+00 -1.0000000e+00
      outer loop
         vertex 3.1193228e-01 1.8180697e+00 1.5194000e+00
         vertex 2.2413945e-01 1.6770074e+00 1.5194000e+00
         vertex 2.0339790e-01 1.6909923e+00 1.5194000e+00
      endloop
   endfacet
   facet normal 0.0000000e+00 -0.0000000e+00 -1.0000000e+00
      outer loop
         vertex 2.0339790e-01 1.6909923e+00 1.5194000e+00
         vertex 2.2413945e-01 1.6770074e+00 1.5194000e+00
         vertex 1.3881948e-01 1.5380631e+00 1.5194000e+00
      endloop
   endfacet
   facet normal -0.0000000e+00 0.0000000e+00 -1.0000000e+00
      outer loop
         vertex 2.0339790e-01 1.6909923e+00 1.5194000e+00
         vertex 1.3881948e-01 1.5380631e+00 1.5194000e+00
         vertex 1.1607905e-01 1.5485009e+00 1.5194000e+00
      endloop
   endfacet
   facet normal 0.0000000e+00 -0.0000000e+00 -1.0000000e+00
      outer loop
         vertex 1.1607905e-01 1.5485009e+00 1.5194000e+00
         vertex 1.3881948e-01 1.5380631e+00 1.5194000e+00
         vertex 7.6264432e-02 1.3874913e+00 1.5194000e+00
      endloop
   endfacet
   facet normal -0.0000000e+00 0.0000000e+00 -1.0000000e+00
      outer loop
         vertex 1.1607905e-01 1.5485009e+00 1.5194000e+00
         vertex 7.6264432e-02 1.3874913e+00 1.5194000e+00
         vertex 5.2125810e-02 1.3941041e+00 1.5194000e+00
      endloop
   endfacet
   facet normal 0.0000000e+00 -0.0000000e+00 -1.0000000e+00
      outer loop
         vertex 5.2125810e-02 1.3941041e+00 1.5194000e+00
         vertex 7.6264432e-02 1.3874913e+00 1.5194000e+00
         vertex 3.8011875e-02 1.2289929e+00 1.5194000e+00
      endloop
   endfacet
   facet normal -0.0000000e+00 0.0000000e+00 -1.0000000e+00
      outer loop
         vertex 5.2125810e-02 1.3941041e+00 1.5194000e+00
         vertex 3.8011875e-02 1.2289929e+00 1.5194000e+00
         vertex 1.3112917e-02 1.2316037e+00 1.5194000e+00
      endloop
   endfacet
   facet normal 0.0000000e+00 -0.0000000e+00 -1.0000000e+00
      outer loop
         vertex 1.3112917e-02 1.2316037e+00 1.5194000e+00
         vertex 3.8011875e-02 1.2289929e+00 1.5194000e+00
         vertex 2.5002029e-02 1.0664636e+00 1.5194000e+00
      endloop
   endfacet
   facet normal 0.0000000e+00 -0.0000000e+00 -1.0000000e+00
      outer loop
         vertex 1.3112917e-02 1.2316037e+00 1.5194000e+00
         vertex 2.5002029e-02 1.0664636e+00 1.5194000e+00
         vertex 1.0000000e-06 1.0650010e+00 1.5194000e+00
      endloop
   endfacet
   facet normal 0.0000000e+00 0.0000000e+00 -1.0000000e+00
      outer loop
         vertex 1.0000000e-06 1.0650010e+00 1.5194000e+00
         vertex 2.5002029e-02 1.0664636e+00 1.5194000e+00
         vertex 3.7554668e-02 9.0389844e-01 1.5194000e+00
      endloop
   endfacet
   facet normal 0.0000000e+00 -0.0000000e+00 -1.0000000e+00
      outer loop
         vertex 1.0000000e-06 1.0650010e+00 1.5194000e+00
         vertex 3.7554668e-02 9.0389844e-01 1.5194000e+00
         vertex 1.3112917e-02 8.9839829e-01 1.5194000e+00
      endloop
   endfacet
   facet normal 0.0000000e+00 0.0000000e+00 -1.0000000e+00
      outer loop
         vertex 1.3112917e-02 8.9839829e-01 1.5194000e+00
         vertex 3.7554668e-02 9.0389844e-01 1.5194000e+00
         vertex 7.5361257e-02 7.4529304e-01 1.5194000e+00
      endloop
   endfacet
   facet normal 0.0000000e+00 -0.0000000e+00 -1.0000000e+00
      outer loop
         vertex 1.3112917e-02 8.9839829e-01 1.5194000e+00
         vertex 7.5361257e-02 7.4529304e-01 1.5194000e+00
         vertex 5.2125810e-02 7.3589790e-01 1.5194000e+00
      endloop
   endfacet
   facet normal 0.0000000e+00 0.0000000e+00 -1.0000000e+00
      outer loop
         vertex 5.2125810e-02 7.3589790e-01 1.5194000e+00
         vertex 7.5361257e-02 7.4529304e-01 1.5194000e+00
         vertex 1.3749253e-01 5.9454585e-01 1.5194000e+00
      endloop
   endfacet
   facet normal 0.0000000e+00 -0.0000000e+00 -1.0000000e+00
      outer loop
         vertex 5.2125810e-02 7.3589790e-01 1.5194000e+00
         vertex 1.3749253e-01 5.9454585e-01 1.5194000e+00
         vertex 1.1607905e-01 5.8150112e-01 1.5194000e+00
      endloop
   endfacet
   facet normal 0.0000000e+00 0.0000000e+00 -1.0000000e+00
      outer loop
         vertex 1.1607905e-01 5.8150112e-01 1.5194000e+00
         vertex 1.3749253e-01 5.9454585e-01 1.5194000e+00
         vertex 2.2242136e-01 4.5536214e-01 1.5194000e+00
      endloop
   endfacet
   facet normal 0.0000000e+00 -0.0000000e+00 -1.0000000e+00
      outer loop
         vertex 1.1607905e-01 5.8150112e-01 1.5194000e+00
         vertex 2.2242136e-01 4.5536214e-01 1.5194000e+00
         vertex 2.0339790e-01 4.3900971e-01 1.5194000e+00
      endloop
   endfacet
   facet normal 0.0000000e+00 0.0000000e+00 -1.0000000e+00
      outer loop
         vertex 2.0339790e-01 4.3900971e-01 1.5194000e+00
         vertex 2.2242136e-01 4.5536214e-01 1.5194000e+00
         vertex 3.2806023e-01 3.3116294e-01 1.5194000e+00
      endloop
   endfacet
   facet normal 0.0000000e+00 -0.0000000e+00 -1.0000000e+00
      outer loop
         vertex 2.0339790e-01 4.3900971e-01 1.5194000e+00
         vertex 3.2806023e-01 3.3116294e-01 1.5194000e+00
         vertex 3.1193228e-01 3.1193228e-01 1.5194000e+00
      endloop
   endfacet
   facet normal 0.0000000e+00 0.0000000e+00 -1.0000000e+00
      outer loop
         vertex 3.1193228e-01 3.1193228e-01 1.5194000e+00
         vertex 3.2806023e-01 3.3116294e-01 1.5194000e+00
         vertex 4.5181261e-01 2.2500100e-01 1.5194000e+00
      endloop
   endfacet
   facet normal 0.0000000e+00 -0.0000000e+00 -1.0000000e+00
      outer loop
         vertex 3.1193228e-01 3.1193228e-01 1.5194000e+00
         vertex 4.5181261e-01 2.2500100e-01 1.5194000e+00
         vertex 4.3900971e-01 2.0339790e-01 1.5194000e+00
      endloop
   endfacet
   facet normal 0.0000000e+00 0.0000000e+00 -1.0000000e+00
      outer loop
         vertex 4.3900971e-01 2.0339790e-01 1.5194000e+00
         vertex 4.5181261e-01 2.2500100e-01 1.5194000e+00
         vertex 5.8150112e-01 1.1607905e-01 1.5194000e+00
      endloop
   endfacet
   facet normal 0.0000000e+00 0.0000000e+00 -1.0000000e+00
      outer loop
         vertex 5.8150112e-01 1.1607905e-01 1.5194000e+00
         vertex 4.5181261e-01 2.2500100e-01 1.5194000e+00
         vertex 7.3589790e-01 5.2125810e-02 1.5194000e+00
      endloop
   endfacet
   facet normal 0.0000000e+00 0.0000000e+00 -1.0000000e+00
      outer loop
         vertex 7.3589790e-01 5.2125810e-02 1.5194000e+00
         vertex 4.5181261e-01 2.2500100e-01 1.5194000e+00
         vertex 8.9839829e-01 1.3112917e-02 1.5194000e+00
      endloop
   endfacet
   facet normal 0.0000000e+00 0.0000000e+00 -1.0000000e+00
      outer loop
         vertex 8.9839829e-01 1.3112917e-02 1.5194000e+00
         vertex 4.5181261e-01 2.2500100e-01 1.5194000e+00
         vertex 1.0650010e+00 1.0000000e-06 1.5194000e+00
      endloop
   endfacet
   facet normal 0.0000000e+00 0.0000000e+00 -1.0000000e+00
      outer loop
         vertex 1.0650010e+00 1.0000000e-06 1.5194000e+00
         vertex 4.5181261e-01 2.2500100e-01 1.5194000e+00
         vertex 1.6781894e+00 2.2500100e-01 1.5194000e+00
      endloop
   endfacet
   facet normal 0.0000000e+00 -0.0000000e+00 -1.0000000e+00
      outer loop
         vertex 1.0650010e+00 1.0000000e-06 1.5194000e+00
         vertex 1.6781894e+00 2.2500100e-01 1.5194000e+00
         vertex 1.2316037e+00 1.3112917e-02 1.5194000e+00
      endloop
   endfacet
   facet normal 0.0000000e+00 -0.0000000e+00 -1.0000000e+00
      outer loop
         vertex 1.2316037e+00 1.3112917e-02 1.5194000e+00
         vertex 1.6781894e+00 2.2500100e-01 1.5194000e+00
         vertex 1.3941041e+00 5.2125810e-02 1.5194000e+00
      endloop
   endfacet
   facet normal 0.0000000e+00 -0.0000000e+00 -1.0000000e+00
      outer loop
         vertex 1.3941041e+00 5.2125810e-02 1.5194000e+00
         vertex 1.6781894e+00 2.2500100e-01 1.5194000e+00
         vertex 1.5485009e+00 1.1607905e-01 1.5194000e+00
      endloop
   endfacet
   facet normal 0.0000000e+00 0.0000000e+00 1.0000000e+00
      outer loop
         vertex 3.2806023e-01 3.3116294e-01 2.8639400e+01
         vertex 3.1193228e-01 3.1193228e-01 2.8639400e+01
         vertex 4.5181261e-01 2.2500100e-01 2.8639400e+01
      endloop
   endfacet
   facet normal 0.0000000e+00 0.0000000e+00 1.0000000e+00
      outer loop
         vertex 4.5181261e-01 2.2500100e-01 2.8639400e+01
         vertex 3.1193228e-01 3.1193228e-01 2.8639400e+01
         vertex 4.3900971e-01 2.0339790e-01 2.8639400e+01
      endloop
   endfacet
   facet normal 0.0000000e+00 0.0000000e+00 1.0000000e+00
      outer loop
         vertex 4.5181261e-01 2.2500100e-01 2.8639400e+01
         vertex 4.3900971e-01 2.0339790e-01 2.8639400e+01
         vertex 5.8150112e-01 1.1607905e-01 2.8639400e+01
      endloop
   endfacet
   facet normal 0.0000000e+00 -0.0000000e+00 1.0000000e+00
      outer loop
         vertex 3.1193228e-01 3.1193228e-01 2.8639400e+01
         vertex 3.2806023e-01 3.3116294e-01 2.8639400e+01
         vertex 2.0339790e-01 4.3900971e-01 2.8639400e+01
      endloop
   endfacet
   facet normal -0.0000000e+00 -0.0000000e+00 1.0000000e+00
      outer loop
         vertex 2.0339790e-01 4.3900971e-01 2.8639400e+01
         vertex 3.2806023e-01 3.3116294e-01 2.8639400e+01
         vertex 2.2242136e-01 4.5536214e-01 2.8639400e+01
      endloop
   endfacet
   facet normal 0.0000000e+00 -0.0000000e+00 1.0000000e+00
      outer loop
         vertex 2.0339790e-01 4.3900971e-01 2.8639400e+01
         vertex 2.2242136e-01 4.5536214e-01 2.8639400e+01
         vertex 1.1607905e-01 5.8150112e-01 2.8639400e+01
      endloop
   endfacet
   facet normal -0.0000000e+00 -0.0000000e+00 1.0000000e+00
      outer loop
         vertex 1.1607905e-01 5.8150112e-01 2.8639400e+01
         vertex 2.2242136e-01 4.5536214e-01 2.8639400e+01
         vertex 1.3749253e-01 5.9454585e-01 2.8639400e+01
      endloop
   endfacet
   facet normal 0.0000000e+00 -0.0000000e+00 1.0000000e+00
      outer loop
         vertex 1.1607905e-01 5.8150112e-01 2.8639400e+01
         vertex 1.3749253e-01 5.9454585e-01 2.8639400e+01
         vertex 5.2125810e-02 7.3589790e-01 2.8639400e+01
      endloop
   endfacet
   facet normal -0.0000000e+00 -0.0000000e+00 1.0000000e+00
      outer loop
         vertex 5.2125810e-02 7.3589790e-01 2.8639400e+01
         vertex 1.3749253e-01 5.9454585e-01 2.8639400e+01
         vertex 7.5361257e-02 7.4529304e-01 2.8639400e+01
      endloop
   endfacet
   facet normal 0.0000000e+00 -0.0000000e+00 1.0000000e+00
      outer loop
         vertex 5.2125810e-02 7.3589790e-01 2.8639400e+01
         vertex 7.5361257e-02 7.4529304e-01 2.8639400e+01
         vertex 1.3112917e-02 8.9839829e-01 2.8639400e+01
      endloop
   endfacet
   facet normal -0.0000000e+00 -0.0000000e+00 1.0000000e+00
      outer loop
         vertex 1.3112917e-02 8.9839829e-01 2.8639400e+01
         vertex 7.5361257e-02 7.4529304e-01 2.8639400e+01
         vertex 3.7554668e-02 9.0389844e-01 2.8639400e+01
      endloop
   endfacet
   facet normal 0.0000000e+00 -0.0000000e+00 1.0000000e+00
      outer loop
         vertex 1.3112917e-02 8.9839829e-01 2.8639400e+01
         vertex 3.7554668e-02 9.0389844e-01 2.8639400e+01
         vertex 1.0000000e-06 1.0650010e+00 2.8639400e+01
      endloop
   endfacet
   facet normal -0.0000000e+00 -0.0000000e+00 1.0000000e+00
      outer loop
         vertex 1.0000000e-06 1.0650010e+00 2.8639400e+01
         vertex 3.7554668e-02 9.0389844e-01 2.8639400e+01
         vertex 2.5002029e-02 1.0664636e+00 2.8639400e+01
      endloop
   endfacet
   facet normal 0.0000000e+00 -0.0000000e+00 1.0000000e+00
      outer loop
         vertex 1.0000000e-06 1.0650010e+00 2.8639400e+01
         vertex 2.5002029e-02 1.0664636e+00 2.8639400e+01
         vertex 1.3112917e-02 1.2316037e+00 2.8639400e+01
      endloop
   endfacet
   facet normal -0.0000000e+00 0.0000000e+00 1.0000000e+00
      outer loop
         vertex 1.3112917e-02 1.2316037e+00 2.8639400e+01
         vertex 2.5002029e-02 1.0664636e+00 2.8639400e+01
         vertex 3.8011875e-02 1.2289929e+00 2.8639400e+01
      endloop
   endfacet
   facet normal -0.0000000e+00 0.0000000e+00 1.0000000e+00
      outer loop
         vertex 1.3112917e-02 1.2316037e+00 2.8639400e+01
         vertex 3.8011875e-02 1.2289929e+00 2.8639400e+01
         vertex 5.2125810e-02 1.3941041e+00 2.8639400e+01
      endloop
   endfacet
   facet normal -0.0000000e+00 0.0000000e+00 1.0000000e+00
      outer loop
         vertex 5.2125810e-02 1.3941041e+00 2.8639400e+01
         vertex 3.8011875e-02 1.2289929e+00 2.8639400e+01
         vertex 7.6264432e-02 1.3874913e+00 2.8639400e+01
      endloop
   endfacet
   facet normal -0.0000000e+00 0.0000000e+00 1.0000000e+00
      outer loop
         vertex 5.2125810e-02 1.3941041e+00 2.8639400e+01
         vertex 7.6264432e-02 1.3874913e+00 2.8639400e+01
         vertex 1.1607905e-01 1.5485009e+00 2.8639400e+01
      endloop
   endfacet
   facet normal -0.0000000e+00 0.0000000e+00 1.0000000e+00
      outer loop
         vertex 1.1607905e-01 1.5485009e+00 2.8639400e+01
         vertex 7.6264432e-02 1.3874913e+00 2.8639400e+01
         vertex 1.3881948e-01 1.5380631e+00 2.8639400e+01
      endloop
   endfacet
   facet normal -0.0000000e+00 0.0000000e+00 1.0000000e+00
      outer loop
         vertex 1.1607905e-01 1.5485009e+00 2.8639400e+01
         vertex 1.3881948e-01 1.5380631e+00 2.8639400e+01
         vertex 2.0339790e-01 1.6909923e+00 2.8639400e+01
      endloop
   endfacet
   facet normal -0.0000000e+00 0.0000000e+00 1.0000000e+00
      outer loop
         vertex 2.0339790e-01 1.6909923e+00 2.8639400e+01
         vertex 1.3881948e-01 1.5380631e+00 2.8639400e+01
         vertex 2.2413945e-01 1.6770074e+00 2.8639400e+01
      endloop
   endfacet
   facet normal -0.0000000e+00 0.0000000e+00 1.0000000e+00
      outer loop
         vertex 2.0339790e-01 1.6909923e+00 2.8639400e+01
         vertex 2.2413945e-01 1.6770074e+00 2.8639400e+01
         vertex 3.1193228e-01 1.8180697e+00 2.8639400e+01
      endloop
   endfacet
   facet normal -0.0000000e+00 0.0000000e+00 1.0000000e+00
      outer loop
         vertex 3.1193228e-01 1.8180697e+00 2.8639400e+01
         vertex 2.2413945e-01 1.6770074e+00 2.8639400e+01
         vertex 3.3012725e-01 1.8009090e+00 2.8639400e+01
      endloop
   endfacet
   facet normal -0.0000000e+00 0.0000000e+00 1.0000000e+00
      outer loop
         vertex 3.1193228e-01 1.8180697e+00 2.8639400e+01
         vertex 3.3012725e-01 1.8009090e+00 2.8639400e+01
         vertex 4.3900971e-01 1.9266041e+00 2.8639400e+01
      endloop
   endfacet
   facet normal -0.0000000e+00 0.0000000e+00 1.0000000e+00
      outer loop
         vertex 4.3900971e-01 1.9266041e+00 2.8639400e+01
         vertex 3.3012725e-01 1.8009090e+00 2.8639400e+01
         vertex 4.5417775e-01 1.9067224e+00 2.8639400e+01
      endloop
   endfacet
   facet normal -0.0000000e+00 0.0000000e+00 1.0000000e+00
      outer loop
         vertex 4.3900971e-01 1.9266041e+00 2.8639400e+01
         vertex 4.5417775e-01 1.9067224e+00 2.8639400e+01
         vertex 5.8150112e-01 2.0139229e+00 2.8639400e+01
      endloop
   endfacet
   facet normal -0.0000000e+00 0.0000000e+00 1.0000000e+00
      outer loop
         vertex 5.8150112e-01 2.0139229e+00 2.8639400e+01
         vertex 4.5417775e-01 1.9067224e+00 2.8639400e+01
         vertex 5.9324189e-01 1.9918469e+00 2.8639400e+01
      endloop
   endfacet
   facet normal -0.0000000e+00 0.0000000e+00 1.0000000e+00
      outer loop
         vertex 5.8150112e-01 2.0139229e+00 2.8639400e+01
         vertex 5.9324189e-01 1.9918469e+00 2.8639400e+01
         vertex 7.3589790e-01 2.0778762e+00 2.8639400e+01
      endloop
   endfacet
   facet normal -0.0000000e+00 0.0000000e+00 1.0000000e+00
      outer loop
         vertex 7.3589790e-01 2.0778762e+00 2.8639400e+01
         vertex 5.9324189e-01 1.9918469e+00 2.8639400e+01
         vertex 7.4390155e-01 2.0541901e+00 2.8639400e+01
      endloop
   endfacet
   facet normal -0.0000000e+00 0.0000000e+00 1.0000000e+00
      outer loop
         vertex 7.3589790e-01 2.0778762e+00 2.8639400e+01
         vertex 7.4390155e-01 2.0541901e+00 2.8639400e+01
         vertex 8.9839829e-01 2.1168891e+00 2.8639400e+01
      endloop
   endfacet
   facet normal -0.0000000e+00 0.0000000e+00 1.0000000e+00
      outer loop
         vertex 8.9839829e-01 2.1168891e+00 2.8639400e+01
         vertex 7.4390155e-01 2.0541901e+00 2.8639400e+01
         vertex 9.0245362e-01 2.0922197e+00 2.8639400e+01
      endloop
   endfacet
   facet normal -0.0000000e+00 0.0000000e+00 1.0000000e+00
      outer loop
         vertex 8.9839829e-01 2.1168891e+00 2.8639400e+01
         vertex 9.0245362e-01 2.0922197e+00 2.8639400e+01
         vertex 1.0650010e+00 2.1300010e+00 2.8639400e+01
      endloop
   endfacet
   facet normal -0.0000000e+00 0.0000000e+00 1.0000000e+00
      outer loop
         vertex 1.0650010e+00 2.1300010e+00 2.8639400e+01
         vertex 9.0245362e-01 2.0922197e+00 2.8639400e+01
         vertex 1.0650010e+00 2.1050010e+00 2.8639400e+01
      endloop
   endfacet
   facet normal 0.0000000e+00 0.0000000e+00 1.0000000e+00
      outer loop
         vertex 1.0650010e+00 2.1300010e+00 2.8639400e+01
         vertex 1.0650010e+00 2.1050010e+00 2.8639400e+01
         vertex 1.2275484e+00 2.0922197e+00 2.8639400e+01
      endloop
   endfacet
   facet normal -0.0000000e+00 0.0000000e+00 1.0000000e+00
      outer loop
         vertex 1.0650010e+00 2.1300010e+00 2.8639400e+01
         vertex 1.2275484e+00 2.0922197e+00 2.8639400e+01
         vertex 1.2316037e+00 2.1168891e+00 2.8639400e+01
      endloop
   endfacet
   facet normal 0.0000000e+00 0.0000000e+00 1.0000000e+00
      outer loop
         vertex 1.2316037e+00 2.1168891e+00 2.8639400e+01
         vertex 1.2275484e+00 2.0922197e+00 2.8639400e+01
         vertex 1.3861005e+00 2.0541901e+00 2.8639400e+01
      endloop
   endfacet
   facet normal -0.0000000e+00 0.0000000e+00 1.0000000e+00
      outer loop
         vertex 1.2316037e+00 2.1168891e+00 2.8639400e+01
         vertex 1.3861005e+00 2.0541901e+00 2.8639400e+01
         vertex 1.3941041e+00 2.0778762e+00 2.8639400e+01
      endloop
   endfacet
   facet normal 0.0000000e+00 0.0000000e+00 1.0000000e+00
      outer loop
         vertex 1.3941041e+00 2.0778762e+00 2.8639400e+01
         vertex 1.3861005e+00 2.0541901e+00 2.8639400e+01
         vertex 1.5367601e+00 1.9918469e+00 2.8639400e+01
      endloop
   endfacet
   facet normal -0.0000000e+00 0.0000000e+00 1.0000000e+00
      outer loop
         vertex 1.3941041e+00 2.0778762e+00 2.8639400e+01
         vertex 1.5367601e+00 1.9918469e+00 2.8639400e+01
         vertex 1.5485009e+00 2.0139229e+00 2.8639400e+01
      endloop
   endfacet
   facet normal 0.0000000e+00 0.0000000e+00 1.0000000e+00
      outer loop
         vertex 1.5485009e+00 2.0139229e+00 2.8639400e+01
         vertex 1.5367601e+00 1.9918469e+00 2.8639400e+01
         vertex 1.6758242e+00 1.9067224e+00 2.8639400e+01
      endloop
   endfacet
   facet normal -0.0000000e+00 0.0000000e+00 1.0000000e+00
      outer loop
         vertex 1.5485009e+00 2.0139229e+00 2.8639400e+01
         vertex 1.6758242e+00 1.9067224e+00 2.8639400e+01
         vertex 1.6909923e+00 1.9266041e+00 2.8639400e+01
      endloop
   endfacet
   facet normal 0.0000000e+00 0.0000000e+00 1.0000000e+00
      outer loop
         vertex 1.6909923e+00 1.9266041e+00 2.8639400e+01
         vertex 1.6758242e+00 1.9067224e+00 2.8639400e+01
         vertex 1.7998748e+00 1.8009090e+00 2.8639400e+01
      endloop
   endfacet
   facet normal -0.0000000e+00 0.0000000e+00 1.0000000e+00
      outer loop
         vertex 1.6909923e+00 1.9266041e+00 2.8639400e+01
         vertex 1.7998748e+00 1.8009090e+00 2.8639400e+01
         vertex 1.8180697e+00 1.8180697e+00 2.8639400e+01
      endloop
   endfacet
   facet normal 0.0000000e+00 0.0000000e+00 1.0000000e+00
      outer loop
         vertex 1.8180697e+00 1.8180697e+00 2.8639400e+01
         vertex 1.7998748e+00 1.8009090e+00 2.8639400e+01
         vertex 1.9058625e+00 1.6770074e+00 2.8639400e+01
      endloop
   endfacet
   facet normal -0.0000000e+00 0.0000000e+00 1.0000000e+00
      outer loop
         vertex 1.8180697e+00 1.8180697e+00 2.8639400e+01
         vertex 1.9058625e+00 1.6770074e+00 2.8639400e+01
         vertex 1.9266041e+00 1.6909923e+00 2.8639400e+01
      endloop
   endfacet
   facet normal 0.0000000e+00 0.0000000e+00 1.0000000e+00
      outer loop
         vertex 1.9266041e+00 1.6909923e+00 2.8639400e+01
         vertex 1.9058625e+00 1.6770074e+00 2.8639400e+01
         vertex 1.9911825e+00 1.5380631e+00 2.8639400e+01
      endloop
   endfacet
   facet normal -0.0000000e+00 0.0000000e+00 1.0000000e+00
      outer loop
         vertex 1.9266041e+00 1.6909923e+00 2.8639400e+01
         vertex 1.9911825e+00 1.5380631e+00 2.8639400e+01
         vertex 2.0139229e+00 1.5485009e+00 2.8639400e+01
      endloop
   endfacet
   facet normal 0.0000000e+00 0.0000000e+00 1.0000000e+00
      outer loop
         vertex 2.0139229e+00 1.5485009e+00 2.8639400e+01
         vertex 1.9911825e+00 1.5380631e+00 2.8639400e+01
         vertex 2.0537376e+00 1.3874913e+00 2.8639400e+01
      endloop
   endfacet
   facet normal -0.0000000e+00 0.0000000e+00 1.0000000e+00
      outer loop
         vertex 2.0139229e+00 1.5485009e+00 2.8639400e+01
         vertex 2.0537376e+00 1.3874913e+00 2.8639400e+01
         vertex 2.0778762e+00 1.3941041e+00 2.8639400e+01
      endloop
   endfacet
   facet normal 0.0000000e+00 0.0000000e+00 1.0000000e+00
      outer loop
         vertex 2.0778762e+00 1.3941041e+00 2.8639400e+01
         vertex 2.0537376e+00 1.3874913e+00 2.8639400e+01
         vertex 2.0919901e+00 1.2289929e+00 2.8639400e+01
      endloop
   endfacet
   facet normal -0.0000000e+00 0.0000000e+00 1.0000000e+00
      outer loop
         vertex 2.0778762e+00 1.3941041e+00 2.8639400e+01
         vertex 2.0919901e+00 1.2289929e+00 2.8639400e+01
         vertex 2.1168891e+00 1.2316037e+00 2.8639400e+01
      endloop
   endfacet
   facet normal 0.0000000e+00 0.0000000e+00 1.0000000e+00
      outer loop
         vertex 2.1168891e+00 1.2316037e+00 2.8639400e+01
         vertex 2.0919901e+00 1.2289929e+00 2.8639400e+01
         vertex 2.1050000e+00 1.0664636e+00 2.8639400e+01
      endloop
   endfacet
   facet normal 0.0000000e+00 0.0000000e+00 1.0000000e+00
      outer loop
         vertex 2.1168891e+00 1.2316037e+00 2.8639400e+01
         vertex 2.1050000e+00 1.0664636e+00 2.8639400e+01
         vertex 2.1300010e+00 1.0650010e+00 2.8639400e+01
      endloop
   endfacet
   facet normal 0.0000000e+00 0.0000000e+00 1.0000000e+00
      outer loop
         vertex 2.1300010e+00 1.0650010e+00 2.8639400e+01
         vertex 2.1050000e+00 1.0664636e+00 2.8639400e+01
         vertex 2.0924473e+00 9.0389844e-01 2.8639400e+01
      endloop
   endfacet
   facet normal 0.0000000e+00 0.0000000e+00 1.0000000e+00
      outer loop
         vertex 2.1300010e+00 1.0650010e+00 2.8639400e+01
         vertex 2.0924473e+00 9.0389844e-01 2.8639400e+01
         vertex 2.1168891e+00 8.9839829e-01 2.8639400e+01
      endloop
   endfacet
   facet normal 0.0000000e+00 0.0000000e+00 1.0000000e+00
      outer loop
         vertex 2.1168891e+00 8.9839829e-01 2.8639400e+01
         vertex 2.0924473e+00 9.0389844e-01 2.8639400e+01
         vertex 2.0546407e+00 7.4529304e-01 2.8639400e+01
      endloop
   endfacet
   facet normal 0.0000000e+00 0.0000000e+00 1.0000000e+00
      outer loop
         vertex 2.1168891e+00 8.9839829e-01 2.8639400e+01
         vertex 2.0546407e+00 7.4529304e-01 2.8639400e+01
         vertex 2.0778762e+00 7.3589790e-01 2.8639400e+01
      endloop
   endfacet
   facet normal 0.0000000e+00 0.0000000e+00 1.0000000e+00
      outer loop
         vertex 2.0778762e+00 7.3589790e-01 2.8639400e+01
         vertex 2.0546407e+00 7.4529304e-01 2.8639400e+01
         vertex 1.9925095e+00 5.9454585e-01 2.8639400e+01
      endloop
   endfacet
   facet normal 0.0000000e+00 0.0000000e+00 1.0000000e+00
      outer loop
         vertex 2.0778762e+00 7.3589790e-01 2.8639400e+01
         vertex 1.9925095e+00 5.9454585e-01 2.8639400e+01
         vertex 2.0139229e+00 5.8150112e-01 2.8639400e+01
      endloop
   endfacet
   facet normal 0.0000000e+00 0.0000000e+00 1.0000000e+00
      outer loop
         vertex 2.0139229e+00 5.8150112e-01 2.8639400e+01
         vertex 1.9925095e+00 5.9454585e-01 2.8639400e+01
         vertex 1.9075806e+00 4.5536214e-01 2.8639400e+01
      endloop
   endfacet
   facet normal 0.0000000e+00 0.0000000e+00 1.0000000e+00
      outer loop
         vertex 2.0139229e+00 5.8150112e-01 2.8639400e+01
         vertex 1.9075806e+00 4.5536214e-01 2.8639400e+01
         vertex 1.9266041e+00 4.3900971e-01 2.8639400e+01
      endloop
   endfacet
   facet normal 0.0000000e+00 0.0000000e+00 1.0000000e+00
      outer loop
         vertex 1.9266041e+00 4.3900971e-01 2.8639400e+01
         vertex 1.9075806e+00 4.5536214e-01 2.8639400e+01
         vertex 1.8019418e+00 3.3116294e-01 2.8639400e+01
      endloop
   endfacet
   facet normal 0.0000000e+00 0.0000000e+00 1.0000000e+00
      outer loop
         vertex 1.9266041e+00 4.3900971e-01 2.8639400e+01
         vertex 1.8019418e+00 3.3116294e-01 2.8639400e+01
         vertex 1.8180697e+00 3.1193228e-01 2.8639400e+01
      endloop
   endfacet
   facet normal 0.0000000e+00 0.0000000e+00 1.0000000e+00
      outer loop
         vertex 1.8180697e+00 3.1193228e-01 2.8639400e+01
         vertex 1.8019418e+00 3.3116294e-01 2.8639400e+01
         vertex 1.6781894e+00 2.2500100e-01 2.8639400e+01
      endloop
   endfacet
   facet normal 0.0000000e+00 0.0000000e+00 1.0000000e+00
      outer loop
         vertex 1.8180697e+00 3.1193228e-01 2.8639400e+01
         vertex 1.6781894e+00 2.2500100e-01 2.8639400e+01
         vertex 1.6909923e+00 2.0339790e-01 2.8639400e+01
      endloop
   endfacet
   facet normal 0.0000000e+00 0.0000000e+00 1.0000000e+00
      outer loop
         vertex 1.6909923e+00 2.0339790e-01 2.8639400e+01
         vertex 1.6781894e+00 2.2500100e-01 2.8639400e+01
         vertex 1.5485009e+00 1.1607905e-01 2.8639400e+01
      endloop
   endfacet
   facet normal 0.0000000e+00 -0.0000000e+00 1.0000000e+00
      outer loop
         vertex 1.5485009e+00 1.1607905e-01 2.8639400e+01
         vertex 1.6781894e+00 2.2500100e-01 2.8639400e+01
         vertex 1.3941041e+00 5.2125810e-02 2.8639400e+01
      endloop
   endfacet
   facet normal 0.0000000e+00 -0.0000000e+00 1.0000000e+00
      outer loop
         vertex 1.3941041e+00 5.2125810e-02 2.8639400e+01
         vertex 1.6781894e+00 2.2500100e-01 2.8639400e+01
         vertex 1.2316037e+00 1.3112917e-02 2.8639400e+01
      endloop
   endfacet
   facet normal 0.0000000e+00 -0.0000000e+00 1.0000000e+00
      outer loop
         vertex 1.2316037e+00 1.3112917e-02 2.8639400e+01
         vertex 1.6781894e+00 2.2500100e-01 2.8639400e+01
         vertex 1.0650010e+00 1.0000000e-06 2.8639400e+01
      endloop
   endfacet
   facet normal 0.0000000e+00 -0.0000000e+00 1.0000000e+00
      outer loop
         vertex 1.0650010e+00 1.0000000e-06 2.8639400e+01
         vertex 1.6781894e+00 2.2500100e-01 2.8639400e+01
         vertex 4.5181261e-01 2.2500100e-01 2.8639400e+01
      endloop
   endfacet
   facet normal 0.0000000e+00 0.0000000e+00 1.0000000e+00
      outer loop
         vertex 1.0650010e+00 1.0000000e-06 2.8639400e+01
         vertex 4.5181261e-01 2.2500100e-01 2.8639400e+01
         vertex 8.9839829e-01 1.3112917e-02 2.8639400e+01
      endloop
   endfacet
   facet normal 0.0000000e+00 0.0000000e+00 1.0000000e+00
      outer loop
         vertex 8.9839829e-01 1.3112917e-02 2.8639400e+01
         vertex 4.5181261e-01 2.2500100e-01 2.8639400e+01
         vertex 7.3589790e-01 5.2125810e-02 2.8639400e+01
      endloop
   endfacet
   facet normal 0.0000000e+00 0.0000000e+00 1.0000000e+00
      outer loop
         vertex 7.3589790e-01 5.2125810e-02 2.8639400e+01
         vertex 4.5181261e-01 2.2500100e-01 2.8639400e+01
         vertex 5.8150112e-01 1.1607905e-01 2.8639400e+01
      endloop
   endfacet
endsolid AutoCAD
